<?xml version="1.0" encoding="utf-8"?>
<!-- Generator: Adobe Illustrator 24.0.1, SVG Export Plug-In . SVG Version: 6.00 Build 0)  -->
<svg version="1.1" xmlns="http://www.w3.org/2000/svg" xmlns:xlink="http://www.w3.org/1999/xlink" x="0px" y="0px"
	 viewBox="0 0 792 612" style="enable-background:new 0 0 792 612;" xml:space="preserve">
<style type="text/css">
	.st0{display:none;}
	.st1{fill:#FFAA00;}
	.st2{fill:#FF0000;}
	.st3{fill:#FFFF00;}
	.st4{fill:#FFC200;}
	.st5{fill:#BFB722;}
	.st6{fill:#FFF200;}
	.st7{fill:#EDFF00;}
	.st8{fill:#8C9300;}
	.st9{fill:#BCBC04;}
	.st10{clip-path:url(#SVGID_2_);}
	.st11{fill:#0000AD;}
	.st12{fill:#2F6000;}
	.st13{fill:#93E080;}
	.st14{fill:#FFFFFF;}
	.st15{fill:#29ABE2;}
	.st16{fill:#1EAF00;}
	.st17{fill:#186D03;}
	.st18{fill:#00FFFF;}
	.st19{opacity:0.51;fill:#777777;}
	.st20{opacity:0.51;fill:#FFFFFF;}
	.st21{fill:#FF8500;}
	.st22{fill:#898989;}
	.st23{fill:#ADE0C7;}
	.st24{fill:#FCFCFC;}
	.st25{clip-path:url(#SVGID_4_);}
	.st26{fill:#FF6700;}
	.st27{fill:#ADE000;}
	.st28{fill:#682C00;}
	.st29{fill:#9B5100;}
	.st30{fill:#894E00;}
	.st31{fill:#873700;}
	.st32{fill:#9E4400;}
	.st33{fill:#7C4700;}
</style>
<g id="Layer_1" class="st0">
	
		<image style="display:inline;overflow:visible;" width="650" height="650" xlink:href="36BAE9F3.jpg"  transform="matrix(9.826514e-02 0 0 9.826514e-02 78 310)">
	</image>
</g>
<g id="Layer_6">
	<g>
		<g>
			<g>
				<path class="st1" d="M337.8,456.7c0,0,14.8,3.7,7.4,18.5c-9.5,19,13.4,27.9,3.7,36.9c-8.5,8-25.8-7.4-33.2-3.7
					s18.5-7.4,11.1-18.5S348.8,471.5,337.8,456.7z"/>
				<path class="st2" d="M337.5,456.5c0-0.1,0.2-0.2,0.4-0.1c0.1,0,0,0,0.1,0l0.1,0l0.2,0l0.3,0c0.2,0,0.4,0.1,0.7,0.1
					c0.4,0.1,0.9,0.2,1.3,0.3c0.9,0.3,1.7,0.6,2.5,1c0.8,0.4,1.6,1,2.3,1.6c0.7,0.6,1.4,1.4,2,2.2c0.1,0.1,0.1,0.2,0.2,0.3l0.2,0.3
					c0.1,0.2,0.3,0.4,0.4,0.7l0.3,0.7l0.3,0.7c0.3,1,0.5,2,0.6,3c0.1,2-0.2,4-0.7,5.8l-0.5,1.4c-0.2,0.4-0.4,0.9-0.5,1.3l-0.5,1.1
					c-0.1,0.4-0.3,0.7-0.4,1.1c-0.5,1.4-0.9,2.9-1,4.4c-0.3,2.9,0.2,5.8,1.2,8.7c0.5,1.5,1.1,3,1.8,4.5c0.7,1.5,1.5,3.1,2.2,4.7
					c0.7,1.6,1.4,3.4,1.6,5.4c0,0.5,0.1,1,0,1.5c-0.1,0.5-0.1,1-0.3,1.5c-0.3,1-0.8,1.9-1.4,2.6c-0.3,0.4-0.6,0.7-1,1l-0.3,0.2
					l-0.3,0.2l-0.6,0.4c-0.2,0.1-0.4,0.3-0.6,0.4c-0.2,0.1-0.4,0.3-0.6,0.4c-0.4,0.2-0.9,0.4-1.3,0.6c-0.2,0.1-0.4,0.2-0.7,0.2
					l-0.7,0.2l-0.3,0.1l-0.3,0l-0.7,0.1c-0.5,0-0.9,0.1-1.4,0.1c-0.5,0-0.9,0-1.4-0.1c-1.8-0.1-3.6-0.5-5.3-0.9
					c-1.7-0.4-3.4-0.9-5.1-1.4c-1.7-0.5-3.3-1-4.9-1.4c-1.6-0.5-3.2-0.8-4.7-1.1c-0.7-0.1-1.5-0.2-2.1-0.1l-0.5,0
					c-0.1,0-0.3,0.1-0.4,0.1c-0.1,0-0.2,0.1-0.4,0.1c-0.1,0-0.2,0.1-0.3,0.1c0,0-0.1,0-0.1,0.1c0,0-0.1,0-0.2,0.1l-0.5,0.3l-0.2,0.1
					c-0.1,0-0.2,0.1-0.2,0.1c0,0,0,0,0,0l0.1,0c0.2-0.9-0.4,1.8,1.2-2.5c-6.2-5.1-2.5-1.2-3.7-2.4l-0.1,0c0,0,0,0,0,0c0,0,0,0,0,0
					l0.2-0.1c0.6-0.4,1.3-0.8,2-1.2c2.7-1.8,5.2-3.9,7-6.1c0.9-1.1,1.6-2.3,2-3.4c0.4-1.1,0.4-1.9,0.1-2.9c-0.1-0.2-0.2-0.5-0.3-0.7
					c-0.1-0.1-0.1-0.2-0.2-0.4l-0.4-0.7c-0.6-1-1-2.3-1.2-3.6c-0.2-1.3,0-2.7,0.4-3.8c0.4-1.2,0.9-2.2,1.5-3
					c1.2-1.7,2.5-3.1,3.8-4.3c1.3-1.2,2.6-2.3,3.9-3.4c1.3-1.1,2.5-2.2,3.6-3.4c1.1-1.2,2-2.4,2.7-3.7c0.6-1.3,1-2.8,0.8-4.3
					c-0.1-0.8-0.3-1.6-0.5-2.3c-0.1-0.2-0.1-0.4-0.2-0.6c-0.1-0.2-0.2-0.4-0.2-0.6l-0.1-0.3c0-0.1,0-0.1-0.1-0.2
					c0-0.1-0.1-0.1-0.1-0.2C337.6,457.1,337.6,456.7,337.5,456.5z M338,456.9c0.2,0.1,0.4,0.2,0.5,0.2c0,0,0.1,0,0.1,0
					c0,0,0.1,0.1,0.1,0.1l0.2,0.3c0.3,0.3,0.6,0.7,0.8,1.1c0.5,0.8,1,1.6,1.3,2.5c0.3,0.9,0.5,1.9,0.5,2.9c0,1-0.1,2-0.3,2.9
					c-0.5,1.9-1.4,3.6-2.4,5.2c-1,1.5-2.2,2.9-3.3,4.3c-1.2,1.3-2.3,2.6-3.4,3.8c-1.1,1.2-2,2.5-2.7,3.6c-0.3,0.6-0.5,1.1-0.7,1.6
					c-0.1,0.5-0.1,0.9,0,1.3c0.1,0.4,0.2,0.8,0.5,1.2l0.3,0.4c0.2,0.2,0.3,0.5,0.5,0.7c0.3,0.5,0.6,1.1,0.8,1.6
					c0.4,1.2,0.7,2.4,0.6,3.7c0,1.3-0.3,2.5-0.6,3.5c-0.8,2.2-2,3.9-3.3,5.4c-1.3,1.5-2.8,2.7-4.2,3.8c-1.5,1.1-3,2.1-4.6,3
					c-0.8,0.5-1.6,0.9-2.5,1.3l-0.4,0.2l-0.1,0.1l-0.1,0l-0.1,0.1c-1.2-1.2,2.5,2.7-3.8-2.4c1.5-4.3,1-1.7,1.2-2.5l0.1-0.1l0.1,0
					c0.2-0.1,0.3-0.1,0.4-0.2l0.3-0.2l0.6-0.3c0.1,0,0.3-0.1,0.4-0.2l0.5-0.2c1.2-0.4,2.5-0.5,3.5-0.4c1.1,0.1,2.1,0.3,3,0.5
					c1.9,0.5,3.5,1.2,5.1,1.9c1.6,0.7,3.1,1.5,4.7,2.2c1.5,0.7,3.1,1.5,4.6,2c1.6,0.6,3.1,1.1,4.7,1.3c1.6,0.2,3.2,0.2,4.7-0.3
					c1.5-0.5,2.7-1.5,3.6-2.7c0.5-0.6,0.7-1.3,0.9-2c0.1-0.7,0.1-1.4-0.1-2.1c-0.3-1.4-1.2-2.8-2.1-4.2c-1.9-2.7-4.2-5.5-5.8-8.9
					c-0.8-1.7-1.4-3.5-1.8-5.5c-0.3-1.9-0.4-4-0.1-5.9c0.3-2,0.8-3.8,1.6-5.6c0.2-0.4,0.4-0.9,0.6-1.3l0.6-1.2
					c0.2-0.3,0.4-0.7,0.5-1l0.5-1c1.2-2.8,1.6-5.7,0.5-8.3c-0.6-1.3-1.5-2.5-2.7-3.6c-0.6-0.5-1.2-1-1.9-1.5
					c-0.3-0.2-0.7-0.5-1.1-0.7c-0.2-0.1-0.4-0.2-0.6-0.3l-0.3-0.1l-0.1-0.1l-0.1,0c0,0,0,0,0,0C337.8,457.1,338,457,338,456.9z"/>
			</g>
			<g>
				<path class="st1" d="M272.2,473.8c0,0,9.4,0.6,15.7,10.5c2.9,4.6,36.2,16.2,22.2,33.2c-7.1,8.5-16.5,1.2-16.5,1.2
					s7.1-17.1-8-19.3C270.6,497.1,290.7,477.4,272.2,473.8z"/>
				<path class="st2" d="M271.9,473.7c0,0,0-0.1,0.1-0.2c0.1-0.1,0.1-0.1,0.2-0.1c0,0,0.1,0,0.1,0c0,0,0,0,0,0l0,0l0.2,0
					c0.1,0,0.2,0,0.3,0c0.2,0,0.5,0,0.7,0c0.5,0,0.9,0,1.4,0.1c0.5,0.1,0.9,0.1,1.4,0.2c0.5,0.1,0.9,0.2,1.4,0.3
					c1.8,0.5,3.5,1.2,5.2,2.2c1.6,1,3.1,2.2,4.5,3.6c0.3,0.3,0.7,0.7,1,1.1c0.3,0.4,0.6,0.7,0.9,1.1l0.4,0.6l0.2,0.3
					c0,0,0,0.1,0,0.1l0,0c0,0,0,0,0,0c0.1,0.1,0.3,0.3,0.6,0.5c0.6,0.4,1.3,0.8,2,1.3l2.2,1.3c1.5,0.9,3,1.7,4.5,2.7
					c3,1.9,5.9,4.2,8.4,6.9c1.3,1.3,2.5,2.8,3.5,4.3c1.1,1.5,2,3.2,2.6,5c0.6,1.8,0.9,3.7,0.6,5.6c-0.2,1.9-0.9,3.7-1.8,5.3
					c-0.4,0.8-1,1.6-1.5,2.3c-0.6,0.8-1.2,1.5-1.9,2.2c-0.7,0.7-1.5,1.3-2.4,1.8c-0.9,0.5-1.9,0.9-2.9,1.1c-2.1,0.5-4.2,0.4-6.2-0.1
					c-1-0.2-2-0.6-2.9-1c-0.5-0.2-0.9-0.4-1.4-0.7c-0.2-0.1-0.4-0.2-0.7-0.4l-0.3-0.2c-0.1-0.1-0.2-0.1-0.4-0.3l-1.5-1.1l0.6-2.1
					l0.1-0.3l0.1-0.4c0.1-0.3,0.1-0.5,0.2-0.8c0.1-0.5,0.2-1.1,0.3-1.6c0.2-1.1,0.3-2.1,0.3-3.2c0-1-0.1-2-0.2-2.9
					c-0.2-0.9-0.5-1.7-0.9-2.4c-0.4-0.7-0.9-1.2-1.5-1.7c-0.6-0.5-1.4-0.9-2.3-1.2c-0.1,0-0.2-0.1-0.3-0.1l-0.3-0.1
					c-0.2-0.1-0.5-0.1-0.7-0.2l-0.7-0.2l-0.1,0l-0.1,0l-0.3-0.1c-0.2,0-0.4-0.1-0.6-0.1c-0.7-0.2-1.5-0.4-2.3-0.7
					c-0.8-0.3-1.6-0.8-2.3-1.4c-0.7-0.6-1.4-1.4-1.9-2.3c-0.5-0.9-0.7-1.8-0.9-2.6c-0.3-1.7-0.1-3.1,0.1-4.5
					c0.2-1.3,0.5-2.5,0.8-3.7c0.3-1.2,0.5-2.3,0.7-3.4c0.3-2.2,0.3-4.2-0.8-5.8c-0.5-0.8-1.4-1.6-2.3-2.2c-0.5-0.3-1-0.6-1.5-0.8
					c-0.3-0.1-0.5-0.3-0.8-0.4l-0.1,0l-0.1,0c-0.1,0-0.1,0-0.2-0.1c-0.1-0.1-0.2-0.1-0.3-0.2C272.1,474,272,473.8,271.9,473.7z
					 M272.5,473.8c0.2,0,0.4-0.1,0.5-0.2c0,0,0.1-0.1,0.1-0.1c0,0,0,0,0.1,0l0,0l0.1,0c0.3,0,0.6,0.1,0.9,0.1
					c0.6,0.1,1.3,0.2,1.9,0.4c1.3,0.4,2.5,1,3.6,1.9c0.5,0.5,1,1.1,1.4,1.7c0.4,0.6,0.7,1.3,0.9,2c0.5,1.4,0.6,2.8,0.6,4.2
					c0,1.3,0,2.6-0.1,3.9c-0.1,1.2-0.2,2.4-0.2,3.5c0,1.1,0,2.1,0.2,2.8c0.1,0.4,0.2,0.6,0.4,0.8c0.1,0.2,0.3,0.3,0.5,0.5
					c0.4,0.3,1.1,0.5,2,0.7c0.1,0,0.2,0,0.3,0.1l0.4,0.1l1.1,0.2c0.4,0.1,0.7,0.1,1.1,0.2c0.4,0.1,0.7,0.2,1.1,0.3l1.1,0.4
					c0.4,0.2,0.7,0.3,1.1,0.5c0.4,0.2,0.7,0.4,1,0.6c0.4,0.2,0.7,0.5,1,0.7c1.3,1,2.4,2.3,3.2,3.8c0.8,1.5,1.2,3,1.4,4.5
					c0.2,1.5,0.2,2.9,0,4.3c-0.1,1.4-0.4,2.7-0.8,4c-0.2,0.7-0.4,1.3-0.6,1.9c-0.1,0.3-0.2,0.6-0.3,1l-0.2,0.5l-0.2,0.5l-0.8-3.1
					c0,0,0.1,0.1,0.1,0.1l0.2,0.2c0.1,0.1,0.3,0.2,0.4,0.3c0.3,0.2,0.6,0.4,0.9,0.6c0.6,0.4,1.3,0.7,2,1c1.4,0.6,2.8,0.9,4.2,0.9
					c0.7,0,1.4-0.1,2.1-0.4c0.7-0.2,1.4-0.6,2-1l0.5-0.3c0.2-0.1,0.3-0.2,0.5-0.4c0.3-0.2,0.6-0.5,0.9-0.8c0.6-0.6,1.1-1.2,1.6-1.9
					c0.9-1.3,1.6-2.9,1.8-4.4c0.1-0.8,0.1-1.6,0-2.4c-0.1-0.8-0.4-1.6-0.7-2.3c-0.7-1.5-1.7-2.8-2.8-4c-1.2-1.2-2.5-2.2-3.9-3.1
					c-2.8-1.9-5.8-3.5-8.7-5.2c-1.5-0.9-3-1.8-4.5-2.7c-0.8-0.5-1.5-1-2.3-1.5c-0.8-0.5-1.5-1.1-2.3-1.8c-0.4-0.4-0.8-0.7-1.3-1.3
					l-0.2-0.3l-0.1-0.2l-0.2-0.3l-0.3-0.5c-0.2-0.3-0.4-0.7-0.6-1c-0.2-0.3-0.5-0.6-0.7-1c-1-1.3-2-2.5-3.2-3.6
					c-1.2-1.1-2.5-2.1-3.9-2.9l-0.5-0.3c-0.2-0.1-0.4-0.2-0.6-0.3c-0.2-0.1-0.4-0.2-0.6-0.3l-0.6-0.3c-0.2-0.1-0.4-0.2-0.6-0.3
					c-0.2-0.1-0.4-0.2-0.6-0.3c-0.2-0.1-0.4-0.2-0.6-0.2l-0.3-0.1l-0.2-0.1l0,0c0,0,0,0,0,0c0,0,0,0,0.1,0c0,0,0.1-0.1,0.1-0.1
					C272.5,473.9,272.5,473.9,272.5,473.8z"/>
			</g>
			<g>
				<path class="st1" d="M249.1,556.4c0,0,0-14.8,11.1-3.7c11.1,11.1,25.8-3.7,29.5,0s7.4-18.5,7.4-18.5s-11.1-7.4-22.2,0
					c-11.1,7.4-7.4,14.8-18.5,11.1C245.4,541.6,249.1,556.4,249.1,556.4z"/>
				<path class="st2" d="M249.1,556.1c0,0-0.1,0-0.2,0c-0.1,0-0.1,0.1-0.1,0.2c0,0.1,0,0.1,0,0l0,0l0-0.1l0-0.1c0-0.1,0-0.2,0-0.3
					c0-0.2,0-0.4-0.1-0.6c0-0.4-0.1-0.8-0.1-1.2c0-0.8,0-1.6,0.2-2.4c0.1-0.8,0.4-1.6,0.9-2.5c0.1-0.2,0.3-0.4,0.4-0.6
					c0.2-0.2,0.3-0.4,0.5-0.6c0.2-0.2,0.4-0.4,0.7-0.5l0.4-0.2c0.1-0.1,0.3-0.1,0.4-0.2c0.1,0,0.3-0.1,0.4-0.1l0.4-0.1
					c0.3-0.1,0.6-0.1,0.8-0.1c0.3,0,0.5,0,0.8,0l0.4,0l0.4,0.1c0.2,0.1,0.5,0.1,0.7,0.2l0.7,0.2c0.2,0.1,0.4,0.2,0.6,0.3
					c0.2,0.1,0.4,0.2,0.6,0.3c1.5,0.8,2.8,1.8,4,2.9l0.4,0.3c0.1,0.1,0.2,0.2,0.4,0.3c0.2,0.2,0.5,0.4,0.7,0.6
					c0.5,0.3,1,0.7,1.6,0.9c1.1,0.5,2.2,0.9,3.4,1c2.3,0.3,4.9,0.1,7.6-0.5c1.4-0.3,2.7-0.6,4.2-1c1.4-0.4,2.9-0.8,4.4-1.1
					c0.8-0.2,1.5-0.4,2.4-0.4c0.4,0,0.9-0.1,1.3,0c0.5,0,1,0.1,1.5,0.4c0.3,0.1,0.5,0.3,0.7,0.5l0.2,0.1l0.1,0.1l0,0l0,0
					c0,0,0,0,0,0c0,0,0,0,0,0c0,0,0,0,0,0c0.1,0,0.3-0.2,0.5-0.4c0.2-0.2,0.4-0.5,0.5-0.8c0.3-0.6,0.6-1.2,0.9-1.9
					c0.3-0.7,0.5-1.4,0.7-2.1c0.4-1.4,0.7-2.8,1-4.3c0.3-1.4,0.4-2.9,0.6-4.4c0.2-1.5,0.3-2.9,0.4-4.4l0.9,2c0,0-0.1,0-0.2-0.1
					l-0.2-0.1l-0.4-0.2c-0.3-0.1-0.6-0.2-0.9-0.3c-0.6-0.2-1.2-0.4-1.7-0.6c-1.2-0.3-2.4-0.6-3.5-0.7c-2.4-0.3-4.7-0.2-6.9,0.4
					c-1.1,0.3-2.1,0.7-3.2,1.2c-0.2,0.1-0.5,0.3-0.7,0.4l-0.7,0.4l-0.7,0.5c-0.2,0.2-0.5,0.4-0.7,0.5c-1,0.7-1.9,1.5-2.7,2.3
					c-0.2,0.2-0.4,0.4-0.6,0.6c-0.2,0.2-0.4,0.4-0.6,0.6c-0.4,0.4-0.8,0.9-1.2,1.3c-0.8,0.9-1.5,2-2.5,3.1c-0.5,0.6-1,1.2-1.8,1.9
					c-0.7,0.6-1.8,1.3-2.8,1.6c-1.1,0.3-2.1,0.3-3,0.3c-0.2,0-0.5,0-0.7-0.1l-0.6-0.1c-0.4-0.1-0.8-0.2-1.2-0.3
					c-0.4-0.1-0.7-0.2-1.1-0.3c-0.4-0.1-0.7-0.2-1-0.4l-0.9-0.4c-0.3-0.1-0.5-0.2-0.8-0.3l-0.4-0.1l-0.4-0.1
					c-0.3-0.1-0.5-0.1-0.7-0.1c-0.4,0-0.8,0-1.1,0.1c-0.3,0.1-0.6,0.3-0.9,0.6c-0.3,0.3-0.6,0.7-0.8,1.3c-0.4,1-0.7,2.3-0.8,3.6
					c-0.1,0.6-0.1,1.3-0.1,2c0,0.3,0,0.7,0,1l0,0.5l0,0.3l0,0.1l0,0.1l0,0c0,0,0-0.1,0-0.1c0,0-0.1-0.1-0.1-0.1
					C249.2,556.1,249.1,556.1,249.1,556.1z M249.2,556.7c0,0-0.1,0-0.2,0c-0.1,0-0.1-0.1-0.2-0.1c0,0-0.1-0.1,0-0.1l0,0l0-0.1
					l-0.1-0.1l-0.1-0.2l-0.2-0.5c-0.1-0.3-0.2-0.7-0.3-1c-0.2-0.7-0.4-1.4-0.5-2.1c-0.1-0.7-0.2-1.4-0.3-2.2c0-0.7,0-1.5,0.1-2.3
					c0.1-0.8,0.4-1.6,0.8-2.4c0.4-0.8,1.2-1.6,2-2.1c0.9-0.5,1.9-0.8,2.8-0.9c0.4,0,0.9-0.1,1.3,0c0.2,0,0.4,0,0.6,0l0.6,0.1
					c0.4,0,0.8,0.1,1.2,0.2l1,0.2c0.3,0.1,0.6,0.1,0.9,0.2c0.3,0.1,0.6,0.1,0.9,0.1c1.1,0.2,2.1,0.1,2.5-0.1
					c0.2-0.1,0.4-0.2,0.6-0.5c0.2-0.3,0.5-0.7,0.9-1.1c0.7-1,1.4-2.2,2.3-3.4c1.8-2.4,4.1-4.5,6.5-6.2c0.3-0.2,0.6-0.4,0.9-0.6
					l1-0.6l1-0.5c0.3-0.2,0.7-0.3,1.1-0.5c1.4-0.6,3-1.1,4.5-1.3c3.1-0.6,6.2-0.4,9.2,0.3c1.5,0.4,2.9,0.9,4.2,1.5
					c0.7,0.3,1.3,0.7,2,1c0.3,0.2,0.6,0.4,0.9,0.6c0.2,0.1,0.3,0.2,0.5,0.3l0.5,0.4l1.2,0.8l-0.3,1.1c-0.8,2.9-1.7,5.8-2.6,8.6
					c-0.5,1.4-0.9,2.9-1.4,4.3c-0.5,1.4-1,2.8-1.8,4.3c-0.2,0.4-0.4,0.7-0.7,1.1c-0.3,0.4-0.6,0.7-1.1,1c-0.3,0.2-0.6,0.3-1,0.3
					c-0.4,0-0.8-0.1-1-0.3l-0.2-0.1c-0.1,0-0.1-0.1-0.2-0.1l-0.1-0.1l0,0l0,0l-0.1,0c-0.1,0-0.1-0.1-0.2-0.1c-0.3-0.1-0.9,0-1.5,0.1
					c-0.6,0.2-1.2,0.4-1.9,0.8c-2.6,1.2-5.2,2.9-8.1,4c-1.5,0.6-3.1,1-4.7,1.3c-1.7,0.2-3.4,0.3-5.2-0.1c-0.9-0.2-1.7-0.4-2.6-0.7
					c-0.8-0.3-1.6-0.7-2.4-1.1c-0.8-0.4-1.5-1-2.1-1.5c-0.3-0.3-0.6-0.6-1-0.9c-0.2-0.1-0.3-0.3-0.4-0.5c-0.1-0.1-0.3-0.3-0.4-0.4
					l-0.7-0.8c-0.2-0.2-0.5-0.5-0.7-0.7c-0.5-0.5-1-0.9-1.4-1.3c-1-0.8-2-1.2-2.5-1.2c-0.3,0-0.7,0.1-1.1,0.5
					c-0.4,0.4-0.7,0.9-1.1,1.5c-0.3,0.6-0.6,1.3-0.8,1.9c-0.1,0.3-0.2,0.7-0.3,1c-0.1,0.2-0.1,0.4-0.1,0.5l-0.1,0.3l0,0.1l0,0.1l0,0
					c0,0,0,0,0,0.1c0,0.1-0.1,0.1-0.1,0.2C249.3,556.7,249.2,556.7,249.2,556.7z"/>
			</g>
			<g>
				<path class="st1" d="M278.4,607.2c0,0-2.8-16.3,10-20.1s3.3-23.5,12.8-29.6s14.8,14.8,14.8,14.8s-4.6,2.5-7.8,13.1
					C304.9,595.9,278.1,595.5,278.4,607.2z"/>
				<path class="st2" d="M278.4,607.5c0,0-0.1,0-0.2-0.1c-0.1,0-0.1-0.1-0.1-0.2c0-0.1,0-0.1,0-0.1l0,0l0-0.1l-0.1-0.2
					c0-0.1-0.1-0.2-0.1-0.3c-0.1-0.2-0.1-0.4-0.2-0.6c-0.1-0.4-0.2-0.9-0.3-1.3c-0.2-0.9-0.3-1.8-0.4-2.7c-0.1-1.8-0.1-3.7,0.3-5.6
					c0.2-0.9,0.4-1.9,0.8-2.8c0.3-0.9,0.8-1.8,1.3-2.7c0.3-0.4,0.6-0.8,0.9-1.3c0.2-0.2,0.3-0.4,0.5-0.6c0.2-0.2,0.3-0.4,0.5-0.6
					c0.4-0.4,0.7-0.7,1.1-1.1c0.2-0.2,0.4-0.3,0.6-0.5l0.6-0.5l0.3-0.2l0.3-0.2l0.7-0.4c0.5-0.2,0.9-0.4,1.4-0.7l0.7-0.3l0.7-0.2
					l0.5-0.2c0.2-0.1,0.3-0.1,0.4-0.2c0.3-0.2,0.6-0.3,0.8-0.5c0.1-0.1,0.2-0.2,0.4-0.2l0.3-0.3c0.2-0.2,0.4-0.4,0.6-0.6
					c0.1-0.1,0.2-0.2,0.3-0.3c0.1-0.1,0.2-0.2,0.3-0.4c0.7-1,1.3-2.3,1.7-3.9c0.4-1.5,0.8-3.1,1.1-4.8l0.9-5.2
					c0.2-0.9,0.3-1.8,0.5-2.6c0.1-0.4,0.2-0.9,0.3-1.3c0.1-0.4,0.3-0.9,0.4-1.3c0.2-0.4,0.3-0.9,0.5-1.3c0.1-0.2,0.2-0.4,0.3-0.6
					l0.3-0.6c0.1-0.2,0.2-0.4,0.4-0.6c0.1-0.2,0.3-0.4,0.4-0.6c0.3-0.4,0.6-0.8,1-1.1l0.5-0.5l0.6-0.4c0.4-0.3,0.8-0.5,1.2-0.8
					c0.9-0.4,1.8-0.8,2.9-0.9c1.1-0.1,2.1,0.1,3.1,0.5c1,0.4,1.8,1,2.6,1.6c1.5,1.3,2.7,2.7,3.8,4.3c1,1.5,2,3.2,2.7,4.8
					c0.4,0.8,0.7,1.7,1.1,2.5c0.2,0.4,0.3,0.9,0.5,1.3l0.2,0.7c0.1,0.2,0.1,0.4,0.2,0.7l-1.4,3.1l0.1,0c0,0,0,0,0,0l0,0l-0.1,0.1
					c-0.1,0-0.1,0.1-0.2,0.2c-0.1,0.1-0.1,0.1-0.2,0.2c-0.1,0.1-0.1,0.1-0.2,0.2l-0.2,0.2l-0.2,0.3c-0.1,0.2-0.3,0.4-0.4,0.5
					c-0.6,0.8-1.1,1.6-1.6,2.5c-0.2,0.4-0.5,0.9-0.7,1.3c-0.2,0.5-0.4,0.9-0.6,1.4c-0.2,0.5-0.4,1-0.6,1.4l-0.5,1.5l-0.5,1.5
					l-0.2,0.5c-0.1,0.2-0.1,0.4-0.2,0.6c-0.1,0.2-0.2,0.4-0.2,0.6l-0.3,0.5c-0.8,1.4-1.8,2.6-2.9,3.5c-2.2,1.8-4.5,2.9-6.7,3.8
					c-4.5,1.8-8.9,2.8-13,4.2c-2.1,0.7-4.1,1.4-5.8,2.5c-0.9,0.6-1.6,1.2-2.2,2c-0.3,0.4-0.6,0.8-0.8,1.3c-0.1,0.1-0.1,0.2-0.1,0.4
					c0,0.1-0.1,0.3-0.1,0.4l-0.1,0.2c0,0,0,0.1,0,0.1c0,0.1,0,0.1,0,0.2c0,0.1-0.1,0.3-0.2,0.4C278.5,607.4,278.5,607.4,278.4,607.5
					z M278.3,606.9c0-0.1-0.1-0.2-0.2-0.2c-0.1,0-0.1,0-0.2,0c0,0,0,0,0,0c0,0,0-0.1,0-0.1l0-0.2c0-0.2,0-0.3,0-0.5
					c0-0.2,0-0.3,0-0.5c0-0.6,0.2-1.3,0.4-1.9c0.2-0.6,0.5-1.2,0.8-1.7c0.3-0.5,0.7-1,1.2-1.5c1.7-1.9,3.8-3.2,5.8-4.4
					c4.1-2.3,8.4-3.9,12.2-5.9c1.9-1,3.6-2,4.9-3.2c0.3-0.3,0.6-0.6,0.8-0.9c0.2-0.3,0.4-0.6,0.6-0.9l0.1-0.2l0.1-0.2
					c0-0.1,0.1-0.1,0.1-0.2l0-0.1l0.1-0.2l0.6-1.7c0.9-2.3,1.9-4.5,3.3-6.7c0.7-1.1,1.5-2.1,2.3-3.1c0.2-0.2,0.4-0.5,0.7-0.7
					l0.4-0.4l0.4-0.4c0.1-0.1,0.3-0.2,0.4-0.3c0.1-0.1,0.3-0.2,0.4-0.3c0.2-0.1,0.3-0.2,0.5-0.3l0.3-0.2l0.2-0.1l0.1-0.1l0.1-0.1
					l-1.4,3.1c0-0.2-0.1-0.4-0.1-0.6l-0.1-0.6c-0.1-0.4-0.2-0.8-0.3-1.2c-0.2-0.8-0.4-1.6-0.7-2.4c-0.5-1.6-1-3.1-1.7-4.6
					c-0.7-1.5-1.4-2.9-2.4-4c-1-1.2-2.1-2-3.5-2.1c-0.7,0-1.4,0.1-2.1,0.4l-0.5,0.3c-0.1,0-0.2,0.1-0.3,0.1l-0.2,0.2l-0.5,0.3
					l-0.4,0.4c-1.2,1-1.9,2.5-2.3,4c-0.4,1.6-0.6,3.2-0.6,4.9c0,1.7,0.1,3.4,0.2,5.2c0.1,1.8,0.1,3.6-0.1,5.5
					c-0.2,1.9-0.7,3.9-1.8,5.9c-0.1,0.2-0.3,0.5-0.5,0.7c-0.2,0.2-0.3,0.5-0.5,0.7c-0.4,0.4-0.8,0.9-1.2,1.2
					c-0.2,0.2-0.4,0.4-0.7,0.5c-0.2,0.2-0.5,0.3-0.7,0.5c-0.5,0.3-1,0.5-1.5,0.8c-0.3,0.1-0.5,0.2-0.8,0.3l-0.8,0.3l-0.3,0.1
					l-0.3,0.1l-0.5,0.2c-0.3,0.1-0.7,0.3-1,0.4l-0.5,0.2c-0.2,0.1-0.3,0.2-0.5,0.2l-0.5,0.3c-0.2,0.1-0.3,0.2-0.4,0.3
					c-0.3,0.2-0.6,0.4-0.8,0.6c-0.1,0.1-0.3,0.2-0.4,0.3c-0.1,0.1-0.3,0.2-0.4,0.4c-0.2,0.3-0.5,0.5-0.7,0.8
					c-0.9,1.1-1.7,2.4-2.3,3.9c-0.3,0.7-0.6,1.5-0.8,2.3c-0.2,0.8-0.4,1.6-0.6,2.4c-0.2,0.8-0.3,1.7-0.4,2.5l-0.2,1.3
					c0,0.2,0,0.4-0.1,0.6l0,0.3l0,0.2l0,0.1l0,0c0,0,0,0,0,0c0,0-0.1-0.1-0.1-0.1C278.5,606.9,278.4,606.9,278.3,606.9z"/>
			</g>
			<g>
				<path class="st1" d="M356.2,611.8c0,0-18.5,3.7-18.5-18.5s-16.4-3.7-21.1-22.2c-4.7-18.5,21.1-11.1,21.1-11.1
					s3.7,14.8,11.1,18.5C356.2,582.3,345.1,611.8,356.2,611.8z"/>
				<path class="st2" d="M356.5,611.8c0,0,0,0.1-0.1,0.2c0,0.1-0.1,0.1-0.2,0.1c-0.1,0,0,0-0.1,0l0,0l-0.1,0l-0.2,0.1
					c-0.1,0-0.2,0.1-0.4,0.1c-0.3,0.1-0.5,0.1-0.8,0.2c-0.5,0.1-1,0.2-1.5,0.3c-1,0.1-2.1,0.2-3.2,0.1c-1.1-0.1-2.2-0.2-3.2-0.5
					c-1.1-0.3-2.1-0.7-3.1-1.2c-2-1.1-3.8-2.7-5.1-4.6c-0.3-0.5-0.6-1-0.9-1.5l-0.4-0.8c-0.1-0.3-0.2-0.5-0.3-0.8l-0.3-0.8
					c-0.1-0.3-0.2-0.5-0.3-0.8l-0.3-0.8c-0.1-0.3-0.1-0.5-0.2-0.8c-0.5-2.2-0.8-4.3-0.8-6.5c0-0.6,0-1-0.1-1.5c0-0.5,0-0.9-0.1-1.4
					c0-0.4,0-0.9-0.1-1.3l-0.1-0.6c0-0.2,0-0.4-0.1-0.6l-0.1-0.6l-0.1-0.3l-0.1-0.3l-0.1-0.6c0-0.2-0.1-0.3-0.2-0.5
					c0-0.1-0.1-0.2-0.1-0.3c0-0.1-0.1-0.2-0.1-0.2c-0.1-0.1-0.1-0.3-0.2-0.4c-0.1-0.1-0.2-0.3-0.3-0.4c-0.1-0.1-0.2-0.2-0.3-0.4
					c-0.4-0.4-1-0.8-1.7-1.1c-0.7-0.3-1.6-0.5-2.6-0.7c-1-0.2-2-0.4-3-0.6c-0.5-0.1-1-0.3-1.6-0.4c-0.5-0.2-1-0.4-1.6-0.6l-0.4-0.2
					l-0.4-0.2c-0.2-0.1-0.5-0.3-0.7-0.4l-0.7-0.5l-0.6-0.6c-0.2-0.2-0.4-0.4-0.6-0.6c-0.2-0.2-0.4-0.4-0.5-0.6l-0.5-0.7
					c-0.1-0.1-0.2-0.2-0.2-0.3l-0.2-0.3c-0.1-0.2-0.3-0.5-0.4-0.7l-0.3-0.7c-0.2-0.5-0.4-1-0.6-1.5c-0.1-0.2-0.2-0.5-0.3-0.7
					l-0.2-0.7l-0.2-0.7l-0.2-0.8c-0.3-1-0.4-2.1-0.5-3.1c-0.1-1.1-0.1-2.2,0.2-3.3c0.2-1.1,0.7-2.3,1.4-3.3c0.7-1,1.7-1.8,2.7-2.4
					c2-1.2,4.3-1.8,6.5-2.1c2.2-0.3,4.3-0.3,6.4-0.1c1.1,0.1,2.1,0.2,3.2,0.4c0.5,0.1,1,0.2,1.6,0.3l0.8,0.2
					c0.3,0.1,0.5,0.1,0.8,0.2l1.5,0.4l0.5,1.7l0.2,0.8l0.3,0.8c0.2,0.5,0.4,1.1,0.6,1.6c0.4,1.1,0.9,2.2,1.4,3.2
					c1,2.1,2,4.1,3.3,5.8c0.6,0.9,1.3,1.7,1.9,2.4c0.7,0.7,1.4,1.2,2.1,1.6c1.1,0.6,2,1.5,2.5,2.3c0.6,0.9,0.9,1.7,1.1,2.5
					c0.4,1.6,0.5,3,0.6,4.4c0,1.4,0,2.7-0.1,3.9c-0.1,1.3-0.2,2.5-0.4,3.8c-0.3,2.5-0.7,4.9-1,7.3c-0.3,2.4-0.5,4.7-0.3,7
					c0.1,1.1,0.3,2.2,0.9,3c0.3,0.4,0.6,0.8,1.1,1.1c0.1,0.1,0.2,0.1,0.4,0.2c0.1,0.1,0.3,0.1,0.4,0.2l0.2,0.1l0.1,0
					c0,0,0.1,0,0.1,0c0.1,0,0.3,0.1,0.4,0.2C356.4,611.6,356.5,611.7,356.5,611.8z M355.9,611.8c-0.1,0-0.2,0.1-0.2,0.2
					c0,0.1,0,0.1,0,0.1c0,0,0,0-0.1,0l-0.1,0l-0.3,0c-0.2,0-0.3,0-0.5,0c-0.2,0-0.3-0.1-0.5-0.1c-0.7-0.2-1.4-0.6-1.9-1
					c-0.6-0.5-1-1.1-1.3-1.7c-0.3-0.6-0.6-1.3-0.8-1.9c-0.4-1.3-0.7-2.6-0.9-3.9c-0.2-1.3-0.3-2.6-0.3-3.8c-0.1-2.5-0.1-5-0.1-7.4
					c0-1.2,0-2.4,0-3.6c0-1.2-0.1-2.3-0.2-3.4c-0.1-0.5-0.1-1.1-0.2-1.6c-0.1-0.5-0.2-0.9-0.3-1.3c-0.1-0.4-0.3-0.7-0.4-0.8
					c-0.1-0.1-0.2-0.1-0.2-0.1c-0.3-0.2-0.7-0.4-1.1-0.6c-0.3-0.2-0.7-0.4-1-0.7c-0.3-0.2-0.6-0.5-0.9-0.7l-0.4-0.4l-0.4-0.4
					c-1.1-1.1-1.9-2.2-2.7-3.3c-0.8-1.1-1.4-2.3-2-3.5c-0.6-1.2-1.1-2.4-1.6-3.6c-0.5-1.2-0.9-2.4-1.3-3.7c-0.2-0.6-0.4-1.2-0.5-1.9
					l-0.2-0.9c-0.1-0.3-0.2-0.6-0.2-1l2,2.1c-0.2-0.1-0.4-0.1-0.6-0.2l-0.7-0.2c-0.5-0.1-0.9-0.2-1.4-0.3c-0.9-0.2-1.8-0.4-2.8-0.6
					c-1.8-0.3-3.7-0.6-5.5-0.6c-0.9,0-1.8,0-2.7,0.1c-0.9,0.1-1.7,0.3-2.5,0.6c-1.5,0.6-2.7,1.7-3.3,3.3c-0.1,0.4-0.2,0.8-0.3,1.3
					c-0.1,0.4-0.1,0.9-0.1,1.3c0,0.9,0.1,1.9,0.3,2.8c0.4,1.9,1,3.7,2,5.3c1,1.6,2.4,2.7,4.1,3.2c0.8,0.3,1.7,0.4,2.7,0.4
					c0.9,0,1.9,0,2.9,0c1,0,2.1,0,3.3,0.2c1.2,0.2,2.5,0.6,3.6,1.5c0.3,0.2,0.6,0.4,0.8,0.7c0.2,0.2,0.5,0.5,0.7,0.8
					c0.2,0.3,0.4,0.5,0.6,0.8c0.1,0.1,0.2,0.3,0.3,0.4l0.2,0.4c0.6,1.1,1,2.3,1.2,3.4c0.3,1.1,0.4,2.2,0.5,3.3
					c0.1,0.6,0.1,1.1,0.1,1.6c0,0.5,0,1.1,0,1.5l0,1.4c0,0.5,0.1,0.9,0.1,1.4c0,0.2,0,0.5,0.1,0.7l0.1,0.7c0,0.5,0.1,0.9,0.2,1.3
					c0,0.2,0.1,0.4,0.1,0.7l0.2,0.6c0.1,0.2,0.1,0.4,0.2,0.6l0.2,0.6c0.1,0.2,0.1,0.4,0.2,0.6l0.2,0.6c0.1,0.4,0.4,0.8,0.5,1.2
					c0.1,0.2,0.2,0.4,0.3,0.6c0.1,0.2,0.2,0.4,0.3,0.5c0.2,0.3,0.5,0.7,0.7,1c0.5,0.7,1.1,1.3,1.8,1.8c1.3,1.1,3,1.9,4.8,2.5
					c0.9,0.3,1.8,0.5,2.8,0.6c0.5,0.1,1,0.1,1.5,0.2c0.2,0,0.5,0,0.7,0.1l0.4,0l0.2,0l0.1,0l0,0c0,0,0,0,0,0c0,0-0.1,0.1-0.1,0.1
					C355.9,611.7,355.9,611.8,355.9,611.8z"/>
			</g>
			<g>
				<path class="st1" d="M404.2,567.5c0,0-3.7,3.7-7.4-3.7c-3.7-7.4-18.5,7.4-22.2,0s-22.2,0-22.2,0l7.4-18.5
					c0,0,22.2,7.4,22.2,11.1s7.4,0,14.8,3.7C404.2,563.8,396.8,567.5,404.2,567.5z"/>
				<path class="st2" d="M404.5,567.4c0,0,0,0.1,0,0.2c0,0.1-0.1,0.1-0.1,0.2l0,0.1l-0.1,0.1l-0.2,0.2c-0.1,0.1-0.2,0.2-0.4,0.3
					c-0.1,0.1-0.3,0.2-0.4,0.3l-0.2,0.1c-0.1,0-0.2,0.1-0.3,0.1c-0.7,0.3-1.5,0.3-2.3,0.2c-0.7-0.2-1.5-0.5-2-0.9
					c-0.3-0.2-0.6-0.4-0.8-0.7c-0.2-0.2-0.5-0.5-0.7-0.7l-0.7-0.8c-0.2-0.3-0.4-0.5-0.6-0.8l-0.3-0.4l-0.1-0.2l-0.1-0.1
					c-0.1-0.1-0.2-0.3-0.4-0.3c-0.1-0.1-0.2-0.1-0.3-0.2c-0.1,0-0.2-0.1-0.4-0.1c-0.3,0-0.6,0-1,0c-0.8,0.1-1.8,0.5-2.9,0.9
					c-1,0.4-2.1,0.9-3.2,1.4c-1.1,0.5-2.2,1-3.5,1.4c-1.2,0.4-2.5,0.9-4.1,1c-0.8,0.1-1.7,0.1-2.6-0.1c-0.9-0.2-2-0.7-2.8-1.4
					c-0.4-0.4-0.7-0.8-1-1.2c-0.1-0.2-0.3-0.4-0.3-0.6l-0.2-0.5c-0.1-0.1-0.1-0.3-0.2-0.4c0-0.1-0.1-0.1-0.1-0.2
					c-0.1-0.1-0.1-0.1-0.2-0.2c-0.4-0.6-1.2-1.1-2.2-1.4c-1-0.3-2.1-0.5-3.2-0.6c-2.3-0.2-4.7,0.1-7,0.6c-0.6,0.1-1.2,0.3-1.7,0.4
					c-0.6,0.2-1.1,0.3-1.7,0.5c-0.6,0.2-1.1,0.4-1.7,0.6c-0.5,0.2-1.1,0.4-1.6,0.7l-2.2,1l0.8-2.4c0.5-1.6,1-3.2,1.5-4.8
					c0.5-1.6,0.9-3.2,1.4-4.8c0.5-1.6,0.9-3.2,1.4-4.8c0.5-1.6,1-3.2,1.6-4.7l0.8-2.3l2.6,0.7c2.2,0.6,4.3,1.3,6.4,2
					c2.1,0.7,4.3,1.5,6.4,2.3c1.1,0.4,2.1,0.9,3.2,1.4c1,0.5,2.1,1,3.1,1.6c0.5,0.3,1,0.6,1.6,1c0.5,0.4,1.1,0.8,1.7,1.3
					c0.1,0.1,0.3,0.3,0.4,0.4c0.2,0.2,0.3,0.3,0.5,0.5c0.3,0.4,0.7,0.9,1,1.8c0.1,0.2,0.1,0.5,0.1,0.8c0,0.1,0,0.3,0,0.4
					c0,0,0,0,0,0c0,0,0,0,0-0.1c0,0,0-0.1,0-0.2l0-0.1c0,0,0-0.1,0-0.1c0-0.1-0.1-0.1-0.1-0.2c0-0.1-0.1-0.2-0.2-0.2
					c-0.1-0.1-0.1-0.1-0.2-0.2c-0.2-0.2-0.4-0.2-0.4-0.2c0,0,0,0,0,0c0,0,0,0,0.1,0c0.1,0,0.1,0,0.2,0.1c0.3,0.1,0.8,0.1,1.3,0.1
					c1,0.1,2.2,0.1,3.4,0.3c2.4,0.2,4.9,0.8,7.2,1.9c0.6,0.3,1.1,0.6,1.6,0.9c0.3,0.2,0.5,0.3,0.8,0.5c0.3,0.2,0.5,0.4,0.8,0.6
					c0.5,0.5,1,1,1.4,1.6c0.4,0.6,0.7,1.4,0.8,2.1c0.1,0.7,0,1.4-0.1,2c0,0.3-0.1,0.5-0.1,0.6c0,0.1,0,0.2,0,0.3
					c0,0.1,0.2,0.2,0.4,0.3c0.2,0.1,0.4,0.2,0.7,0.3c0.2,0.1,0.5,0.2,0.8,0.2c0.1,0,0.1,0,0.2,0c0.1,0,0.2,0,0.3,0.1
					C404.2,567.2,404.4,567.3,404.5,567.4z M403.9,567.6c-0.1,0.1-0.2,0.2-0.3,0.2c0,0,0,0.1-0.1,0.1c0,0-0.1,0-0.2,0
					c-0.3,0-0.6,0.1-0.9,0.1c-0.3,0-0.6,0-0.9-0.1c-0.3-0.1-0.7-0.1-1.1-0.4c-0.2-0.1-0.4-0.3-0.5-0.5c-0.1-0.2-0.2-0.4-0.3-0.6
					c-0.1-0.4-0.2-0.8-0.2-1.1c-0.1-0.6-0.2-1-0.3-1.3c-0.2-0.3-0.4-0.6-0.6-0.8c-0.3-0.2-0.6-0.5-1-0.7c-0.8-0.4-1.7-0.7-2.6-1
					c-1.9-0.5-3.8-0.6-5.8-0.5c-1,0-2.1,0.1-3.2,0.2c-0.6,0-1.2,0-2,0c-0.2,0-0.4,0-0.6-0.1c-0.1,0-0.2,0-0.4-0.1
					c-0.1,0-0.2,0-0.4-0.1c-0.5-0.1-1.2-0.4-1.9-1c-0.2-0.2-0.3-0.3-0.5-0.5c-0.1-0.2-0.3-0.4-0.4-0.6c-0.1-0.2-0.2-0.4-0.3-0.6
					c0-0.1-0.1-0.2-0.1-0.3c0-0.1-0.1-0.2-0.1-0.3c0-0.2-0.1-0.4-0.1-0.6c0-0.2,0-0.3,0-0.5l0-0.2c0,0.1,0,0.1,0,0.2
					c0,0.2,0,0.3,0.1,0.4c0.1,0.4,0.2,0.4,0.1,0.4c0,0-0.1,0-0.1-0.1c-0.1,0-0.1-0.1-0.2-0.1c-0.2-0.2-0.6-0.4-1-0.7
					c-0.4-0.2-0.8-0.5-1.2-0.7c-0.9-0.5-1.8-1-2.7-1.4c-0.9-0.5-1.9-0.9-2.9-1.4c-3.9-1.8-7.9-3.5-12-5.1l3.4-1.6
					c-0.7,1.5-1.4,3-2.1,4.5c-0.7,1.5-1.5,3-2.3,4.4c-0.8,1.5-1.5,2.9-2.3,4.4c-0.8,1.5-1.5,3-2.2,4.5l-1.4-1.4
					c2.4-0.8,4.7-1.5,7.1-2.1c2.4-0.6,4.8-1.2,7.3-1.6c1.3-0.2,2.6-0.3,4-0.1c0.7,0.1,1.4,0.2,2.2,0.4c0.4,0.1,0.7,0.3,1.1,0.5
					l0.5,0.3c0.1,0.1,0.2,0.1,0.3,0.2l0.3,0.2l0.5,0.4c0.2,0.1,0.3,0.3,0.5,0.5c0.3,0.3,0.6,0.7,0.8,1.1l0.1,0.1l0,0.1l0,0l0.1,0.1
					c0,0.1,0.1,0.1,0.1,0.1c0.1,0.1,0.2,0.1,0.2,0.2c0.1,0,0.1,0,0.2,0.1c0.1,0,0.2,0,0.3,0c0.1,0,0.3,0,0.4,0c0.2,0,0.4,0,0.6-0.1
					c0.8-0.1,1.9-0.4,2.9-0.8c1.1-0.3,2.2-0.8,3.3-1.2c1.1-0.4,2.3-0.8,3.6-1.2c0.6-0.2,1.3-0.3,2-0.5c0.7-0.1,1.4-0.2,2.2-0.2
					c0.8,0,1.7,0.1,2.5,0.5c0.4,0.2,0.9,0.4,1.3,0.7c0.4,0.3,0.7,0.6,1,1c0.3,0.4,0.5,0.7,0.7,1.1l0.1,0.3l0.1,0.2l0.2,0.4
					c0.1,0.2,0.2,0.5,0.3,0.8l0.3,0.7c0.5,0.9,1.1,1.8,1.8,2.2c0.4,0.2,0.8,0.4,1.3,0.4l0.2,0l0.2,0c0.1,0,0.3,0,0.4-0.1
					c0.1,0,0.3-0.1,0.4-0.1l0.2-0.1l0.1,0c0,0,0,0,0,0c0,0-0.1,0.1-0.1,0.1C403.9,567.5,403.9,567.6,403.9,567.6z"/>
			</g>
			<g>
				<path class="st1" d="M397.9,517.7c0,0-4.4-10.8-12.8-3.6c-8.9,7.6-26-2-28.8,0.3s1.2,18.4,1.2,18.4c0.1,3.1,22.5-4,26.8-8.4
					C389.5,519.2,390.7,509.3,397.9,517.7z"/>
				<path class="st2" d="M397.8,517.4c0,0-0.1,0.1-0.1,0.1c0,0.1,0,0.2,0,0.2c0,0,0,0,0,0l0,0l-0.1-0.1l-0.2-0.2
					c-0.1-0.1-0.2-0.3-0.3-0.4c-0.2-0.2-0.4-0.5-0.7-0.7c-0.5-0.5-0.9-0.9-1.4-1.3c-1-0.8-2-1.3-3-1.4c-1-0.1-1.8,0-2.7,0.5
					l-0.3,0.2c-0.1,0.1-0.2,0.1-0.3,0.2l-0.2,0.1l-0.2,0.1l-0.3,0.2c-0.2,0.2-0.4,0.4-0.6,0.5l-0.6,0.6c-1.2,1.1-2.7,2-4.2,2.6
					c-1.5,0.6-3.1,0.9-4.6,1.1c-1.5,0.1-3,0-4.5-0.2c-1.4-0.2-2.8-0.6-4.2-1c-2.7-0.8-5.2-2-7.8-2.8c-0.6-0.2-1.3-0.4-1.9-0.5
					c-0.6-0.1-1.3-0.2-1.8-0.2c-0.3,0-0.5,0-0.7,0.1c0,0-0.1,0-0.1,0c0,0,0,0,0,0.1c0,0,0,0.1-0.1,0.1c0,0,0,0.1-0.1,0.1
					c-0.2,0.4-0.3,1-0.4,1.6c-0.1,1.2,0,2.5,0.3,3.8c0.2,1.3,0.5,2.6,0.9,3.9c0.4,1.3,0.8,2.6,1.2,3.8l1.2,3.8l0.1,0.5
					c0-0.2,0-0.4-0.1-0.7c0-0.1-0.1-0.2-0.2-0.3c-0.1-0.1-0.1-0.2-0.2-0.3c-0.1-0.1-0.1-0.1-0.2-0.2c-0.1,0-0.1-0.1-0.2-0.1
					c0,0-0.1-0.1-0.1-0.1c0,0-0.1,0-0.1-0.1c-0.2-0.1-0.1-0.1,0-0.1c0.2,0,0.6,0,1-0.1c0.8-0.1,1.7-0.3,2.7-0.6
					c1.8-0.5,3.7-1.1,5.5-1.8c1.8-0.6,3.7-1.3,5.5-2c1.8-0.7,3.6-1.4,5.3-2.2c0.8-0.4,1.7-0.8,2.4-1.2c0.3-0.2,0.7-0.4,0.9-0.6
					c0,0,0.1-0.1,0.2-0.2l0.2-0.2l0.5-0.4c1.2-1.2,2.4-2.8,3.7-4.5c0.7-0.8,1.4-1.7,2.3-2.5c0.5-0.4,1-0.8,1.7-1.1
					c0.6-0.3,1.5-0.6,2.2-0.5c0.8,0,1.5,0.3,2,0.7c0.3,0.2,0.5,0.4,0.7,0.6l0.3,0.3c0.1,0.1,0.2,0.2,0.3,0.3l0.3,0.3l0.3,0.3
					c0.2,0.2,0.3,0.4,0.5,0.7l0.2,0.3c0,0.1,0.1,0.1,0.1,0.2c0,0,0,0.1,0,0.1c0,0.1,0,0.2,0,0.3
					C397.7,517.1,397.7,517.3,397.8,517.4z M398.1,517.9c-0.1-0.1-0.2-0.1-0.4-0.2c-0.2-0.1-0.4-0.2-0.5-0.3
					c-0.1-0.1-0.2-0.1-0.2-0.2c-0.1-0.1-0.1-0.1-0.2-0.1l-0.3-0.2c-0.2-0.1-0.4-0.3-0.6-0.4l-0.3-0.2l-0.3-0.2
					c-0.4-0.2-0.8-0.4-1.2-0.5c-0.4-0.1-0.7-0.1-0.9,0c-0.2,0.1-0.4,0.2-0.6,0.4c-0.2,0.2-0.4,0.5-0.6,0.8c-0.4,0.7-0.9,1.5-1.3,2.4
					c-0.9,1.8-1.8,3.7-3.1,5.6c-0.2,0.2-0.4,0.5-0.5,0.7l-0.3,0.4c-0.1,0.1-0.2,0.2-0.3,0.4c-0.5,0.6-1,1-1.5,1.3
					c-1,0.7-1.9,1.3-2.9,1.9c-3.8,2.2-7.8,3.6-11.8,4.7c-2,0.5-4.1,1-6.2,1.4c-1.1,0.2-2.2,0.3-3.4,0.4c-0.6,0-1.2,0-2-0.1
					c-0.4-0.1-0.8-0.1-1.5-0.4c-0.1,0-0.2-0.1-0.3-0.1c-0.1-0.1-0.2-0.1-0.3-0.2c-0.1-0.1-0.2-0.2-0.3-0.2c-0.1-0.1-0.2-0.2-0.3-0.3
					c-0.1-0.1-0.2-0.3-0.3-0.4c-0.1-0.1-0.2-0.3-0.2-0.5c-0.2-0.4-0.2-0.7-0.2-1l0.1,0.5c-0.2-1.4-0.4-2.8-0.5-4.2
					c-0.1-1.4-0.2-2.8-0.3-4.2c-0.1-1.4-0.1-2.8-0.1-4.2c0-1.4,0-2.8,0.3-4.3c0.1-0.7,0.3-1.5,0.7-2.3c0.1-0.1,0.1-0.2,0.2-0.3
					c0.1-0.1,0.2-0.2,0.3-0.3c0.1-0.1,0.2-0.2,0.3-0.3c0.1-0.1,0.3-0.1,0.4-0.2c0.5-0.2,0.9-0.2,1.3-0.2c0.8,0,1.5,0.1,2.2,0.1
					c0.7,0.1,1.4,0.2,2.1,0.3c1.4,0.2,2.7,0.4,4.1,0.5c1.3,0.1,2.7,0.2,4,0.3c2.6,0.1,5.1,0.1,7.5-0.1c2.3-0.2,4.4-0.8,6.1-2l1-0.7
					c0.3-0.2,0.7-0.4,1-0.6l0.6-0.3l0.3-0.1l0.3-0.1c0.2-0.1,0.4-0.2,0.6-0.2l0.6-0.2c1.7-0.5,3.7-0.4,5.3,0.4
					c1.6,0.8,2.8,2,3.5,3.3c0.4,0.6,0.7,1.3,1,2c0.1,0.3,0.2,0.7,0.3,1c0,0.2,0.1,0.3,0.1,0.5c0,0.1,0,0.2,0.1,0.3l0,0.1l0,0.1
					c0,0,0,0,0,0c0,0.1,0,0.1,0,0.2C398.2,517.9,398.1,517.9,398.1,517.9z"/>
			</g>
			<g>
				<path class="st1" d="M352.5,515.8c0.9,2.8,29.9-9.9,18.5-29.5c0,0,0.6,13.1-7.4,11.1C350.5,494.1,347.4,516.2,352.5,515.8z"/>
				<path class="st2" d="M352.7,515.5c0,0,0.1,0.1,0.1,0.1c0,0,0.1,0.1,0.1,0.1c0,0,0,0,0.1,0c0,0,0.1,0,0.2,0
					c0.2,0,0.3-0.1,0.5-0.2c0.4-0.1,0.7-0.3,1.1-0.5c0.7-0.4,1.4-0.8,2.1-1.3c1.4-0.9,2.7-1.9,4-2.9c1.3-1,2.5-2.1,3.7-3.2
					c1.1-1.1,2.2-2.2,3.3-3.3c0.5-0.6,1.1-1.1,1.6-1.7c0.5-0.6,1-1.2,1.4-1.9c0.4-0.7,0.8-1.4,1.2-2.1c0.3-0.7,0.5-1.5,0.6-2.3
					c0.1-0.8,0.1-1.6,0-2.4c-0.1-0.8-0.3-1.6-0.5-2.4c-0.5-1.6-1.4-3-2.4-4.3l2.9-0.8c0.1,0.5,0.1,1,0.2,1.5c0.1,0.5,0.1,1,0.1,1.5
					c0.1,1,0.1,2,0,3c-0.1,1-0.3,2.1-0.7,3.2c-0.4,1.1-1.1,2.2-2.1,3.2c-0.3,0.2-0.6,0.5-0.9,0.7c-0.2,0.1-0.3,0.2-0.5,0.3
					c-0.2,0.1-0.3,0.2-0.5,0.3l-0.3,0.1l-0.3,0.1c-0.2,0.1-0.4,0.1-0.6,0.2c-0.4,0.1-0.7,0.2-1.1,0.2c-0.4,0-0.7,0.1-1.1,0.1
					c-0.3,0-0.7,0-1-0.1l-0.9-0.1l-0.5-0.1c-0.7-0.1-1.3-0.1-1.8,0c-0.6,0.1-1.1,0.2-1.6,0.4c-1,0.4-2.1,1.2-3,2.3
					c-0.9,1.1-1.8,2.4-2.5,3.8c-0.7,1.4-1.3,3-1.6,4.6c-0.2,0.8-0.3,1.6-0.2,2.4c0,0.4,0.1,0.7,0.2,1c0.1,0.1,0.1,0.3,0.3,0.4
					c0.1,0,0.1,0.1,0.2,0.1l0.1,0c0,0,0,0,0.1,0l0.1,0C352.5,515.5,352.6,515.5,352.7,515.5z M352.4,516
					C352.3,516.1,352.3,516.1,352.4,516l-0.1,0.1c0,0,0,0,0,0l-0.1,0c-0.1,0-0.3,0-0.5,0c-0.3,0-0.6-0.2-0.9-0.3
					c-0.5-0.4-0.9-0.8-1.2-1.3c-0.6-1-0.9-2-1.1-3c-0.4-2-0.3-4.1,0.1-6.1c0.4-2,1.1-4,2.3-5.9c0.6-0.9,1.3-1.8,2.2-2.7
					c0.9-0.8,1.9-1.5,3-2.1c1.1-0.5,2.4-0.8,3.6-1c1.2-0.1,2.5,0,3.6,0.3c0.3,0.1,0.6,0.1,0.8,0.2l0.2,0.1l0.2,0.1
					c0.1,0,0.2,0,0.3,0.1c0.1,0,0.2,0,0.3,0c0.4,0,0.6,0,0.9-0.2c0.3-0.2,0.7-0.6,1-1.2c0.4-0.6,0.7-1.2,1-2
					c0.3-0.7,0.5-1.5,0.8-2.4c0.1-0.4,0.2-0.8,0.3-1.3c0.1-0.4,0.2-0.9,0.2-1.2l0.9-5.8l2,5c1.4,3.5,2.3,7,2.4,10.8
					c0,1.9-0.1,3.8-0.5,5.7c-0.2,0.9-0.5,1.9-0.9,2.8c-0.4,0.9-0.8,1.8-1.3,2.6c-1,1.7-2.4,3.1-3.9,4.2c-1.5,1.2-3,2.2-4.7,3.1
					c-1.7,0.8-3.4,1.5-5.3,1.9c-0.9,0.2-1.9,0.3-2.8,0.4c-0.5,0-1,0-1.5-0.1c-0.3,0-0.5-0.1-0.8-0.2c-0.1-0.1-0.3-0.1-0.4-0.3
					c-0.1,0-0.1-0.1-0.2-0.2C352.3,516.1,352.3,516.1,352.4,516C352.3,516.1,352.4,516.1,352.4,516z"/>
			</g>
			<g>
				<path class="st1" d="M323.3,515.4c0,0,10-29.5-19.8-31.3c0,0,7.3,1.4,5.2,12.3C306.7,507.3,323.3,515.4,323.3,515.4z"/>
				<path class="st2" d="M323.2,515.1c-0.1,0-0.1,0-0.2,0.1c0,0,0-0.1,0-0.1l0-0.2l0-0.4c0-0.2,0-0.5,0-0.7c0-0.2,0-0.5,0-0.7
					c0-0.2,0-0.5,0-0.7c0-0.9,0-1.8-0.1-2.7c-0.1-1.8-0.2-3.5-0.4-5.2c-0.2-1.7-0.5-3.3-0.9-4.9c-0.4-1.6-0.8-3.1-1.4-4.6
					c-0.1-0.4-0.3-0.7-0.4-1.1c-0.1-0.2-0.1-0.4-0.2-0.6l-0.3-0.5l-0.3-0.6c-0.1-0.2-0.2-0.4-0.3-0.5l-0.3-0.5l-0.2-0.3l-0.2-0.2
					c-1-1.4-2.5-2.5-4-3.2c-0.4-0.2-0.8-0.4-1.2-0.5c-0.4-0.1-0.9-0.3-1.3-0.4c-0.8-0.3-1.7-0.4-2.6-0.5c-0.4-0.1-0.9-0.1-1.3-0.1
					c-0.4,0-0.9,0-1.3,0c-0.9,0-1.8,0.1-2.7,0.2l0.5-4c0.4,0.1,0.6,0.1,0.9,0.2c0.3,0.1,0.5,0.1,0.8,0.2c0.3,0.1,0.5,0.2,0.8,0.3
					c0.2,0.1,0.5,0.2,0.7,0.4c1,0.5,1.8,1.3,2.5,2.2c0.3,0.5,0.7,0.9,0.9,1.4c0.1,0.2,0.3,0.5,0.4,0.7c0.1,0.3,0.2,0.5,0.3,0.8
					l0.3,0.8c0.1,0.3,0.1,0.5,0.2,0.8l0.2,0.8c0.1,0.3,0.1,0.5,0.1,0.8l0.1,0.8c0,0.3,0.1,0.5,0,0.8l0,1.5c0,0.3,0,0.5,0,0.7
					l-0.1,0.7l-0.1,0.7l0,0.3c0,0.1,0,0.1,0,0.2c-0.1,1.1,0,2.2,0.3,3.4c0.1,0.6,0.4,1.2,0.7,1.8c0.3,0.6,0.6,1.2,1,1.9
					c0.7,1.2,1.7,2.5,2.7,3.7c1,1.2,2.1,2.4,3.3,3.6c0.6,0.6,1.2,1.2,1.8,1.8l0.9,0.9l0.5,0.5l0.2,0.2l0.1,0.1l0.1,0.1c0,0,0,0,0,0
					C323.3,515.1,323.2,515.1,323.2,515.1z M323.4,515.7c-0.1,0-0.2,0-0.2,0c-0.1,0-0.1,0-0.1,0l-0.1,0l-0.2,0l-0.3-0.1
					c-0.2,0-0.4-0.1-0.6-0.2c-0.4-0.1-0.8-0.2-1.3-0.4c-0.8-0.3-1.7-0.6-2.5-0.9c-1.6-0.7-3.2-1.6-4.7-2.6c-1.5-1-2.9-2.2-4.2-3.7
					c-0.6-0.7-1.2-1.5-1.8-2.3c-0.5-0.9-1-1.8-1.4-2.8c-0.2-0.5-0.3-1-0.5-1.5c-0.1-0.3-0.1-0.5-0.2-0.8c0-0.3-0.1-0.5-0.1-0.8
					c0-0.6-0.1-1.1,0-1.7c0-0.3,0-0.6,0-0.8l0.1-0.8l0.1-0.4l0.1-0.3l0.1-0.5l0.1-0.5c0-0.2,0.1-0.4,0.1-0.5l0.1-1
					c0-0.2,0-0.3,0-0.5l0-0.5c0-1.3-0.2-2.5-0.7-3.5c-0.3-0.5-0.5-1-0.9-1.4c-0.2-0.2-0.4-0.4-0.6-0.6c-0.1-0.1-0.2-0.2-0.4-0.3
					l-0.2-0.1l-0.1,0c0,0,0,0,0,0c0,0,0,0,0,0l0.5-4l2.8,0.7c0.5,0.1,0.9,0.3,1.4,0.4l0.7,0.2l0.3,0.1l0.3,0.1
					c0.5,0.2,0.9,0.3,1.4,0.5c0.2,0.1,0.5,0.1,0.7,0.2c0.2,0.1,0.4,0.2,0.7,0.3l1.3,0.5c0.4,0.2,0.9,0.4,1.3,0.6
					c0.5,0.2,0.9,0.4,1.3,0.6l0.7,0.3l0.3,0.2l0.3,0.2c0.4,0.2,0.9,0.5,1.3,0.7l1.3,0.8l0.3,0.2l0.3,0.2l0.6,0.5
					c0.2,0.2,0.4,0.3,0.6,0.5l0.6,0.5l0.6,0.5c0.2,0.2,0.4,0.4,0.5,0.6c0.3,0.4,0.7,0.8,1,1.2c1.3,1.7,2.1,3.7,2.5,5.7
					c0.4,2,0.5,4.1,0.4,6.1c-0.1,2-0.5,3.9-1.2,5.8c-0.3,0.9-0.7,1.8-1.1,2.7c-0.2,0.4-0.4,0.9-0.7,1.3c-0.1,0.2-0.3,0.4-0.4,0.6
					l-0.2,0.3c0,0.1-0.1,0.1-0.1,0.2c0,0,0,0-0.1,0.1C323.6,515.5,323.5,515.7,323.4,515.7z"/>
			</g>
			<g>
				<path class="st1" d="M304.5,526.9c0,0-7.4-18.5-22.2-11.1c6.1-0.5,11.2,6.6,3.7,11.1C282.9,528.8,304.5,526.9,304.5,526.9z"/>
				<path class="st2" d="M304.3,526.7c-0.1,0-0.1,0.2-0.1,0.2c0,0,0,0,0,0l-0.1-0.1l-0.2-0.2l-0.3-0.3l-0.7-0.6l-1.3-1.2
					c-0.8-0.8-1.6-1.6-2.4-2.3c-0.8-0.7-1.6-1.4-2.4-2.1c-0.8-0.6-1.6-1.2-2.4-1.7c-0.8-0.5-1.6-1.1-2.4-1.6c-0.8-0.5-1.8-1-2.8-1.2
					c-1-0.3-2.2-0.3-3.2-0.1c-0.5,0.1-1.1,0.3-1.6,0.5c-0.3,0.1-0.5,0.2-0.8,0.4c-0.2,0.1-0.5,0.3-0.7,0.4l-0.5-1.9
					c0.9-0.1,1.7-0.2,2.7-0.1c0.9,0.1,1.8,0.3,2.7,0.6c0.9,0.3,1.8,0.8,2.6,1.5c0.8,0.7,1.5,1.6,1.9,2.7c0.4,1.1,0.5,2.4,0.3,3.6
					c-0.2,1.2-0.7,2.3-1.3,3.3c-0.6,0.9-1.4,1.7-2.1,2.3c-0.4,0.3-0.8,0.6-1.2,0.9l-0.1,0.1c0,0,0,0,0,0l0,0c0.1,0,0,0,0.2-0.1
					c0.1,0,0.1-0.1,0.2-0.1l0.1-0.1l0.1-0.1c0.1-0.1,0.1-0.1,0.2-0.2c0.1-0.1,0.1-0.1,0.1-0.2c0.1-0.2,0.2-0.3,0.2-0.5
					c0.1-0.2,0.1-0.4,0.1-0.5c0-0.2,0.1-0.5,0-0.8c0-0.3-0.1-0.6-0.2-0.8c-0.1-0.2-0.2-0.4-0.3-0.6c-0.1-0.1-0.1-0.2-0.2-0.3
					c-0.1-0.1-0.2-0.2-0.2-0.2c-0.1-0.1-0.1-0.2-0.2-0.2s-0.2-0.1-0.3-0.2l-0.2-0.1c-0.1-0.1-0.2-0.1-0.3-0.1l-0.1-0.1
					c0,0-0.1,0-0.1,0c0,0-0.1,0-0.1,0c0,0,0.1,0,0.2,0c0.1,0,0.3,0,0.4,0c0.3,0,0.6,0,1,0.1l2.2,0.1c1.5,0.1,3,0.2,4.5,0.4
					c1.5,0.2,3.1,0.3,4.6,0.6c0.8,0.1,1.5,0.3,2.3,0.4c0.4,0.1,0.8,0.2,1.2,0.3c0.2,0,0.4,0.1,0.6,0.2l0.3,0.1l0.1,0l0.1,0l0,0l0,0
					c0,0,0,0-0.1,0C304.3,526.6,304.3,526.7,304.3,526.7z M304.8,527c0,0-0.1,0.1-0.1,0.1c0,0-0.1,0-0.1,0l0,0l0,0l-0.1,0
					c0,0-0.1,0-0.1,0.1l-0.3,0.1c-0.2,0.1-0.4,0.2-0.6,0.2c-0.4,0.2-0.7,0.3-1.1,0.5c-0.7,0.3-1.5,0.5-2.3,0.8
					c-1.5,0.5-3,0.9-4.6,1.2c-1.5,0.3-3.1,0.6-4.7,0.7c-0.8,0.1-1.6,0.1-2.4,0.1c-0.4,0-0.8,0-1.3,0c-0.2,0-0.5,0-0.7-0.1
					c-0.3,0-0.6-0.1-1-0.2c-0.1,0-0.2-0.1-0.4-0.1c-0.1,0-0.2-0.1-0.2-0.1c-0.1,0-0.1-0.1-0.3-0.1c-0.1-0.1-0.3-0.1-0.4-0.2
					l-0.1-0.1l0,0L284,530c-0.1-0.1-0.2-0.2-0.3-0.3c-0.1-0.1-0.2-0.2-0.3-0.3c0,0-0.1-0.1-0.2-0.2c-0.1-0.1-0.1-0.2-0.2-0.3
					c-0.1-0.2-0.2-0.4-0.3-0.7c-0.1-0.2-0.2-0.6-0.2-0.9c0-0.3,0-0.6,0-0.9c0-0.2,0.1-0.4,0.2-0.6c0.1-0.2,0.2-0.4,0.3-0.6
					c0.1-0.1,0.1-0.2,0.2-0.3c0.1-0.1,0.1-0.2,0.2-0.3l0.1-0.1l0.1-0.1l0,0c0.1-0.1,0.2-0.2,0.3-0.2c0.2-0.2,0.3-0.2,0.4-0.3
					l0.2-0.1l0,0c0.2-0.1,0.5-0.3,0.7-0.4c0.5-0.3,0.9-0.6,1.2-0.9c0.3-0.3,0.5-0.6,0.6-0.8c0.1-0.3,0.2-0.6,0.2-0.9
					c0-0.4-0.1-0.8-0.3-1.3c-0.2-0.5-0.5-0.9-1-1.4c-0.4-0.4-0.9-0.8-1.5-1.1c-0.6-0.3-1.2-0.4-1.9-0.4l-5.4-0.1l4.9-1.9
					c1.2-0.4,2.3-0.9,3.5-1.3c0.3-0.1,0.6-0.2,0.9-0.3c0.3-0.1,0.6-0.2,0.9-0.3c0.2-0.1,0.3-0.1,0.5-0.1l0.5-0.1l0.5-0.1
					c0.2,0,0.3-0.1,0.5-0.1c1.3-0.3,2.7-0.4,4.1-0.2c1.4,0.2,2.8,0.6,4,1.3c1.2,0.7,2.2,1.6,3.1,2.6c0.9,1,1.7,2,2.3,3.2
					c0.6,1.1,1.1,2.3,1.5,3.5c0.2,0.6,0.3,1.2,0.4,1.9c0.1,0.3,0.1,0.6,0.1,1c0,0.2,0,0.3,0,0.5l0,0.2l0,0.1c0,0,0,0,0,0.1
					C304.9,526.8,304.8,527,304.8,527z"/>
			</g>
			<g>
				<path class="st1" d="M300.8,526.9c0,0-18.5,0-22.2-11.1s-18.5-3.7-18.5-3.7s14.8-3.7,14.8,7.4S293.4,530.6,300.8,526.9z"/>
				<path class="st2" d="M300.5,526.9c0,0,0,0.1,0.1,0.2c0,0.1,0.1,0.1,0.2,0.1c0,0,0,0,0,0l0,0l0,0l-0.1,0l-0.2,0.1l-0.4,0.1
					c-0.3,0.1-0.5,0.1-0.8,0.2c-0.5,0.1-1,0.2-1.5,0.2c-1,0.1-2.1,0.2-3.1,0.1c-2.1,0-4.2-0.3-6.3-0.8c-1.1-0.3-2.1-0.6-3.1-1
					c-0.5-0.2-1-0.5-1.5-0.7c-0.5-0.2-1-0.6-1.5-0.9c-1-0.6-1.9-1.4-2.7-2.2c-0.8-0.9-1.6-1.9-2.1-3c-0.1-0.3-0.2-0.6-0.4-0.8
					c-0.1-0.3-0.2-0.6-0.3-0.9l-0.2-0.9l0-0.1l0-0.1l0-0.1l-0.1-0.3c-0.2-0.8-0.4-1.6-0.8-2.2c-0.4-0.7-0.9-1.3-1.6-1.8
					c-0.7-0.5-1.5-0.9-2.4-1.1c-1.8-0.4-3.7-0.3-5.6,0.2c-0.9,0.2-1.8,0.6-2.7,1c-0.4,0.2-0.9,0.4-1.3,0.6c-0.4,0.2-0.8,0.5-1.2,0.7
					l-1-2.8c0.3-0.1,0.6-0.2,0.8-0.3c0.3-0.1,0.5-0.2,0.8-0.2c0.5-0.2,1.1-0.3,1.7-0.4c1.1-0.2,2.3-0.4,3.5-0.5
					c1.2-0.1,2.4,0,3.7,0.3c1.3,0.3,2.6,0.8,3.8,1.7c1.2,0.9,2.3,2.1,2.9,3.5c0.7,1.4,0.9,2.8,1.1,4.1l0,0.5l0,0.1l0,0.1l0,0.1
					c0,0.2,0,0.3,0.1,0.5c0,0.2,0.1,0.3,0.1,0.5c0,0.2,0.1,0.3,0.1,0.4c0.2,0.6,0.5,1.1,0.9,1.5c0.4,0.5,0.9,1,1.6,1.4
					c0.7,0.4,1.4,0.8,2.2,1.1c1.6,0.7,3.5,1.1,5.4,1.4c1.9,0.3,3.9,0.5,5.9,0.5c1,0,2,0,3.1-0.1c0.5,0,1-0.1,1.5-0.1
					c0.3,0,0.5-0.1,0.8-0.1c0.1,0,0.1,0.1,0.2,0.1C300.2,526.9,300.4,527,300.5,526.9z M301.1,526.8c-0.1,0.1-0.1,0.2-0.3,0.4
					c-0.1,0.2-0.3,0.3-0.5,0.4c-0.2,0.2-0.5,0.3-0.7,0.5c-0.5,0.3-1,0.6-1.5,0.8c-1,0.5-2,0.9-3.1,1.3c-2.1,0.7-4.4,1.1-6.6,1.3
					c-2.3,0.1-4.6,0-7-0.6c-1.2-0.3-2.4-0.7-3.6-1.4c-1.2-0.6-2.3-1.5-3.3-2.6c-1-1.1-1.8-2.5-2.2-3.9c-0.1-0.4-0.2-0.7-0.3-1.1
					c-0.1-0.4-0.1-0.7-0.2-1.1c0-0.4,0-0.7,0-1.1l0-0.5l0-0.3c0-0.8-0.1-1.4-0.2-2c-0.2-0.6-0.5-1-0.9-1.4c-0.9-0.9-2.5-1.5-4.3-1.8
					c-0.9-0.2-1.9-0.3-2.8-0.3c-0.5,0-1,0-1.5,0c-0.2,0-0.5,0-0.7,0l-0.7,0l-10.4,0.6l9.3-3.4c0.3-0.1,0.5-0.2,0.8-0.3l0.8-0.2
					c0.5-0.1,1-0.3,1.5-0.4c1-0.3,2-0.5,3-0.7c2-0.4,4.1-0.6,6.3-0.4c1.1,0.1,2.2,0.3,3.3,0.7c1.1,0.4,2.2,1.1,3.1,1.9
					c0.9,0.8,1.6,1.8,2.2,2.9l0.2,0.4l0.1,0.2l0.1,0.1l0,0.1l0.3,0.5c0.1,0.2,0.2,0.3,0.3,0.5c0.1,0.2,0.2,0.3,0.3,0.5
					c0.5,0.6,1,1.2,1.5,1.8c0.6,0.6,1.2,1.1,1.8,1.6c0.7,0.5,1.4,1,2.2,1.4c0.8,0.4,1.6,0.8,2.4,1.2c1.7,0.8,3.5,1.4,5.3,2.1
					c0.9,0.3,1.9,0.6,2.8,0.9l1.4,0.5l0.7,0.2l0.4,0.1l0.2,0.1l0.1,0l0,0l0,0c0,0,0,0,0.1,0c0.1,0,0.1,0,0.2,0.1
					C301.1,526.7,301.1,526.8,301.1,526.8z"/>
			</g>
			<g>
				<path class="st1" d="M297.1,560.1c0,0-22.2-14.8-22.2,22.2c0,0,3.7-14.8,7.4-11.1S300.8,578.6,297.1,560.1z"/>
				<path class="st2" d="M296.9,560.3C296.9,560.3,296.9,560.3,296.9,560.3L296.9,560.3l-0.2,0l-0.3-0.1l-0.6-0.1
					c-0.4-0.1-0.8-0.2-1.3-0.2c-0.4-0.1-0.8-0.1-1.2-0.2c-0.4,0-0.8-0.1-1.2-0.1c-1.6-0.2-3.1-0.2-4.5,0.1c-1.4,0.2-2.5,0.7-3.5,1.4
					c-1,0.7-1.9,1.6-2.8,2.7c-1.8,2.2-3.7,5.2-4.4,8.5c-0.8,3.3-0.7,6.7-0.1,10.1l-3.1-0.4c0.2-1.9,0.4-3.6,0.9-5.5
					c0.2-0.9,0.5-1.8,0.8-2.7c0.3-0.9,0.7-1.8,1.3-2.8c0.3-0.5,0.6-1,1.1-1.5c0.2-0.3,0.5-0.5,0.9-0.8c0.4-0.3,0.8-0.6,1.4-0.8
					c0.6-0.2,1.3-0.3,2-0.3c0.7,0.1,1.4,0.3,1.9,0.6c0.3,0.1,0.5,0.3,0.7,0.5l0.3,0.2l0.1,0.1l0,0c0.1,0.1,0.2,0.1,0.3,0.2
					c0.4,0.3,1,0.6,1.6,0.8c0.6,0.3,1.3,0.5,1.9,0.7c1.3,0.4,2.6,0.5,3.6,0.3c0.5-0.1,0.9-0.2,1.4-0.5c0.1-0.1,0.2-0.1,0.3-0.2
					c0.1-0.1,0.2-0.2,0.3-0.2c0.2-0.2,0.4-0.4,0.6-0.6l0.1-0.2c0-0.1,0.1-0.1,0.1-0.2c0.1-0.1,0.2-0.3,0.3-0.4l0.2-0.5l0.1-0.2
					l0.1-0.3l0.2-0.5c0.1-0.2,0.1-0.4,0.2-0.6c0.1-0.2,0.1-0.4,0.2-0.6l0.1-0.6c0-0.2,0.1-0.4,0.1-0.6c0-0.2,0.1-0.4,0.1-0.6
					c0.1-0.4,0.1-0.8,0.2-1.3l0.1-0.7l0-0.3l0-0.3C296.8,561.2,296.8,560.8,296.9,560.3z M297.4,559.9c0.2,0.4,0.4,0.8,0.6,1.3
					l0.2,0.4l0.1,0.3l0.2,0.7c0.1,0.2,0.2,0.4,0.2,0.7l0.2,0.7c0.1,0.2,0.1,0.5,0.2,0.7c0.1,0.2,0.1,0.5,0.1,0.7l0.1,0.7
					c0,0.2,0,0.5,0.1,0.7c0,0.2,0,0.5,0,0.7l0,0.8l0,0.4l0,0.4l-0.1,0.8c-0.1,0.3-0.1,0.5-0.2,0.8c0,0.1-0.1,0.3-0.1,0.4l-0.1,0.4
					c-0.4,1.1-1,2.2-1.9,3.1c-0.9,0.9-2,1.6-3.2,2.1c-1.2,0.4-2.4,0.6-3.5,0.7c-1.2,0-2.3-0.1-3.3-0.3c-1.1-0.2-2.1-0.6-3.1-1
					c-1-0.5-1.9-1-2.9-1.8c-0.2-0.2-0.5-0.4-0.7-0.7l-0.1-0.1c0,0,0,0,0,0c0,0,0,0,0,0c0,0,0.1,0,0.1,0.1c0.1,0.1,0.3,0.1,0.6,0.2
					c0.3,0,0.6,0,0.7-0.1c0.3-0.1,0.2-0.2,0.1-0.1c-0.1,0.1-0.3,0.3-0.5,0.6c-0.4,0.5-0.8,1.2-1.2,1.9c-0.4,0.7-0.8,1.4-1.2,2.2
					c-0.8,1.5-1.6,3-2.3,4.6l-5.2,11.7l2-12.1c0.6-3.5,1-6.9,1.3-10.4c0-0.4,0.1-0.9,0.1-1.3c0-0.4,0.1-0.9,0.1-1.3
					c0-0.4,0-0.9,0.1-1.4l0.2-1.4c0-0.2,0-0.5,0.1-0.7l0.1-0.7c0.1-0.5,0.2-0.9,0.3-1.4c0.1-0.5,0.3-0.9,0.5-1.4
					c0.2-0.5,0.4-0.9,0.6-1.4c0.1-0.2,0.2-0.5,0.4-0.7c0.1-0.2,0.3-0.4,0.4-0.6c0.1-0.2,0.3-0.4,0.4-0.6c0.2-0.2,0.4-0.4,0.5-0.6
					c0.2-0.2,0.4-0.4,0.6-0.6c0.2-0.2,0.4-0.3,0.6-0.5c0.2-0.2,0.4-0.3,0.6-0.5c0.2-0.1,0.5-0.3,0.7-0.4c0.2-0.1,0.5-0.3,0.7-0.4
					l0.8-0.3l0.4-0.2c0.1,0,0.3-0.1,0.4-0.1l0.8-0.2c0.3-0.1,0.5-0.1,0.8-0.2c0.3,0,0.5-0.1,0.8-0.1c0.3,0,0.5,0,0.8,0l0.4,0l0.4,0
					c2.1,0.1,4,0.7,5.7,1.6c0.8,0.4,1.6,0.9,2.4,1.5c0.4,0.3,0.7,0.6,1,0.9c0.2,0.2,0.3,0.3,0.5,0.5l0.2,0.3c0,0,0.1,0.1,0.1,0.1
					l0.1,0.1C297.3,559.8,297.4,559.9,297.4,559.9z"/>
			</g>
			<g>
				<path class="st1" d="M314,597c0,0,27.4-3.7,14.3-31c-10.1-21-6.9-13.4-6.9-13.4s0.7,23-3.7,25.8C306.6,585.9,321.4,597,314,597z
					"/>
				<path class="st2" d="M313.7,597c0,0,0-0.1,0-0.2c0-0.1,0.1-0.1,0.2-0.2c0.2-0.1,0.1,0,0.2-0.1l0.1,0l0.2-0.1
					c0.1-0.1,0.3-0.1,0.4-0.2l0.8-0.4c0.6-0.3,1.1-0.5,1.6-0.8c1.1-0.6,2.1-1.2,3.1-1.8c2-1.3,3.7-2.7,5.1-4.3l0.5-0.6
					c0.2-0.2,0.3-0.4,0.5-0.6c0.3-0.4,0.6-0.9,0.8-1.3c0.5-0.9,0.9-1.8,1.2-2.8c0.6-1.9,1-4,1.1-6.2l0-1.7c0-0.6-0.1-1.2-0.1-1.7
					l0-0.4l-0.1-0.4l-0.1-0.9l-0.1-0.9l-0.2-0.9c-0.1-0.3-0.2-0.6-0.2-0.9c-0.1-0.3-0.1-0.6-0.3-0.9c-0.2-0.6-0.4-1.1-0.6-1.7
					c-0.4-1.1-1-2.2-1.6-3.3c-1.1-2.2-2.3-4.3-3.7-6.4c-0.7-1-1.4-2.1-2.1-3.1l-0.5-0.7c-0.2-0.2-0.3-0.5-0.5-0.7
					c0,0-0.1-0.1-0.1-0.1c0,0,0,0,0,0l0,0c0,0,0,0.1,0.1,0.1l0,0c0,0,0.1,0.1,0.1,0.1c0.1,0,0.1,0.1,0.2,0.1c0.3,0.2,0.7,0.4,1,0.4
					c0.5,0.4,2.4-1,2.1-1.2c0.1-0.2,0.2-0.7,0.2-0.8c0-0.1,0-0.1,0-0.2c0-0.1,0-0.2,0-0.2c0,0,0-0.1,0-0.1l0,0c0,0,0,0,0,0
					c0,0,0,0,0,0l0.1,0.1l0.4,0.7l0.1,0.2l0.1,0.7c0.3,2.1,0.4,4.1,0.5,6.2c0.1,2.1,0.1,4.1,0.1,6.2c0,2.1-0.2,4.2-0.5,6.3
					c-0.1,1.1-0.3,2.1-0.6,3.3c-0.3,1.1-0.6,2.2-1.2,3.5c-0.3,0.6-0.7,1.3-1.3,2c-0.3,0.4-0.7,0.7-1.2,1.1c-0.2,0.1-0.3,0.2-0.5,0.3
					c-0.3,0.2-0.6,0.4-0.9,0.7c-0.3,0.2-0.5,0.5-0.8,0.7c-0.5,0.5-0.8,1-1.1,1.6c-0.2,0.6-0.4,1.3-0.4,2.1c0,0.8,0.1,1.7,0.3,2.6
					c0.2,0.9,0.4,1.9,0.7,2.9c0.1,0.5,0.2,1,0.3,1.6c0.1,0.6,0.2,1.1,0.1,1.8c0,0.3-0.1,0.8-0.4,1.1c-0.2,0.4-0.6,0.6-1,0.7
					c-0.3,0.1-0.7,0.1-0.9,0.1c-0.1,0-0.3,0-0.4,0l-0.2,0c-0.1,0-0.2,0-0.2-0.1C313.9,597.2,313.8,597.1,313.7,597z M314.3,597
					c0.1-0.1,0.1-0.2,0.1-0.3c0,0,0-0.1-0.1-0.1c0,0,0,0,0,0l0,0c0.1,0,0.2-0.1,0.3-0.1c0.2-0.1,0.4-0.2,0.5-0.3
					c0.1-0.1,0.1-0.2,0.1-0.3c0-0.1,0-0.2-0.1-0.3c-0.1-0.3-0.3-0.7-0.5-1.1c-0.2-0.4-0.5-0.8-0.7-1.3c-1-1.7-2.2-3.6-2.7-6.1
					c-0.3-1.2-0.4-2.5-0.1-3.9c0.1-0.7,0.3-1.4,0.6-2c0.3-0.6,0.6-1.3,1-1.8c0.7-1.1,1.7-2.1,2.6-2.9c0.2-0.2,0.5-0.4,0.7-0.6
					c-0.1,0-0.1,0.1-0.1,0c0-0.1,0.2-0.3,0.3-0.6c0.2-0.6,0.5-1.4,0.6-2.3c0.2-0.9,0.3-1.8,0.5-2.7c0.3-1.9,0.5-3.8,0.8-5.8
					c0.2-2,0.4-3.9,0.5-5.9c0.1-2,0.3-4,0.5-6l0.2,0.8c-0.1-0.3-0.2-0.6-0.3-1l-0.1-0.3l0-0.2l0-0.2l0-0.1c0-0.1,0-0.1,0-0.2
					c0,0,0-0.1,0-0.2c0-0.1,0-0.2,0-0.2c0-0.2,0.1-0.6,0.2-0.9c-0.3-0.1,1.6-1.6,2.1-1.2c0.4,0,0.8,0.2,1.1,0.4
					c0.1,0,0.1,0.1,0.2,0.2c0.1,0,0.1,0.1,0.2,0.2l0.1,0.1c0,0,0.1,0.1,0.1,0.1l0.1,0.1c0,0.1,0.1,0.1,0.1,0.1
					c0.1,0.1,0.1,0.2,0.2,0.3c0.2,0.3,0.3,0.6,0.4,0.9l0.3,0.9l1.3,3.5c0.8,2.3,1.8,4.6,2.8,6.9c0.3,0.6,0.5,1.1,0.8,1.7
					c0.3,0.6,0.6,1.1,0.8,1.7c0.3,0.6,0.6,1.1,0.9,1.7c0.3,0.6,0.6,1.1,0.8,1.7c1.1,2.3,2.2,4.7,2.8,7.4c0.1,0.7,0.2,1.4,0.3,2
					c0,0.3,0,0.7,0.1,1.1c0,0.4,0,0.7,0,1.1c-0.1,1.4-0.3,2.9-0.7,4.3c-0.1,0.3-0.2,0.7-0.4,1l-0.5,1c-0.1,0.2-0.2,0.3-0.2,0.5
					l-0.3,0.5c-0.2,0.3-0.4,0.6-0.6,0.9c-0.8,1.2-1.8,2.3-2.9,3.2c-2.1,1.9-4.6,3.1-7.1,3.9c-1.3,0.4-2.6,0.7-3.8,0.8
					c-0.6,0.1-1.3,0.1-1.9,0.1c-0.3,0-0.6,0-1,0c-0.2,0-0.3,0-0.5,0c-0.1,0-0.2,0-0.2,0l-0.1,0c0,0-0.1,0,0,0c0,0,0.1-0.1,0.1-0.1
					C314.4,597.1,314.3,597,314.3,597z"/>
			</g>
			<g>
				<path class="st1" d="M382.1,582.3c0,0-29.5,11.1-29.5-14.8s3.7-3.7,3.7-3.7s7.4,0,11.1,3.7S371,585.9,382.1,582.3z"/>
				<path class="st2" d="M382.4,582.2c0,0.1,0,0.2-0.1,0.3c-0.1,0.1-0.1,0.1-0.1,0.1l0,0l-0.1,0l-0.1,0.1c-0.1,0.1-0.1,0.1-0.2,0.1
					l-0.4,0.3c-0.3,0.2-0.6,0.4-0.9,0.5c-0.6,0.3-1.2,0.6-1.8,0.9c-1.2,0.6-2.5,1-3.8,1.4c-2.6,0.8-5.4,1.2-8.3,1.1
					c-1.4-0.1-2.9-0.3-4.4-0.7c-1.5-0.4-2.9-1-4.2-1.9c-0.3-0.2-0.6-0.5-0.9-0.7c-0.3-0.2-0.6-0.5-0.9-0.8c-0.5-0.6-1-1.2-1.5-1.8
					c-0.9-1.3-1.5-2.7-1.9-4.1c-0.4-1.4-0.6-2.8-0.8-4.2c-0.2-1.4-0.2-2.7-0.3-4.1c-0.1-1.4-0.1-2.7-0.1-4c-0.1-1.3-0.2-2.6-0.3-4
					c-0.1-0.7-0.1-1.3-0.1-2c0-0.7-0.1-1.4-0.1-2.1c0-0.4,0-0.7,0-1.1c0-0.2,0-0.4,0.1-0.6c0.1-0.3,0.1-0.5,0.3-0.9
					c0-0.1,0.1-0.2,0.2-0.3c0-0.1,0.1-0.1,0.1-0.2c0,0,0-0.1,0.1-0.1c0,0,0.1-0.1,0.1-0.1c0.1-0.1,0.2-0.2,0.3-0.3
					c0,0,0.1-0.1,0.2-0.2c0.1-0.1,0.2-0.1,0.3-0.1c0.3-0.2,0.9-0.2,1.4-0.1c0.2,0,0.4,0.1,0.6,0.2l0.1,0.1c0,0,0.1,0,0.1,0
					c0.1,0,0.1,0.1,0.2,0.1c0.1,0.1,0.2,0.1,0.3,0.2c0.1,0.1,0.1,0.1,0.2,0.2c0.1,0.1,0.1,0.1,0.2,0.2l0.1,0.1
					c0.1,0.1,0.1,0.2,0.2,0.2l0.1,0.2l0.1,0.2c0.1,0.1,0.1,0.2,0.2,0.3c0.1,0.2,0.2,0.4,0.3,0.6c0.3,0.7,0.6,1.4,0.8,2.1
					c0.2,0.7,0.4,1.3,0.6,2c0.4,1.3,0.7,2.6,1,3.9l-2.9-2.5c0.3,0,0.5,0,0.7,0c0.2,0,0.4,0,0.6,0c0.4,0,0.8,0,1.2,0.1
					c0.8,0.1,1.7,0.1,2.5,0.3c1.7,0.3,3.4,0.8,5,1.6c0.4,0.2,0.8,0.5,1.2,0.7c0.4,0.3,0.8,0.6,1.2,0.9l0.6,0.5
					c0.1,0.1,0.2,0.2,0.3,0.3l0.3,0.4c0.2,0.3,0.4,0.5,0.5,0.7c0.2,0.2,0.3,0.5,0.4,0.7c0.5,0.9,0.8,1.7,1.1,2.5
					c0.3,0.8,0.5,1.5,0.7,2.2c0.4,1.4,0.8,2.8,1.2,4.1c0.4,1.3,0.9,2.5,1.5,3.5c0.3,0.5,0.7,0.9,1.1,1.3c0.4,0.4,0.9,0.7,1.5,0.9
					c0.6,0.2,1.2,0.4,1.9,0.4c0.3,0.1,0.7,0,1.1,0.1c0,0,0,0,0.1,0l0.1,0c0.1,0,0.1,0,0.2,0c0.2,0,0.3,0,0.5,0
					C382,582.1,382.2,582.1,382.4,582.2z M381.8,582.4c-0.2,0.1-0.4,0.3-0.4,0.5c0,0.1-0.1,0.1-0.1,0.2c0,0,0,0,0,0.1l0,0
					c0,0,0,0-0.1,0c-0.2,0.1-0.4,0.2-0.6,0.2c-0.2,0.1-0.4,0.2-0.6,0.2l-0.6,0.2c-0.2,0.1-0.4,0.1-0.6,0.1c-0.4,0.1-0.9,0.1-1.3,0.1
					c-0.9,0-1.8-0.2-2.7-0.6c-0.9-0.4-1.7-0.9-2.4-1.5c-0.7-0.6-1.3-1.3-1.8-2c-0.5-0.7-1-1.4-1.4-2.1c-0.8-1.4-1.5-2.8-2.1-4.2
					c-0.3-0.7-0.6-1.3-0.9-1.9c-0.3-0.6-0.6-1.1-0.9-1.5c-0.3-0.4-0.4-0.4-0.8-0.8c-0.1-0.1-0.2-0.1-0.3-0.2l-0.3-0.2l-0.7-0.4
					c-1-0.5-2.1-0.9-3.4-1.2c-0.3-0.1-0.6-0.1-0.9-0.2c-0.3-0.1-0.6-0.1-1-0.2c-0.3-0.1-0.6-0.1-1-0.2c-0.2,0-0.3,0-0.5-0.1l-0.4,0
					l-2.7-0.3l-0.2-2.2c-0.1-1.2-0.3-2.5-0.5-3.7l-0.3-1.8c-0.1-0.6-0.2-1.2-0.3-1.7l-0.1-0.3c0,0,0-0.1,0-0.1l0,0l0,0c0,0,0,0,0,0
					c0,0,0,0,0,0c0,0,0.1,0.1,0.1,0.1c0,0,0.1,0,0.1,0.1c0.1,0,0.1,0.1,0.2,0.1c0,0,0.1,0,0.1,0.1l0.2,0.1c0.1,0.1,0.3,0.1,0.4,0.1
					c0.2,0,0.4,0,0.6,0c0.1,0,0.2,0,0.3-0.1c0.1,0,0.2,0,0.2-0.1s0.2-0.1,0.2-0.1c0.1,0,0.2-0.1,0.2-0.1c0.1-0.1,0.1-0.1,0.2-0.2
					c0,0,0.1-0.1,0.1-0.1l0-0.1c0,0,0-0.1,0.1-0.1c0-0.1,0-0.1,0.1-0.1c0-0.1,0,0-0.1,0c0,0.1-0.1,0.2-0.1,0.3
					c-0.1,0.2-0.2,0.5-0.3,0.8c-0.3,1.2-0.6,2.4-0.8,3.7c-0.2,1.3-0.4,2.6-0.5,3.9c-0.1,1.3-0.1,2.6-0.1,3.9c0.1,2.5,0.8,5,2.2,7
					c0.7,1,1.4,1.8,2.3,2.5c0.4,0.3,0.9,0.6,1.3,0.9c0.5,0.3,0.9,0.5,1.4,0.8c1.9,0.9,4,1.6,6.3,1.9c2.3,0.3,4.8,0.4,7.3,0.4
					c1.3,0,2.5-0.1,3.8-0.1l2-0.1l1,0l0.5,0l0.2,0l0.1,0l0.1,0l0,0c0,0,0,0-0.1,0.1C381.7,582.1,381.7,582.3,381.8,582.4z"/>
			</g>
			<g>
				<path class="st1" d="M363.6,545.3c0,0,40.6,14.8,40.6-14.8c0,0-8,12.1-14.8,7.4c-5.5-3.8-19.5-9-25.8-7.4
					C355.6,532.6,363.6,545.3,363.6,545.3z"/>
				<path class="st2" d="M363.8,545.1C363.8,545.1,363.8,545.1,363.8,545.1C363.7,545,363.8,545.1,363.8,545.1L363.8,545.1l0.1,0
					l0.2,0l0.4,0l0.8,0.1l1.6,0.2l3.2,0.3c2.1,0.2,4.3,0.4,6.4,0.5c2.1,0.1,4.2,0.2,6.2,0.2c2,0,4.1-0.2,6-0.4
					c1.9-0.2,3.9-0.5,5.7-1.1c1.8-0.6,3.6-1.5,5-2.9c1.4-1.4,2.5-3.2,3-5.2c0.6-2,0.7-4.1,0.5-6.2l2.1,0.6c-0.4,0.6-0.7,1.2-1.1,1.8
					c-0.4,0.6-0.8,1.1-1.2,1.7c-0.8,1.1-1.7,2.2-2.7,3.2c-0.5,0.5-1.1,1-1.7,1.5c-0.3,0.2-0.6,0.5-0.9,0.7c-0.3,0.2-0.7,0.4-1,0.6
					c-0.7,0.4-1.5,0.7-2.4,0.9c-0.9,0.2-1.9,0.2-2.8,0.1c-1-0.1-1.9-0.5-2.7-0.9l-0.6-0.3l-0.4-0.2c-0.2-0.1-0.5-0.3-0.7-0.4
					c-1-0.6-2.2-1.1-3.3-1.5c-2.3-0.9-4.6-1.8-7-2.6c-2.4-0.8-4.7-1.5-7.1-2c-1.2-0.2-2.3-0.4-3.4-0.5c-0.5,0-1,0-1.5,0l-0.3,0
					c-0.1,0-0.2,0-0.3,0c0,0-0.1,0-0.1,0l-0.1,0c-0.1,0-0.2,0-0.2,0.1c-0.3,0.1-0.5,0.2-0.7,0.4c-0.2,0.2-0.4,0.5-0.5,0.9
					c-0.1,0.4-0.2,0.9-0.2,1.4c0,0.5,0,1.1,0.1,1.7c0.1,1.2,0.4,2.4,0.7,3.7c0.2,0.6,0.3,1.3,0.5,1.9l0.3,0.9l0.2,0.5l0.1,0.2
					L363.8,545.1L363.8,545.1C363.9,545.2,363.8,545.1,363.8,545.1z M363.4,545.6c0,0-0.1-0.1-0.1-0.1l0,0l-0.1-0.1
					c-0.1-0.1-0.1-0.1-0.2-0.2l-0.3-0.4c-0.2-0.3-0.4-0.5-0.6-0.8c-0.4-0.5-0.8-1.1-1.2-1.7c-0.8-1.1-1.4-2.4-2-3.7
					c-0.5-1.4-0.9-2.8-0.8-4.6c0.1-0.9,0.3-1.9,0.8-2.8c0.5-0.9,1.3-1.7,2.2-2.3c0.2-0.1,0.4-0.2,0.6-0.4l0.3-0.2
					c0.1-0.1,0.2-0.1,0.3-0.1l0.7-0.2c0.2-0.1,0.4-0.1,0.6-0.2c0.8-0.2,1.6-0.3,2.4-0.4c1.6-0.1,3-0.1,4.4,0.1
					c2.9,0.3,5.6,0.9,8.2,1.8c2.6,0.9,5.1,2,7.6,3.3c1.2,0.7,2.4,1.4,3.6,2.2c0.3,0.2,0.6,0.4,0.9,0.6l0.2,0.2l0.1,0.1l0.1,0
					c0.1,0.1,0.2,0.1,0.2,0.2c0.3,0.2,0.6,0.4,0.9,0.5c0.3,0.1,0.7,0.2,1.1,0.1c0.4,0,0.9-0.1,1.3-0.2c1-0.3,2-0.8,3-1.4
					c1-0.6,2-1.4,2.9-2.2c0.5-0.4,0.9-0.8,1.4-1.3c0.4-0.4,0.9-0.9,1.2-1.4l2.4-2.9l-0.3,3.5c-0.1,1.1-0.2,2.2-0.4,3.4
					c-0.2,1.1-0.4,2.2-0.7,3.3c-0.6,2.2-1.4,4.4-2.8,6.4c-0.7,1-1.4,1.9-2.3,2.8c-0.9,0.9-1.8,1.6-2.9,2.3c-2.1,1.3-4.4,2.2-6.7,2.6
					c-2.3,0.5-4.7,0.5-7,0.3c-2.3-0.1-4.5-0.5-6.7-1c-2.2-0.5-4.3-1.2-6.4-2c-1-0.4-2.1-0.9-3.1-1.4c-0.5-0.3-1-0.5-1.5-0.8
					c-0.2-0.1-0.5-0.3-0.7-0.4l-0.4-0.2l-0.2-0.1l-0.1-0.1l0,0C363.5,545.6,363.6,545.6,363.4,545.6
					C363.5,545.6,363.4,545.6,363.4,545.6z"/>
			</g>
		</g>
		<g>
			
				<ellipse transform="matrix(0.3827 -0.9239 0.9239 0.3827 -298.7437 636.1757)" class="st3" cx="326.7" cy="541.6" rx="38.1" ry="38.1"/>
			<path class="st4" d="M326.7,506.1c19.6,0,35.5,15.9,35.5,35.5c0,19.6-15.9,35.5-35.5,35.5s-35.5-15.9-35.5-35.5
				C291.2,522.1,307.1,506.1,326.7,506.1 M326.7,501c-22.4,0-40.6,18.2-40.6,40.6c0,22.4,18.2,40.6,40.6,40.6s40.6-18.2,40.6-40.6
				C367.3,519.2,349.1,501,326.7,501L326.7,501z"/>
		</g>
	</g>
</g>
<g id="Layer_4">
	<g>
		<g>
			<circle class="st5" cx="329.5" cy="49" r="36.9"/>
			<path class="st6" d="M329.5,14.7c18.9,0,34.4,15.4,34.4,34.4s-15.4,34.4-34.4,34.4S295.1,68,295.1,49S310.6,14.7,329.5,14.7
				 M329.5,9.7c-21.7,0-39.4,17.6-39.4,39.4s17.6,39.4,39.4,39.4c21.7,0,39.4-17.6,39.4-39.4S351.2,9.7,329.5,9.7L329.5,9.7z"/>
		</g>
		<g>
			<path class="st7" d="M286.4,43.4v7.5c0,0-26.2,26.2,1.9,26.2s84.3-26.2,89.9-45c5.6-18.7-18.7-15-18.7-15l-7.5-5.6
				c0,0,41.2-18.7,50.6-3.7c9.4,15-24.4,43.1-61.8,60s-86.2,33.7-91.8,16.9C243.3,67.8,286.4,43.4,286.4,43.4z"/>
			<path class="st8" d="M286.5,43.2c0.1,2.4,0.4,5,0.5,7.8l0,0.3l-0.2,0.2c-2.3,2.7-4.5,5.5-6.4,8.5c-0.9,1.5-1.8,3-2.4,4.6
				c-0.7,1.6-1.2,3.2-1.2,4.7c0,1.5,0.3,2.8,1.3,3.7c1,0.9,2.4,1.4,4,1.8c3.2,0.6,6.7,0.5,10.2,0.2c3.5-0.4,6.9-1,10.4-1.8
				c3.4-0.8,6.9-1.7,10.3-2.8c3.4-1.1,6.8-2.2,10.1-3.5c3.3-1.3,6.6-2.6,9.9-4c6.5-2.9,12.9-6,19.1-9.6c3.1-1.7,6.1-3.6,9-5.6
				c2.9-2,5.7-4.1,8.3-6.4c2.6-2.3,4.9-4.9,6.4-7.7c0.2-0.4,0.3-0.7,0.5-1.1c0.2-0.4,0.3-0.7,0.4-1.1c0.1-0.4,0.2-0.8,0.3-1.2
				l0.3-1.2c0.3-1.6,0.3-3.2-0.2-4.6c-0.8-2.9-3.8-4.7-7.1-5.5c-3.3-0.8-6.9-0.8-10.3-0.5l-0.5,0l-0.3-0.2c-2.5-1.9-5-3.8-7.4-5.7
				l-1.3-1l1.5-0.6c2.9-1.3,5.9-2.4,8.9-3.5c3-1.1,6-2.1,9.1-3c6.1-1.8,12.4-3.2,18.9-3.4c3.2-0.1,6.6,0.3,9.9,1.6
				c1.6,0.7,3.1,1.7,4.4,3c1.2,1.4,2.2,2.9,2.7,4.7c0.5,1.8,0.7,3.6,0.4,5.4c0,0.5-0.1,0.9-0.2,1.3c-0.1,0.4-0.2,0.9-0.3,1.3
				c-0.3,0.8-0.5,1.7-0.8,2.4c-1.2,3.2-3,6-4.9,8.7c-3.9,5.3-8.6,9.8-13.5,14c-4.9,4.2-10.1,8-15.4,11.5
				c-10.7,7.1-22.1,13.1-33.7,18.2c-5.8,2.6-11.7,5-17.6,7.4c-5.9,2.3-11.9,4.5-18,6.5c-6.1,1.9-12.2,3.8-18.5,5.1
				c-6.3,1.3-12.7,2.5-19.4,2.4c-1.7,0-3.4-0.2-5.1-0.5c-0.9-0.1-1.7-0.4-2.6-0.6c-0.4-0.1-0.9-0.3-1.3-0.4
				c-0.4-0.2-0.9-0.3-1.3-0.5c-1.7-0.7-3.3-2-4.6-3.6c-1.3-1.6-1.9-3.6-2.2-5.5c-0.2-1.9,0-3.8,0.5-5.6c0.5-1.7,1.2-3.3,2.1-4.8
				c1.7-2.9,3.8-5.5,6.1-7.8c4.6-4.6,9.6-8.6,14.9-12.2c2.6-1.8,5.3-3.5,8-5.1c1.4-0.8,2.7-1.6,4.1-2.4l2.1-1.1l1.1-0.6l0.5-0.3
				l0.3-0.1l0.1-0.1C286.2,43.2,286.4,43.1,286.5,43.2z M286.2,43.7c0,0.1,0.2,0.1,0.2,0.1l-0.1,0.1l-0.2,0.2l-0.5,0.3l-1,0.7
				l-2,1.3l-3.9,2.7c-2.6,1.8-5.1,3.7-7.5,5.7c-4.9,4-9.6,8.1-13.6,12.8c-2,2.3-3.8,4.8-5.2,7.4c-0.7,1.3-1.2,2.6-1.5,3.9
				c-0.3,1.3-0.4,2.6-0.2,3.8c0.3,1.2,0.7,2.3,1.4,3.2c0.8,0.8,1.7,1.5,2.9,2c0.3,0.1,0.6,0.2,0.9,0.3c0.3,0.1,0.6,0.2,1,0.3
				c0.7,0.1,1.3,0.3,2.1,0.4c1.4,0.2,2.9,0.2,4.4,0.2c5.9-0.1,12.1-1.3,18-2.8c6-1.5,12-3.3,17.9-5.3c11.8-4.1,23.5-8.7,35-13.7
				c2.9-1.2,5.8-2.5,8.6-3.8c2.8-1.3,5.6-2.7,8.4-4.1c5.5-2.8,11-5.9,16.2-9.3c5.3-3.3,10.4-6.9,15.2-10.8c2.4-2,4.8-3.9,7-6.1
				c2.2-2.1,4.4-4.3,6.3-6.7c1.9-2.3,3.6-4.8,4.8-7.5c1.2-2.6,1.8-5.5,1.2-8.1c-0.3-1.3-1-2.5-1.8-3.5c-0.9-1-2-1.8-3.3-2.5
				c-2.6-1.2-5.6-1.7-8.7-1.7c-3.1-0.1-6.2,0.3-9.2,0.8c-3.1,0.5-6.1,1.2-9.1,2c-6,1.7-12,3.8-17.7,6.4l0.2-1.6
				c2.5,1.9,5,3.7,7.5,5.6l-0.8-0.2c3.7-0.5,7.4-0.6,11.2,0.1c1.9,0.4,3.8,1,5.5,2.1c1.7,1.1,3.2,2.8,4,4.8c0.8,2,0.8,4.1,0.6,6.1
				l-0.2,1.5c-0.1,0.5-0.2,0.9-0.3,1.4c-0.1,0.5-0.3,1-0.4,1.4c-0.2,0.5-0.3,1-0.5,1.4c-1.7,3.6-4.1,6.6-6.8,9.3
				c-5.3,5.3-11.4,9.6-17.6,13.4c-3.1,1.9-6.4,3.7-9.6,5.3c-3.3,1.7-6.6,3.2-9.9,4.6c-6.7,2.9-13.6,5.4-20.7,7.4
				c-7.1,1.9-14.3,3.6-21.7,4c-3.7,0.2-7.5,0.2-11.4-0.7c-1.9-0.5-3.9-1.4-5.6-3c-0.4-0.4-0.7-0.9-1.1-1.4c-0.2-0.5-0.5-1.1-0.7-1.6
				l-0.2-0.8c-0.1-0.3-0.1-0.6-0.1-0.8c-0.1-0.6,0-1.1,0-1.6c0.2-2.1,1-3.9,1.8-5.6c0.9-1.7,1.9-3.3,3-4.8c2.2-3,4.7-5.7,7.3-8.2
				l-0.2,0.5C285.8,48.6,286.1,46.3,286.2,43.7z"/>
		</g>
		<path class="st9" d="M272.3,59.3c-2.3,4.1-4.7,7.8-6.8,11.5c-1,1.8-2,3.7-2.6,5.4c-0.3,0.8-0.5,1.6-0.5,2.2c0,0.3,0,0.5,0,0.6
			c0,0.1,0.1,0.2,0.1,0.3c0,0.3,1.6,1.1,3.4,1.4c1.8,0.3,3.9,0.5,6,0.6c4.3,0.2,8.7,0.1,13.4,0.6c-4,2.4-8.3,4-12.9,4.9
			c-2.3,0.5-4.7,0.7-7.3,0.5c-1.3-0.1-2.6-0.3-4.1-0.8c-0.7-0.3-1.5-0.6-2.2-1.1c-0.7-0.5-1.5-1.2-2.1-2c-0.6-0.8-1-1.8-1.2-2.8
			c-0.2-0.9-0.2-1.9-0.1-2.7c0.2-1.6,0.7-3,1.3-4.2c1.2-2.4,2.7-4.3,4.3-6c1.6-1.7,3.4-3.3,5.2-4.6
			C268.2,61.5,270.2,60.3,272.3,59.3z"/>
		<path class="st9" d="M360.4,12.5c2.6-2.6,5.6-4.3,8.7-5.8c3.1-1.4,6.4-2.5,9.9-3.2c3.4-0.6,7-0.9,10.8-0.2c1.8,0.4,3.7,1,5.4,2.2
			c0.4,0.3,0.8,0.6,1.2,1c0.2,0.2,0.3,0.4,0.5,0.6c0.1,0.2,0.3,0.4,0.4,0.7c0.3,0.4,0.4,0.9,0.5,1.4c0.1,0.5,0.1,1,0.1,1.4
			c-1.3-1.4-2.7-1.8-4.1-1.9c-1.4-0.1-2.9,0-4.3,0.2c-3,0.3-6,1-9.2,1.5c-3.1,0.6-6.3,1.1-9.6,1.6C367.4,12.4,364,12.7,360.4,12.5z"
			/>
		<path class="st9" d="M384.8,12.5c1.4-0.7,3-1.1,4.6-1.1c1.6,0,3.3,0.1,5.1,1.1c0.4,0.2,0.9,0.5,1.3,0.9c0.4,0.4,0.8,0.8,1.2,1.3
			c0.4,0.5,0.6,1,0.9,1.6c0.2,0.6,0.4,1.2,0.5,1.7c0.3,2.4-0.3,4.3-1.1,5.9c-1.6,3.2-3.8,5.4-6.2,7.2c-2.4,1.8-5.1,3.2-8.2,4
			c1.2-3,2.7-5.4,4.2-7.7c1.5-2.3,2.9-4.5,3.9-6.5c0.5-1,0.7-1.8,0.8-2.3c0-0.3,0.1-0.4,0-0.7c0-0.2-0.2-0.6-0.5-0.9
			c-0.5-0.7-1.6-1.5-2.7-2.2C387.5,14,386.2,13.3,384.8,12.5z"/>
	</g>
</g>
<g id="Layer_5">
</g>
<g id="Layer_2">
	<g>
		<g>
			<defs>
				<circle id="SVGID_1_" cx="323.3" cy="300" r="27.7"/>
			</defs>
			<clipPath id="SVGID_2_">
				<use xlink:href="#SVGID_1_"  style="overflow:visible;"/>
			</clipPath>
			<g class="st10">
				<g>
					<g>
						<g>
							<circle class="st11" cx="323.3" cy="300" r="27.2"/>
						</g>
						<g>
							<path class="st12" d="M323.3,273.3c14.7,0,26.7,12,26.7,26.7s-12,26.7-26.7,26.7c-14.7,0-26.7-12-26.7-26.7
								S308.6,273.3,323.3,273.3 M323.3,272.3c-15.3,0-27.7,12.4-27.7,27.7s12.4,27.7,27.7,27.7S351,315.3,351,300
								S338.6,272.3,323.3,272.3L323.3,272.3z"/>
						</g>
					</g>
					<g>
						<g>
							<path class="st13" d="M343,280.8c0,0-6.9,0-8.5,0.5c-1.6,0.5-0.5-0.5-0.5-0.5s-8.5,0.5-8.5,2.1c0,1.6-1.1,2.7-1.6,2.1
								c-0.5-0.5-2.1,0.5-1.6,1.6c0.5,1.1-1.1,2.1-1.1,2.7c0,0.5-0.5,1.6,0,2.1c0.5,0.5-3.2-1.1-2.7,2.7c0.5,3.7,2.7,4.8,6.9,5.9
								s0.5,3.7,1.1,5.9c0.5,2.1,2.1,5.9,2.1,6.9c0,1.1,2.1,0.5,2.1,0.5s1.6-1.6,1.6-3.2c0-1.6,2.1-2.1,2.1-3.2s-0.5-1.6-0.5-2.7
								s1.1-4.3,1.6-4.3c0.5,0,2.1-0.5,1.6-1.6s-3.2-0.5-3.7-0.5c-0.5,0-1.6-3.7-1.6-3.7l2.7,3.2c0,0,4.3-2.1,3.7-3.7
								c-0.5-1.6,4.3-0.5,4.3,2.1s1.6,4.3,1.6,4.3s0-6.4,1.1-5.9c1.1,0.5,3.2,5.3,3.2,5.3S351.5,282.4,343,280.8z"/>
						</g>
						<g>
							<g>
								<path class="st12" d="M343,280.8c-1.7,0-3.4,0-5.1,0.1c-0.8,0-1.7,0.1-2.5,0.2c-0.4,0.1-0.8,0.2-1.2,0.3
									c-0.1,0-0.2,0-0.3,0.1c-0.1,0-0.1,0-0.2,0c-0.1,0-0.1-0.1-0.1-0.1c0-0.2,0.2-0.4,0.3-0.5l0,0c-2.2,0.2-4.3,0.4-6.4,0.9
									c-0.5,0.1-1,0.3-1.5,0.5c-0.2,0.1-0.5,0.3-0.5,0.5c0,0.1,0,0.3,0,0.4c0,0.1,0,0.3-0.1,0.4c-0.1,0.5-0.3,1.1-0.8,1.4
									c-0.1,0.1-0.2,0.2-0.4,0.2c-0.1,0-0.3,0-0.4-0.1c-0.2-0.2-0.5-0.2-0.7-0.1c-0.5,0.2-0.9,0.6-0.9,1.1c0,0.3,0.1,0.5,0.2,0.8
									c0.1,0.3,0,0.6-0.1,0.8c-0.2,0.5-0.6,0.9-0.9,1.3c0,0.1-0.1,0.1-0.1,0.2c0,0,0,0.1,0,0.2c0,0.1,0,0.3-0.1,0.4
									c-0.1,0.3-0.1,0.5-0.1,0.8c0,0.3,0,0.5,0.2,0.7l0.1,0.1c0,0,0,0,0,0.1c0,0,0,0.2-0.1,0.2c-0.1,0.1-0.2,0-0.3,0l-0.4,0
									c-0.5,0-1.1,0-1.5,0.3c-0.4,0.3-0.5,0.8-0.5,1.4c0,0.5,0.1,1.1,0.2,1.6c0.1,0.5,0.3,1,0.6,1.5c0.3,0.5,0.6,0.9,1,1.2
									c0.8,0.7,1.8,1.1,2.8,1.5c0.5,0.2,1,0.3,1.5,0.5c0.5,0.1,1,0.2,1.6,0.4c0.5,0.2,1.1,0.5,1.3,1.1c0.3,0.6,0.1,1.2-0.1,1.7
									c-0.2,0.5-0.4,1-0.6,1.5c-0.2,0.5-0.3,1-0.2,1.5c0.3,1,0.6,2,1,3.1c0.4,1,0.7,2,1,3.1c0.1,0.3,0.1,0.6,0.1,0.8
									c0,0.2,0.1,0.3,0.4,0.3c0.4,0.1,1,0,1.5-0.1l-0.1,0.1c0.7-0.7,1.3-1.7,1.5-2.6c0-0.1,0-0.2,0-0.4c0-0.1,0-0.3,0.1-0.4
									c0.1-0.3,0.2-0.6,0.4-0.8c0.3-0.5,0.8-0.8,1.2-1.2c1-0.6,0.3-1.6,0.1-2.7c-0.1-0.3-0.1-0.6-0.1-0.9c0-0.3,0.1-0.6,0.1-0.8
									c0.1-0.5,0.3-1.1,0.5-1.6c0.2-0.5,0.4-1,0.7-1.5c0.1-0.1,0.2-0.2,0.3-0.4c0.1,0,0.1-0.1,0.2-0.1l0.1,0l0,0
									c0.1,0,0.1,0,0.2,0c0.2,0,0.5-0.1,0.7-0.2c0.2-0.1,0.4-0.3,0.5-0.4c0.1-0.2,0.1-0.4,0-0.6c-0.2-0.3-0.7-0.5-1.2-0.5
									c-0.5,0-1,0-1.6,0l-0.4,0l-0.2,0l-0.1,0c0,0-0.1,0-0.1,0c0,0-0.1,0-0.1,0c-0.2-0.1-0.2-0.3-0.3-0.4
									c-0.1-0.1-0.1-0.3-0.2-0.4c-0.5-1-0.8-2-1.1-3.1l-0.3-1l0.7,0.8l2.7,3.2l-0.2-0.1c0.6-0.3,1.2-0.7,1.8-1
									c0.6-0.4,1.1-0.8,1.5-1.3c0.2-0.3,0.4-0.5,0.4-0.8c0-0.1,0-0.1,0-0.2l-0.1-0.2c-0.1-0.2,0-0.5,0.2-0.6
									c0.4-0.3,0.8-0.2,1.1-0.2c0.4,0,0.7,0.1,1,0.3c0.7,0.3,1.3,0.7,1.7,1.2c0.2,0.3,0.4,0.6,0.5,1c0,0.2,0.1,0.4,0.1,0.5
									c0,0.2,0,0.3,0,0.5c0.1,1.3,0.6,2.7,1.5,3.7L344,300c0-1,0.1-2.1,0.1-3.1c0-0.5,0.1-1,0.2-1.6c0.1-0.3,0.1-0.5,0.2-0.8
									c0-0.1,0.1-0.3,0.2-0.4c0-0.1,0.1-0.1,0.2-0.1c0.1,0,0.2,0,0.3,0c0.5,0.3,0.7,0.8,1,1.2c0.3,0.4,0.5,0.9,0.8,1.4
									c0.5,0.9,0.9,1.9,1.4,2.8l-0.1,0c0.3-1.7,0.5-3.5,0.6-5.3c0.1-1.8,0-3.5-0.2-5.3c-0.2-1.7-0.7-3.5-1.5-5
									c-0.4-0.8-1-1.5-1.7-2C344.7,281.3,343.9,281,343,280.8z M343,280.8c0.9,0.2,1.7,0.5,2.4,1.1c0.7,0.5,1.3,1.2,1.7,2
									c0.9,1.5,1.3,3.3,1.6,5c0.2,1.8,0.3,3.5,0.2,5.3c-0.1,1.8-0.2,3.5-0.5,5.3l0,0.2l-0.1-0.2c-0.4-0.9-0.9-1.9-1.4-2.8
									c-0.3-0.5-0.5-0.9-0.8-1.3c-0.3-0.4-0.6-0.9-1-1.1c-0.2-0.1-0.3,0.2-0.4,0.4c-0.1,0.2-0.1,0.5-0.2,0.7
									c-0.1,0.5-0.1,1-0.2,1.5c-0.1,1-0.1,2.1-0.1,3.1l0,0.3l-0.2-0.2c-1-1-1.5-2.4-1.6-3.8c0-0.2,0-0.4,0-0.5
									c0-0.2,0-0.3-0.1-0.5c-0.1-0.3-0.2-0.6-0.4-0.9c-0.4-0.5-1-0.9-1.6-1.1c-0.3-0.1-0.6-0.2-1-0.2c-0.3,0-0.7,0-0.9,0.1
									c-0.1,0.1-0.1,0.2-0.1,0.3l0.1,0.3c0,0.1,0,0.2,0,0.3c-0.1,0.4-0.3,0.7-0.5,1c-0.5,0.6-1,1-1.6,1.4
									c-0.6,0.4-1.2,0.8-1.8,1.1l-0.1,0.1l-0.1-0.1l-2.7-3.2l0.4-0.2c0.3,1,0.6,2,1.1,3c0.1,0.1,0.1,0.2,0.2,0.3
									c0.1,0.1,0.1,0.2,0.2,0.2l0.7-0.1c0.5-0.1,1.1-0.1,1.6-0.1c0.3,0,0.6,0.1,0.8,0.2c0.3,0.1,0.6,0.3,0.7,0.6
									c0.1,0.1,0.1,0.3,0.1,0.5c0,0.2,0,0.4-0.1,0.5c-0.2,0.3-0.4,0.5-0.7,0.6c-0.3,0.1-0.5,0.2-0.8,0.3c-0.1,0-0.1,0-0.2,0
									l-0.1,0c0,0,0,0,0,0c0,0,0,0,0,0c0,0-0.1,0.1-0.2,0.2c-0.3,0.4-0.5,0.9-0.6,1.4c-0.2,0.5-0.3,1-0.4,1.5
									c-0.1,0.3-0.1,0.5-0.1,0.8c0,0.2,0,0.5,0.1,0.7c0.1,0.5,0.4,1,0.4,1.6c0,0.1,0,0.3,0,0.4c0,0.1,0,0.2,0,0.3
									c0,0.1-0.1,0.2-0.1,0.2c-0.1,0.3-0.4,0.5-0.6,0.7c-0.4,0.4-0.8,0.7-1.1,1.1c-0.1,0.2-0.3,0.4-0.3,0.6c0,0.1,0,0.2,0,0.3
									c0,0.1,0,0.3,0,0.4c-0.1,0.6-0.3,1.1-0.6,1.6c-0.3,0.5-0.6,0.9-1,1.3l0,0l-0.1,0c-0.6,0.1-1.1,0.2-1.7,0.1
									c-0.2,0-0.3-0.1-0.5-0.2c-0.1-0.1-0.2-0.3-0.2-0.5c0-0.3-0.1-0.5-0.1-0.8c-0.3-1-0.6-2-1-3.1c-0.4-1-0.7-2-1-3.1
									c-0.2-0.6,0-1.2,0.2-1.7c0.2-0.5,0.4-1,0.6-1.5c0.2-0.5,0.3-1,0.1-1.4c-0.2-0.4-0.7-0.7-1.1-0.9c-0.5-0.2-1-0.3-1.5-0.4
									c-0.5-0.1-1-0.3-1.6-0.5c-1-0.4-2-0.8-2.9-1.6c-0.4-0.4-0.8-0.8-1-1.3c-0.2-0.5-0.4-1-0.6-1.6c-0.1-0.5-0.2-1.1-0.2-1.6
									c0-0.5,0.2-1.2,0.6-1.5c0.5-0.4,1.1-0.4,1.6-0.4l0.4,0c0.1,0,0.2,0,0.1,0c0,0,0,0,0,0c0,0,0,0,0,0c0,0,0,0,0,0l-0.1-0.1
									c-0.2-0.2-0.2-0.6-0.2-0.8c0-0.3,0.1-0.5,0.2-0.8c0-0.1,0.1-0.3,0.1-0.4c0-0.1,0-0.1,0-0.2c0-0.1,0.1-0.1,0.1-0.2
									c0.3-0.5,0.7-0.8,0.9-1.3c0.1-0.2,0.2-0.5,0.1-0.7c0-0.2-0.2-0.5-0.2-0.8c0.1-0.6,0.5-1,1-1.2c0.1,0,0.3-0.1,0.4-0.1
									c0.1,0,0.1,0,0.2,0.1c0.1,0,0.1,0.1,0.2,0.1c0.2,0.2,0.5,0.1,0.7-0.1c0.4-0.3,0.6-0.9,0.7-1.4c0-0.1,0-0.3,0.1-0.4
									c0-0.1,0-0.3,0-0.4c0.1-0.3,0.4-0.4,0.6-0.6c0.5-0.3,1-0.4,1.5-0.5c2.1-0.5,4.3-0.7,6.4-0.9l0.1,0l0,0
									c-0.1,0.2-0.3,0.3-0.3,0.5c0,0.1,0.1,0.1,0.2,0.1c0.1,0,0.2,0,0.3,0c0.4-0.1,0.8-0.2,1.2-0.3c0.8-0.1,1.7-0.2,2.5-0.2
									C339.6,280.9,341.3,280.8,343,280.8z"/>
							</g>
						</g>
					</g>
					<g>
						<g>
							<path class="st14" d="M322.2,280.3c0,0-7.5,4.3-7.5,1.6s-3.2-2.1-3.2-2.1C309.7,275.8,326.2,273.1,322.2,280.3z"/>
						</g>
						<g>
							<g>
								<path class="st15" d="M322.2,280.3c-0.9,0.6-1.9,1.1-2.8,1.6c-1,0.5-2,0.9-3.1,1.1c-0.3,0-0.6,0.1-0.9,0
									c-0.2,0-0.3-0.1-0.5-0.2c-0.1-0.1-0.3-0.2-0.3-0.4c-0.1-0.2-0.1-0.3-0.1-0.5c0-0.1,0-0.3,0-0.4c0-0.2-0.1-0.5-0.2-0.7
									c-0.2-0.4-0.7-0.7-1.2-0.8c-0.5-0.1-1-0.1-1.5-0.1l-0.2,0l-0.1-0.2c-0.2-0.4-0.2-0.8-0.1-1.2c0.1-0.4,0.4-0.7,0.6-1
									c0.5-0.5,1.2-0.9,1.8-1.1c1.3-0.5,2.7-0.9,4.1-0.9c0.7,0,1.4,0,2.1,0.1c0.7,0.1,1.4,0.3,2,0.7c0.6,0.4,1,1.1,0.9,1.9
									C322.9,279,322.6,279.7,322.2,280.3z M322.2,280.3c0.3-0.6,0.6-1.3,0.6-2c0-0.7-0.4-1.3-1-1.7c-0.6-0.4-1.2-0.5-1.9-0.6
									c-0.7-0.1-1.4-0.1-2.1,0c-1.4,0.1-2.7,0.4-4,1c-0.6,0.3-1.2,0.6-1.7,1.1c-0.2,0.2-0.4,0.5-0.5,0.8c-0.1,0.3,0,0.6,0.1,0.8
									l-0.3-0.1c0.6-0.1,1.1-0.1,1.7,0.1c0.6,0.1,1.1,0.5,1.4,1c0.2,0.3,0.2,0.6,0.3,0.8c0,0.1,0,0.3,0,0.4c0,0.1,0,0.2,0.1,0.3
									c0.1,0.4,0.7,0.4,1.2,0.4c1-0.1,2.1-0.5,3-0.9C320.3,281.2,321.3,280.8,322.2,280.3z"/>
							</g>
						</g>
					</g>
					<g>
						<g>
							<path class="st16" d="M304.7,280.3c0,0,6.9-1.6,6.9,0.5s2.1,0.5,1.6,1.6c-0.5,1.1-1.6,1.1-1.1,2.1c0.5,1.1-1.1,5.3-2.7,4.8
								c-1.6-0.5-3.2,1.6-3.2,2.7s-2.1,1.1-3.2,0s-2.1-0.5-2.1,1.1s0,3.2,1.1,2.1c1.1-1.1,1.6,1.1,1.6,1.1s-0.5,1.1,0.5,1.6
								c1.1,0.5,0.5,1.1,0.5,1.1s-1.6-1.1-3.2-1.6s-2.7-1.1-2.7-1.1S296.1,279.8,304.7,280.3z"/>
						</g>
						<g>
							<path class="st12" d="M304.7,280.3c1.5-0.4,3-0.7,4.5-0.7c0.4,0,0.8,0,1.2,0.1c0.4,0.1,0.8,0.2,1.1,0.5
								c0.2,0.2,0.3,0.4,0.3,0.7c0,0.2,0,0.4,0.1,0.5c0.1,0.3,0.3,0.4,0.6,0.4c0.2,0,0.3,0,0.6,0c0.1,0,0.1,0,0.2,0.1
								c0.1,0,0.2,0.2,0.2,0.4c0,0.2-0.1,0.3-0.1,0.4c-0.2,0.4-0.5,0.7-0.8,1c-0.1,0.1-0.3,0.3-0.3,0.4c0,0.1-0.1,0.2,0,0.3
								c0,0.1,0.1,0.1,0.1,0.2c0.1,0.1,0.1,0.2,0.1,0.4c0,0.2,0,0.5,0,0.7c-0.1,0.8-0.3,1.6-0.6,2.3c-0.2,0.4-0.4,0.7-0.6,1.1
								c-0.3,0.3-0.5,0.7-1,0.9c-0.2,0.1-0.5,0.2-0.8,0.1l-0.3-0.1c-0.1,0-0.1,0-0.2,0c-0.3,0-0.6,0.1-0.9,0.2
								c-0.5,0.3-1,0.9-1.3,1.5c-0.1,0.1-0.1,0.3-0.1,0.4c0,0,0,0.5-0.2,0.7c-0.2,0.3-0.5,0.4-0.7,0.5c-0.2,0.1-0.5,0.1-0.7,0.1
								c-0.9,0-1.8-0.3-2.4-0.9c-0.2-0.2-0.5-0.4-0.7-0.4c-0.2,0-0.3,0.1-0.4,0.3c-0.1,0.2-0.2,0.5-0.2,0.9c0,0.4,0,0.8,0,1.1
								c0,0.2,0,0.4,0.1,0.5c0,0.2,0.1,0.3,0.1,0.3c0,0,0,0,0,0c0,0-0.1,0-0.1,0c0,0-0.1,0,0,0c0,0,0,0,0,0c0,0,0,0,0.1,0l0.1-0.1
								l0.2-0.2c0.1-0.1,0.2-0.2,0.4-0.2c0.2-0.1,0.3-0.1,0.5,0c0.4,0.1,0.6,0.3,0.8,0.5c0.3,0.4,0.4,0.8,0.6,1.2l0,0.2l-0.1,0.2
								c-0.1,0.1-0.1,0.4-0.1,0.5c0,0.1,0.1,0.3,0.2,0.4c0,0,0.1,0,0.1,0.1l0.2,0.1c0.1,0.1,0.3,0.2,0.4,0.3
								c0.1,0.1,0.3,0.4,0.3,0.6c0,0.1,0,0.3-0.1,0.4c-0.1,0.1-0.1,0.2-0.2,0.4l-0.3,0.3l-0.3-0.2c-0.4-0.3-0.9-0.6-1.3-0.8
								c-0.5-0.2-0.9-0.5-1.4-0.7c-0.5-0.2-1-0.4-1.5-0.6c-0.5-0.2-1-0.4-1.5-0.7l-0.2-0.1l0-0.2c-0.2-1.6-0.3-3.2-0.3-4.9
								c0-1.6,0.1-3.3,0.4-4.9c0.3-1.6,0.8-3.2,1.9-4.5c0.5-0.6,1.2-1.2,2-1.5C303,280.3,303.8,280.2,304.7,280.3z M304.7,280.3
								c-0.8,0-1.6,0.1-2.3,0.5c-0.7,0.3-1.3,0.9-1.8,1.5c-0.9,1.3-1.3,2.9-1.6,4.4c-0.2,1.6-0.3,3.2-0.2,4.8
								c0.1,1.6,0.2,3.2,0.4,4.8l-0.2-0.3c0.5,0.2,1,0.4,1.4,0.6c0.5,0.2,1,0.3,1.5,0.5c0.5,0.2,1,0.4,1.5,0.7
								c0.5,0.3,1,0.5,1.4,0.8l-0.6,0.1c0,0,0,0.1-0.1-0.1c0-0.1-0.1-0.1-0.2-0.2l-0.2-0.1c-0.1,0-0.2-0.1-0.2-0.1
								c-0.3-0.2-0.6-0.6-0.6-1c0-0.2,0-0.4,0-0.6c0-0.2,0.1-0.3,0.2-0.5l0,0.3c-0.1-0.3-0.2-0.6-0.4-0.8c-0.1-0.1-0.2-0.1-0.2-0.1
								c0,0,0,0,0,0c0,0-0.1,0-0.1,0.1l-0.1,0.1c0,0-0.1,0.1-0.1,0.1l-0.1,0.1l-0.2,0.1c0,0-0.1,0.1-0.2,0.1c0,0-0.1,0-0.1,0
								c-0.1,0-0.1,0-0.2,0c-0.1,0-0.3-0.1-0.4-0.1c-0.1-0.1-0.2-0.2-0.2-0.2c-0.2-0.3-0.2-0.5-0.3-0.8c0-0.2,0-0.4-0.1-0.6
								c0-0.4,0-0.8,0-1.2c0-0.4,0-0.9,0.3-1.3c0.1-0.2,0.3-0.5,0.5-0.6c0.2-0.2,0.6-0.2,0.9-0.2c0.6,0.1,1,0.4,1.3,0.7
								c0.4,0.4,1.1,0.7,1.7,0.7c0.3,0,0.6-0.1,0.6-0.2c0-0.1,0,0,0.1-0.4c0-0.2,0.1-0.5,0.2-0.7c0.4-0.8,0.9-1.5,1.7-1.9
								c0.4-0.2,0.8-0.4,1.3-0.3c0.1,0,0.2,0,0.4,0l0.3,0.1c0.1,0,0.2,0,0.3,0c0.2-0.1,0.5-0.3,0.7-0.6c0.2-0.3,0.4-0.6,0.6-0.9
								c0.3-0.6,0.6-1.4,0.6-2.1c0-0.2,0-0.3,0-0.5c0-0.1,0-0.1-0.1-0.2c0-0.1-0.1-0.2-0.1-0.3c-0.1-0.2-0.1-0.6,0.1-0.8
								c0.1-0.2,0.3-0.4,0.5-0.5c0.3-0.2,0.5-0.5,0.7-0.8c0-0.1,0.1-0.2,0.1-0.1c0,0,0.1,0.1,0.1,0.1c0,0,0,0,0,0
								c-0.1,0-0.4,0-0.6,0c-0.2,0-0.5-0.1-0.7-0.2c-0.2-0.2-0.3-0.4-0.4-0.6c-0.1-0.2-0.1-0.4-0.1-0.6c0-0.1,0-0.3-0.1-0.4
								c-0.2-0.2-0.6-0.4-0.9-0.4c-0.4-0.1-0.7-0.1-1.1-0.1c-0.8,0-1.5,0-2.3,0.1C306.2,280,305.4,280.2,304.7,280.3z"/>
						</g>
					</g>
					<g>
						<g>
							<path class="st16" d="M307.8,295.2c0,0-1.6,0-2.1-0.5c-0.5-0.5-0.5-1.6-1.1-1.1c-0.5,0.5,0,1.1,0.5,1.6
								C305.7,295.7,307.8,295.2,307.8,295.2z"/>
						</g>
						<g>
							<path class="st12" d="M307.8,295.2c-0.4,0-0.7,0-1.1,0c-0.4-0.1-0.7-0.1-1.1-0.4c-0.3-0.3-0.5-0.6-0.6-1
								c0-0.1-0.1-0.1-0.1-0.2c-0.1-0.1,0,0,0,0c-0.1,0-0.2,0.2-0.2,0.3c-0.1,0.2,0.1,0.5,0.3,0.8c0.1,0.1,0.2,0.3,0.4,0.4
								c0.1,0.1,0.2,0.1,0.4,0.2c0.3,0.1,0.7,0.1,1,0C307.1,295.3,307.5,295.2,307.8,295.2z M307.8,295.2c-0.7,0.2-1.4,0.4-2.2,0.4
								c-0.2,0-0.4-0.1-0.6-0.2c-0.1-0.1-0.3-0.3-0.4-0.4c-0.1-0.1-0.3-0.3-0.3-0.5c-0.1-0.2-0.1-0.5,0-0.7c0-0.1,0.1-0.2,0.2-0.3
								c0.1-0.1,0.2-0.2,0.3-0.2c0.1,0,0.2,0,0.3,0c0.1,0,0.1,0.1,0.2,0.1c0.1,0.1,0.1,0.2,0.2,0.3c0.1,0.3,0.3,0.7,0.5,0.9
								c0.2,0.2,0.6,0.3,0.9,0.4C307.1,295.1,307.5,295.2,307.8,295.2z"/>
						</g>
					</g>
					<g>
						<g>
							<path class="st16" d="M335,310.1c-0.2-0.5,0-1.6,0.5-1.6c0.5,0,0-0.5,0-1.6s0-2.1,0.5-1.6C336.6,305.9,335.6,311.7,335,310.1
								z"/>
						</g>
						<g>
							<path class="st12" d="M335,310.1c-0.1-0.2-0.1-0.5-0.1-0.7c0-0.2,0.1-0.5,0.2-0.7c0.1-0.1,0.2-0.2,0.3-0.2
								c0.1,0,0.2,0,0.3-0.1c0-0.2-0.1-0.4-0.2-0.7c-0.1-0.5-0.1-1-0.2-1.4c0-0.2,0-0.5,0-0.7c0-0.1,0-0.3,0.2-0.4
								c0.1-0.1,0.2-0.1,0.4-0.1c0.1,0,0.2,0.1,0.2,0.1c0,0,0.1,0.1,0.2,0.2c0,0.1,0,0.1,0.1,0.2c0,0.1,0,0.3,0,0.4
								c0,0.2,0,0.5,0,0.7c-0.1,0.5-0.1,1-0.2,1.4c-0.1,0.5-0.2,0.9-0.4,1.4c-0.1,0.2-0.2,0.5-0.3,0.7c-0.1,0.1-0.1,0.2-0.2,0.2
								C335.1,310.4,335.1,310.2,335,310.1z M335,310.1c0,0.1,0.1,0.2,0.2,0.3c0.1,0,0.2-0.1,0.2-0.2c0.1-0.2,0.2-0.4,0.2-0.7
								c0.1-0.5,0.2-0.9,0.2-1.4c0.1-0.5,0.1-0.9,0.1-1.4c0-0.2,0-0.5,0-0.7c0-0.2,0-0.5-0.1-0.5c0,0-0.1-0.1-0.1-0.1c0,0,0,0,0,0
								c0,0-0.1,0.1-0.1,0.2c0,0.2-0.1,0.5-0.1,0.7c0,0.5-0.1,0.9,0,1.4l0.1,0.3c0,0.1,0.1,0.2,0,0.4c0,0.1-0.1,0.1-0.2,0.1l-0.2,0
								c-0.1,0-0.2,0.1-0.3,0.2C335,309.1,334.9,309.7,335,310.1z"/>
						</g>
					</g>
					<g>
						<g>
							<path class="st17" d="M312.1,321.3c0,0-2.7-2.7-2.7-4.3c0-1.6,1.1-1.1,2.1-2.7c1.1-1.6,1.1-2.7,1.1-3.2
								c0-0.5,1.1-2.1,1.6-2.1c0.5,0,1.1-3.7,1.1-3.7s1.1-2.1-0.5-2.1c-1.6,0-2.1,1.1-2.7-0.5c-0.5-1.6-1.6-4.3-2.7-4.3
								c-1.1,0-1.6-1.6-2.7-0.5c-1.1,1.1-1.6,3.2-2.1,3.2c-0.5,0-2.7,3.2-1.6,3.7c1.1,0.5,2.7,1.6,3.2,2.1c0.5,0.5,1.1,2.1,1.1,3.2
								c0,1.1-1.1,2.1-0.5,2.7c0.5,0.5,0,4.8,0.5,5.3C307.8,318.6,312.1,321.3,312.1,321.3z"/>
						</g>
						<g>
							<path class="st12" d="M312.1,321.3c-0.6-0.5-1.1-1.1-1.6-1.7c-0.5-0.6-0.9-1.3-1.2-2.1c-0.1-0.4-0.1-0.8,0.1-1.3
								c0.1-0.2,0.2-0.4,0.4-0.5c0.2-0.1,0.3-0.2,0.5-0.4c0.6-0.4,1-1,1.4-1.7c0.3-0.7,0.6-1.4,0.6-2.1l0-0.3c0,0,0-0.1,0-0.2
								c0-0.1,0-0.1,0-0.2c0.1-0.2,0.2-0.4,0.3-0.6c0.2-0.4,0.4-0.7,0.7-1c0.2-0.2,0.3-0.3,0.6-0.5c0.1,0,0.2-0.1,0.3-0.1l0,0
								c0,0,0,0,0,0c0,0-0.1,0-0.1,0c0,0,0,0,0,0c0,0,0-0.1,0.1-0.1c0.1-0.3,0.2-0.7,0.3-1c0.2-0.7,0.3-1.5,0.4-2.3l0-0.1l0-0.1
								c0.2-0.4,0.3-0.8,0.3-1.1c0-0.2,0-0.3-0.1-0.3c0,0-0.2-0.1-0.3-0.1c-0.4,0-0.8,0.1-1.2,0.2c-0.2,0.1-0.5,0.2-0.9,0.1
								c-0.2,0-0.4-0.2-0.5-0.3c-0.1-0.1-0.1-0.1-0.2-0.2c0-0.1-0.1-0.1-0.1-0.2c-0.2-0.5-0.3-0.9-0.5-1.3c-0.2-0.4-0.3-0.8-0.5-1.2
								c-0.2-0.4-0.4-0.8-0.6-1.1c-0.2-0.3-0.5-0.7-0.7-0.7c0,0,0,0,0,0l-0.2,0c-0.2,0-0.3-0.1-0.5-0.1c-0.3-0.1-0.5-0.3-0.7-0.4
								c-0.2-0.1-0.4-0.3-0.5-0.3c-0.1,0-0.1,0-0.2,0c-0.2,0.1-0.5,0.5-0.7,0.8c-0.2,0.4-0.4,0.7-0.6,1.1l-0.3,0.6
								c-0.1,0.2-0.2,0.4-0.5,0.7c0,0-0.1,0.1-0.1,0.1c-0.1,0-0.1,0.1-0.2,0.1c0,0-0.1,0-0.1,0l-0.1,0c0,0-0.1,0,0,0c0,0,0,0,0.1,0
								l0,0c0,0-0.1,0-0.1,0.1c-0.1,0.1-0.3,0.3-0.4,0.5c-0.3,0.3-0.5,0.7-0.7,1.1c-0.2,0.4-0.3,0.8-0.3,1.1c0,0.1,0,0.1,0,0.1
								c0,0,0,0,0,0c0,0,0,0,0.1,0c0.2,0.1,0.4,0.2,0.6,0.3c0.4,0.2,0.8,0.5,1.2,0.7c0.4,0.3,0.8,0.5,1.1,0.8
								c0.1,0.1,0.2,0.2,0.3,0.3c0.1,0.1,0.2,0.2,0.3,0.3c0.1,0.2,0.3,0.4,0.3,0.7c0.2,0.5,0.3,0.9,0.4,1.4c0.1,0.5,0.2,0.9,0.1,1.5
								c-0.1,0.5-0.3,1-0.5,1.4c-0.1,0.2-0.2,0.4-0.2,0.5c0,0.1,0,0.1,0,0.1c0,0,0,0,0.1,0.1c0.1,0.1,0.1,0.2,0.1,0.2
								c0.2,0.5,0.1,1,0.1,1.5c0,0.5,0,0.9,0,1.4c0,0.5,0,0.9,0,1.4c0,0.2,0,0.4,0.1,0.6c0,0.1,0,0.2,0.1,0.2c0,0.1,0.1,0.1,0.2,0.2
								C309.1,319.3,310.6,320.3,312.1,321.3z M312.1,321.3c-1.6-0.9-3.2-1.8-4.7-2.9c-0.1-0.1-0.2-0.1-0.3-0.3
								c-0.1-0.1-0.1-0.3-0.2-0.4c-0.1-0.2-0.1-0.5-0.1-0.7c0-0.5-0.1-0.9-0.1-1.4c0-0.5,0-0.9,0-1.4c0-0.4,0-0.9-0.2-1.3
								c0-0.1,0-0.1,0-0.1c0,0-0.1-0.1-0.1-0.2c-0.1-0.2-0.1-0.4-0.1-0.5c0-0.3,0.1-0.5,0.2-0.8c0.2-0.4,0.4-0.8,0.4-1.2
								c0.1-0.3,0-0.8-0.1-1.2c-0.1-0.4-0.2-0.8-0.4-1.2c-0.1-0.2-0.2-0.4-0.3-0.5c-0.1-0.1-0.1-0.1-0.2-0.2
								c-0.1-0.1-0.2-0.1-0.2-0.2c-0.3-0.3-0.7-0.5-1.1-0.8c-0.4-0.2-0.8-0.5-1.1-0.7c-0.2-0.1-0.4-0.2-0.6-0.3c0,0-0.1-0.1-0.2-0.1
								c-0.1-0.1-0.2-0.2-0.2-0.3c-0.1-0.2-0.1-0.4-0.2-0.5c0-0.6,0.2-1.1,0.4-1.5c0.2-0.4,0.5-0.9,0.8-1.2c0.1-0.2,0.3-0.4,0.5-0.6
								c0.1-0.1,0.2-0.2,0.4-0.3c0,0,0.1,0,0.1,0c0.1,0,0.1,0,0.2,0c0,0,0,0,0,0l0,0c0,0,0,0,0,0c0,0,0,0,0,0c0,0,0,0,0,0
								c0.1-0.1,0.2-0.3,0.3-0.4l0.3-0.6c0.2-0.4,0.4-0.8,0.7-1.2c0.1-0.2,0.3-0.4,0.5-0.6c0.2-0.2,0.4-0.4,0.7-0.6
								c0.3-0.2,0.8-0.2,1.1,0c0.3,0.1,0.5,0.3,0.7,0.4c0.2,0.1,0.3,0.2,0.5,0.3c0.1,0,0.1,0,0.2,0.1l0.1,0c0.1,0,0.2,0,0.3,0
								c0.4,0.1,0.6,0.3,0.8,0.5c0.2,0.2,0.3,0.4,0.5,0.6c0.3,0.4,0.5,0.8,0.7,1.3c0.2,0.4,0.4,0.9,0.5,1.3c0.2,0.4,0.3,0.9,0.5,1.2
								c0,0,0,0.1,0.1,0.1c0,0,0,0.1,0,0.1c0,0,0,0,0,0c0,0,0.2,0,0.4-0.1c0.4-0.1,1-0.2,1.5-0.2c0.3,0,0.6,0,0.9,0.3
								c0.3,0.3,0.4,0.7,0.4,1c0,0.6-0.2,1-0.4,1.5l0-0.1c-0.1,0.8-0.3,1.6-0.5,2.3c-0.1,0.4-0.2,0.8-0.4,1.2
								c-0.1,0.1-0.1,0.2-0.3,0.4c0,0-0.1,0.1-0.2,0.1c0,0-0.1,0-0.1,0l-0.1,0l0,0c0,0,0,0,0,0c-0.1,0-0.2,0.1-0.3,0.3
								c-0.2,0.3-0.5,0.6-0.6,0.9c-0.1,0.2-0.2,0.3-0.2,0.5l0,0.1c0,0,0,0,0,0.1l0,0.3c-0.1,0.8-0.4,1.6-0.8,2.3
								c-0.2,0.4-0.4,0.7-0.7,1c-0.3,0.3-0.6,0.6-1,0.8c-0.3,0.2-0.7,0.4-0.8,0.7c-0.1,0.3-0.2,0.7-0.1,1c0.2,0.7,0.6,1.4,1,2.1
								C311.1,320.1,311.6,320.7,312.1,321.3z"/>
						</g>
					</g>
					<g>
						<path class="st15" d="M316.6,290.1c-0.7,0.7-0.9,1.7-0.9,2.6c0,0.9,0.1,1.9,0.2,2.9c0.2,0.9,0.4,1.9,0.7,2.8
							c0.4,0.9,0.7,1.8,1.6,2.4c-0.5-0.1-1-0.4-1.3-0.8c-0.4-0.4-0.7-0.8-0.9-1.3c-0.5-0.9-0.8-1.9-1-2.9c-0.2-1-0.2-2.1,0-3.1
							c0.1-0.5,0.3-1,0.5-1.5C315.8,290.7,316.2,290.3,316.6,290.1z"/>
					</g>
					<g>
						<path class="st15" d="M321.4,300.8c0.3,0.1,0.6,0.2,0.8,0.3c0.2,0.2,0.5,0.3,0.7,0.5c0.4,0.4,0.8,1,1,1.6
							c0.2,0.6,0.2,1.3,0,1.9c-0.2,0.6-0.5,1.1-1,1.5c0.1-0.6,0.2-1.1,0.2-1.6c0-0.5-0.1-1-0.2-1.5c-0.2-0.5-0.3-0.9-0.6-1.4
							c-0.1-0.2-0.3-0.4-0.4-0.7C321.8,301.3,321.6,301.1,321.4,300.8z"/>
					</g>
					<g>
						<path class="st18" d="M320.9,305.6c0.1,0.6,0.1,1.2,0.1,1.9c0,0.6-0.1,1.2-0.1,1.8c0,0.6,0,1.2,0.1,1.8c0.1,0.6,0.4,1.1,1,1.5
							c-0.6-0.2-1.1-0.7-1.3-1.3c-0.2-0.6-0.3-1.3-0.2-1.9C320.4,308,320.7,306.8,320.9,305.6z"/>
					</g>
					<g>
						<path class="st15" d="M338.5,304c0.1-0.6,0.3-1.1,0.5-1.6c0.2-0.5,0.4-1,0.5-1.4c0.2-0.5,0.4-0.9,0.5-1.4
							c0.1-0.5,0.3-0.9,0.1-1.5c0.3,0.1,0.5,0.4,0.6,0.7c0.1,0.1,0.1,0.3,0.1,0.4c0,0.1,0,0.3,0,0.4c0,0.6-0.2,1.1-0.4,1.7
							c-0.2,0.5-0.5,1-0.8,1.4C339.3,303.3,339,303.7,338.5,304z"/>
					</g>
					<g>
						<path class="st18" d="M341.1,302.9c-0.9,1.2-1.7,2.3-2.5,3.5c-0.4,0.6-0.7,1.2-0.9,1.9c-0.2,0.7-0.4,1.3-0.3,2.1
							c-0.2-0.7-0.2-1.5,0-2.2c0.2-0.7,0.5-1.4,0.9-2C339,304.9,340,303.8,341.1,302.9z"/>
					</g>
					<g>
						<path class="st15" d="M315.6,314.7c-0.3,0.8-0.5,1.6-0.6,2.4c-0.2,0.8-0.3,1.6-0.3,2.4c0,0.8,0,1.5,0.4,2.2
							c0.3,0.7,0.9,1.2,1.7,1.6c-0.8,0-1.8-0.4-2.3-1.2c-0.6-0.8-0.7-1.7-0.7-2.6c0-0.9,0.3-1.8,0.6-2.6
							C314.5,316,314.9,315.2,315.6,314.7z"/>
					</g>
					<g>
						<path class="st18" d="M318.2,320c0.1,1,0.5,1.8,1.2,2.3c0.3,0.3,0.8,0.4,1.2,0.6l0.7,0.2c0.2,0,0.5,0.1,0.7,0.2
							c-0.2,0-0.5,0.1-0.7,0.1c-0.2,0-0.5,0-0.7,0c-0.5-0.1-1-0.2-1.4-0.5c-0.4-0.3-0.7-0.7-0.9-1.2
							C318.1,321,318.1,320.4,318.2,320z"/>
					</g>
					<g>
						<path class="st15" d="M299.1,299.7c0.5-0.1,1.1,0,1.6,0.3c0.5,0.3,0.9,0.9,1,1.5c0.1,0.6,0,1.2-0.1,1.7
							c-0.2,0.5-0.5,1-0.8,1.3c0-0.5,0-1,0-1.5c0-0.5,0-0.9-0.1-1.3c-0.1-0.4-0.2-0.7-0.5-1.1C299.9,300.3,299.5,300.1,299.1,299.7z
							"/>
					</g>
					<g>
						<path class="st18" d="M314,284.3c0.3,0.7,0.2,1.5,0.2,2.2c-0.1,0.7-0.3,1.5-0.5,2.2c-0.3,0.7-0.6,1.4-1,2
							c-0.2,0.3-0.5,0.6-0.8,0.8c-0.3,0.2-0.7,0.4-1.1,0.3c0.4-0.1,0.7-0.3,0.9-0.5c0.2-0.2,0.4-0.5,0.6-0.8
							c0.4-0.6,0.6-1.3,0.9-1.9c0.2-0.7,0.4-1.4,0.6-2.1c0.1-0.3,0.1-0.7,0.2-1.1C314,285,314,284.6,314,284.3z"/>
					</g>
					<g>
						<path class="st18" d="M308.6,291.7c-0.1,0.5,0,0.9,0.1,1.3c0.1,0.4,0.2,0.9,0.3,1.3c0.1,0.4,0.3,0.8,0.4,1.2
							c0.1,0.2,0.2,0.4,0.3,0.6c0.1,0.2,0.3,0.3,0.5,0.4c-0.2,0.1-0.5-0.1-0.7-0.2c-0.2-0.2-0.3-0.3-0.5-0.5
							c-0.3-0.4-0.4-0.8-0.6-1.3c-0.1-0.4-0.2-0.9-0.2-1.4C308.3,292.6,308.4,292.1,308.6,291.7z"/>
					</g>
					<g>
						<path class="st15" d="M324.1,277.9c0.1,0.7,0.2,1.3,0.1,2c0,0.7-0.1,1.3-0.3,2c-0.1,0.3-0.2,0.7-0.4,1
							c-0.2,0.3-0.4,0.6-0.7,0.8c-0.6,0.4-1.3,0.6-1.9,0.7c0.5-0.4,1-0.8,1.4-1.2c0.4-0.4,0.6-0.9,0.7-1.5
							C323.3,280.4,323.5,279.1,324.1,277.9z"/>
					</g>
					<g>
						<path class="st15" d="M343.8,310.9c-0.5,1.6-1.5,3-2.5,4.3c-1,1.3-2.2,2.5-3.5,3.6c-1.3,1.1-2.7,2.1-4.1,2.8
							c-1.5,0.8-3.1,1.4-4.8,1.5c1.6-0.5,3-1.3,4.4-2.2c1.4-0.9,2.6-1.9,3.9-2.9c1.2-1,2.4-2.2,3.6-3.3
							C341.8,313.5,342.9,312.3,343.8,310.9z"/>
					</g>
					<g>
						<path class="st18" d="M337.4,315.2c-0.6,1-1.4,1.8-2.3,2.6c-0.8,0.8-1.8,1.4-2.8,2c-1,0.6-2.1,1-3.2,1.2
							c-1.1,0.3-2.3,0.2-3.4,0.1c0.3,0,0.6,0,0.9-0.1l0.4,0l0.4-0.1c0.3,0,0.6-0.1,0.8-0.1l0.8-0.2c1.1-0.3,2.1-0.7,3.1-1.3
							c1-0.5,1.9-1.2,2.8-1.8c0.4-0.3,0.9-0.7,1.3-1.1C336.6,316,337,315.6,337.4,315.2z"/>
					</g>
					<g>
						<path class="st15" d="M326.2,313.1c0.4,0.4,0.7,0.8,1.1,1.1c0.4,0.3,0.8,0.5,1.2,0.6c0.4,0.1,0.9,0.1,1.4,0.1l0.8-0.1
							c0.3,0,0.5-0.1,0.8-0.1c-0.2,0.2-0.4,0.4-0.7,0.6c-0.2,0.1-0.5,0.3-0.8,0.4c-0.6,0.2-1.2,0.3-1.8,0.1c-0.6-0.2-1.2-0.5-1.5-1
							C326.4,314.2,326.2,313.6,326.2,313.1z"/>
					</g>
					<g>
						<path class="st18" d="M326.2,315.2c0.3,0.3,0.6,0.6,1,0.8c0.2,0.1,0.3,0.2,0.5,0.2c0.2,0,0.4,0.1,0.7,0.1
							c-0.2,0.2-0.4,0.3-0.7,0.3c-0.3,0-0.5,0-0.8-0.1c-0.2-0.1-0.4-0.3-0.5-0.5C326.3,315.7,326.2,315.4,326.2,315.2z"/>
					</g>
					<g>
						<path class="st18" d="M330,279.5c-0.7,0.2-1.5,0.3-2.2,0.4c-0.7,0.2-1.4,0.3-2.1,0.6c0.5-0.5,1.3-0.8,2-1
							C328.5,279.4,329.2,279.4,330,279.5z"/>
					</g>
				</g>
				<g>
					<path class="st14" d="M346.5,323.7c-4.3-1.6-4.8-2.1-8-1.1c-3.2,1.1,4.8,5.9,1.1,3.7c-3.7-2.1-4.8-3.2-4.3-3.7
						s-3.2,1.6-3.2,1.6s-2.7,2.7-3.7,1.1s-1.1-1.1-1.6-1.6c-0.5-0.5-2.1-1.6-3.2-0.5c-1.1,1.1-2.1,2.1-2.1,2.1l-4.3-1.1
						c0,0-1.1-0.5-2.1-0.5s-3.7,0-3.7,0s-2.1,0-3.7,0s-5.3,2.7-4.8,2.7c0.5,0,8.5,1.1,12.3,1.6c3.7,0.5,9.1,2.7,13.9,2.7
						c4.8,0,12.3-1.6,13.3-2.7S346.5,323.7,346.5,323.7z"/>
					<path class="st15" d="M328.9,330.9c-3,0-6.3-0.9-9.2-1.6c-1.7-0.4-3.3-0.9-4.7-1.1c-3.9-0.6-11.7-1.6-12.2-1.6h-0.1l-0.2-0.1
						l0-0.2c0-0.6,3.7-2.9,5.1-2.9h7.5c1,0,2,0.5,2.2,0.5l4.1,1l2-2c0.5-0.5,1.2-0.7,2.1-0.4c0.6,0.2,1.2,0.6,1.5,0.9
						c0.1,0.1,0.2,0.2,0.3,0.2c0.3,0.1,0.5,0.3,1.3,1.4c0.2,0.2,0.4,0.4,0.6,0.4c0.9,0.1,2.3-1.1,2.7-1.5l0.1,0
						c3.3-1.9,3.4-1.8,3.6-1.6c0,0.1,0.1,0.2-0.1,0.4c-0.1,0.1-0.1,0.1-0.1,0.1c0,0.3,0.7,1.1,3.4,2.7c-0.8-0.8-1.4-1.7-1.3-2.3
						c0.1-0.4,0.4-0.7,0.9-0.9c2.9-1,3.7-0.6,6.7,0.5c0.4,0.2,0.9,0.3,1.4,0.5l0.4,0.1l-4.5,4.5
						C341.2,329.3,333.5,330.9,328.9,330.9z M303.2,326.2c1.9,0.2,8.6,1.1,11.8,1.6c1.4,0.2,3,0.6,4.7,1.1c2.9,0.7,6.1,1.6,9.1,1.6
						c4.8,0,12.1-1.6,13.1-2.6l4-4c-0.4-0.1-0.7-0.3-1.1-0.4c-3-1.1-3.7-1.4-6.4-0.5c-0.5,0.2-0.6,0.4-0.6,0.5
						c-0.2,0.8,1.7,2.4,2.4,3c0.5,0.4,0.6,0.5,0.4,0.7c-0.2,0.2-0.2,0.2-1.3-0.5c-3.8-2.2-4.4-3-4.5-3.6c0,0,0,0,0,0
						c-0.6,0.3-1.7,0.9-2.7,1.4c-0.2,0.2-1.8,1.7-3.1,1.6c-0.4,0-0.8-0.2-1-0.6c-0.7-1-0.9-1.1-1.1-1.2c-0.1-0.1-0.3-0.1-0.5-0.3
						c-0.3-0.3-0.8-0.6-1.3-0.8c-0.6-0.2-1.1-0.1-1.5,0.3l-2.2,2.2l-4.5-1.1c0,0-1-0.5-2-0.5h-7.5C306.4,324,304,325.5,303.2,326.2z
						"/>
				</g>
			</g>
		</g>
		<g>
			<path class="st19" d="M412.8,202.5c-6.9,24.9-47.6,77.7-47.6,77.7c32.4-48.7,24.7-84.4,24.7-84.4l5.3-10.6l18.6,6.6L412.8,202.5z
				"/>
			<path class="st20" d="M411.6,202.6c-4.8,23.6-43.6,73.9-43.6,73.9c30.9-46.4,23.5-80.4,23.5-80.4l5-9.4l15.9,6.5L411.6,202.6z"/>
			<g>
				<polygon class="st2" points="403.6,194.2 414.5,197.3 403.4,215.8 392.2,234.3 392.4,212.7 392.6,191.1 				"/>
				<polygon class="st21" points="404.2,191.6 411.5,193.7 404.1,205.9 396.7,218.1 396.8,203.8 397,189.6 				"/>
				<polygon class="st7" points="408.1,177.5 415.3,179.6 407.9,191.8 400.6,204.1 400.7,189.8 400.8,175.5 				"/>
				<path d="M417.8,133.7c0,0-18.8,8.7-22.1,39.3c0,0-16.2-0.6-8.4,28.6l8.4-7.8l14.1,3.8l3.6,9.8c0,0,19.9-22.3,6.1-29.2
					C419.5,178.2,431.1,151.8,417.8,133.7z"/>
				<circle class="st22" cx="413" cy="151.3" r="6"/>
				<circle class="st23" cx="413" cy="151.3" r="4.3"/>
				<path class="st24" d="M412.9,149.4c0.2-0.3,0.7-0.4,1.1-0.3c0.4,0.1,0.7,0.4,0.9,0.7c0.4,0.6,0.6,1.4,0.4,2.1
					c-0.3-0.3-0.5-0.5-0.7-0.8c-0.2-0.3-0.3-0.5-0.5-0.8c-0.2-0.2-0.3-0.4-0.5-0.6C413.5,149.6,413.3,149.4,412.9,149.4z"/>
				<path class="st24" d="M413,148.3c0.4-0.4,1.1-0.5,1.6-0.3c0.6,0.2,1,0.6,1.3,1.1c0.6,0.9,0.9,2,0.8,3c-0.3-0.4-0.6-0.9-0.8-1.3
					c-0.2-0.4-0.5-0.8-0.7-1.2c-0.3-0.4-0.5-0.7-0.8-1C413.9,148.5,413.5,148.3,413,148.3z"/>
			</g>
		</g>
	</g>
</g>
<g id="Layer_3">
	<g>
		<defs>
			<circle id="SVGID_3_" cx="325.9" cy="405.4" r="19.1"/>
		</defs>
		<clipPath id="SVGID_4_">
			<use xlink:href="#SVGID_3_"  style="overflow:visible;"/>
		</clipPath>
		<g class="st25">
			<g>
				<circle class="st26" cx="328.3" cy="407.9" r="29.9"/>
				<path class="st27" d="M358.4,407.9c0,3.9-0.7,7.9-2.1,11.6c-1.4,3.7-3.5,7.2-6.2,10.2c-1.4,1.5-2.9,2.8-4.5,4
					c-0.4,0.3-0.8,0.6-1.3,0.8c-0.4,0.3-0.9,0.5-1.3,0.8c-0.5,0.2-0.9,0.5-1.4,0.7c-0.5,0.2-0.9,0.4-1.4,0.6
					c-3.7,1.6-7.8,2.4-11.9,2.3c-4.1-0.1-8.1-1-11.7-2.7c-3.7-1.7-7-4-9.7-6.9c-2.8-2.8-5-6.2-6.6-9.8c-1.6-3.7-2.5-7.6-2.6-11.6
					c-0.1-4,0.5-8.1,2-11.9c1.5-3.8,3.7-7.3,6.6-10.2c2.8-2.9,6.3-5.3,10.1-6.9c3.8-1.6,7.9-2.4,12-2.4c4.1,0,8.2,0.9,11.9,2.5
					c0.5,0.2,0.9,0.4,1.4,0.6c0.5,0.2,0.9,0.5,1.4,0.7c0.4,0.3,0.9,0.5,1.3,0.8c0.4,0.3,0.8,0.6,1.3,0.9c1.7,1.2,3.2,2.5,4.5,4
					c2.7,3,4.8,6.5,6.2,10.2C357.7,400,358.4,404,358.4,407.9z M358.1,407.9c0-3.9-0.9-7.8-2.5-11.3c-1.6-3.5-4-6.7-6.8-9.2
					c-5.6-5.1-13.1-8.1-20.5-8c-1.9,0-3.7,0.2-5.6,0.5c-1.8,0.4-3.6,0.9-5.4,1.6c-3.5,1.4-6.7,3.5-9.4,6.1
					c-5.4,5.2-8.7,12.6-8.9,20.3c-0.1,3.8,0.5,7.7,2,11.3c1.4,3.6,3.6,6.9,6.4,9.6c1.4,1.3,2.9,2.5,4.5,3.6c1.6,1,3.4,1.9,5.2,2.5
					c3.6,1.3,7.4,1.9,11.2,1.8c3.8-0.1,7.5-0.8,11-2.3c0.4-0.2,0.9-0.4,1.3-0.6c0.4-0.2,0.8-0.4,1.3-0.6c0.4-0.2,0.8-0.4,1.2-0.7
					c0.4-0.2,0.8-0.5,1.2-0.7c1.6-1,3.1-2.2,4.5-3.4c2.8-2.6,5.2-5.7,6.8-9.2C357.3,415.7,358.1,411.8,358.1,407.9z"/>
			</g>
			<g>
				<g>
					<path class="st28" d="M307.1,395.8c0,0,6.8-14,19.7-5.7c12.9,8.3,20.5-3,24.6-1.5c4.2,1.5,2.3,10.2-11.4,8
						C326.4,394.3,321.9,408.6,307.1,395.8z"/>
					<path class="st29" d="M307.1,395.8c0-0.1,0-0.1,0-0.1l0-0.1l0.1-0.2l0.2-0.4c0.1-0.2,0.3-0.5,0.4-0.7c0.3-0.5,0.6-0.9,0.9-1.4
						c0.6-0.9,1.4-1.7,2.2-2.5c1.6-1.5,3.6-2.7,5.8-3.1c1.1-0.2,2.2-0.3,3.4-0.2c1.1,0.1,2.2,0.4,3.3,0.8c1,0.4,2.1,0.9,3,1.5
						l1.4,0.9c0.4,0.3,0.9,0.5,1.4,0.8c1.9,1,4,1.7,6.1,1.9c1.1,0.1,2.1,0.1,3.2-0.1c1.1-0.2,2.1-0.4,3.1-0.8c1-0.4,2-0.8,3-1.3
						c1-0.5,1.9-1,2.9-1.5c0.5-0.2,1-0.5,1.5-0.7c0.5-0.2,1.1-0.3,1.7-0.3c1.2,0,2.3,0.9,2.7,2c0.4,1.1,0.2,2.4-0.4,3.4
						c-0.3,0.5-0.7,1-1.1,1.3c-0.4,0.4-0.9,0.7-1.4,1c-1,0.6-2.1,0.9-3.2,1.1c-1.1,0.2-2.2,0.3-3.3,0.3c-1.1,0-2.2-0.1-3.3-0.2
						c-0.6-0.1-1.1-0.1-1.6-0.2c-0.3,0-0.5-0.1-0.8-0.1c-0.3,0-0.5,0-0.8,0c-1.1,0-2.1,0.1-3.2,0.2c-1,0.2-2.1,0.4-3.1,0.8
						c-2,0.7-4,1.6-6.1,2.4c-2,0.8-4.2,1.4-6.5,1.4c-1.1,0-2.2-0.2-3.3-0.5c-1.1-0.3-2.1-0.8-3.1-1.3c-0.5-0.3-0.9-0.6-1.4-0.8
						c-0.4-0.3-0.9-0.6-1.3-1c-0.4-0.3-0.9-0.7-1.3-1L307.1,395.8z M307.2,395.8c1.7,1.3,3.5,2.6,5.4,3.6c1,0.5,2,0.9,3,1.1
						c1,0.3,2.1,0.4,3.2,0.4c2.1,0,4.2-0.7,6.2-1.5c2-0.8,4-1.8,6.1-2.5c1.1-0.3,2.1-0.6,3.2-0.8c1.1-0.2,2.2-0.2,3.3-0.2
						c0.3,0,0.6,0,0.8,0.1c0.3,0,0.6,0,0.8,0.1c0.6,0.1,1.1,0.2,1.6,0.2c1.1,0.2,2.1,0.3,3.2,0.3c1.1,0,2.1,0,3.2-0.2
						c1-0.2,2.1-0.5,3-1c0.9-0.5,1.8-1.2,2.3-2c0.5-0.9,0.8-1.9,0.4-2.9c-0.2-0.5-0.5-0.9-0.9-1.2c-0.4-0.3-0.9-0.5-1.4-0.5
						c-1-0.1-2.1,0.4-3,0.9c-2,0.9-3.9,2-5.9,2.8c-2.1,0.8-4.3,1.2-6.5,1.1c-2.2-0.1-4.4-0.7-6.4-1.7c-0.5-0.3-1-0.5-1.5-0.8
						l-1.4-0.8c-0.9-0.6-1.9-1-2.9-1.4c-1-0.4-2-0.6-3.1-0.8c-1-0.1-2.1-0.1-3.1,0.1c-2.1,0.4-4,1.4-5.6,2.8
						C309.6,392.2,308.2,393.9,307.2,395.8z"/>
				</g>
				<g>
					<path class="st30" d="M304.5,403.7c0,0,11.7-1.5,11.7,3.8C316.2,412.8,300.7,415.5,304.5,403.7z"/>
					<path class="st31" d="M304.4,403.7c1.5-0.3,2.9-0.5,4.3-0.5c1.4,0,2.9,0.1,4.3,0.6c0.7,0.2,1.4,0.6,2,1.1
						c0.6,0.5,1,1.2,1.2,1.9c0.2,0.7,0.1,1.5-0.3,2.2c-0.3,0.7-0.8,1.2-1.4,1.7c-1.2,0.9-2.6,1.5-4.1,1.7c-0.7,0.1-1.5,0.1-2.3,0.1
						c-0.8-0.1-1.5-0.3-2.2-0.7c-0.7-0.4-1.3-0.9-1.7-1.6c-0.4-0.7-0.6-1.4-0.7-2.2C303.5,406.5,303.8,405,304.4,403.7z
						 M304.5,403.8c-0.3,1.4-0.5,2.8-0.2,4.1c0.1,0.7,0.3,1.3,0.7,1.8c0.4,0.5,0.9,0.9,1.5,1.2c1.2,0.6,2.6,0.7,3.9,0.6
						c0.7-0.1,1.4-0.2,2-0.4c0.7-0.2,1.3-0.5,1.9-0.9c0.6-0.4,1.1-0.8,1.4-1.4c0.3-0.6,0.4-1.3,0.2-2c-0.1-0.3-0.2-0.6-0.4-0.9
						c-0.2-0.3-0.5-0.5-0.8-0.7c-0.6-0.4-1.2-0.6-1.9-0.8C310.2,403.8,307.3,403.8,304.5,403.8z"/>
				</g>
				<g>
					<path class="st32" d="M306.7,416.6c0,0,12.9-1.1,19.3-10.6c6.4-9.5,11.4,3,23.9,1.1c12.5-1.9,0.8,6.8-9.1,3.4
						c-9.9-3.4-20.8,4.9-23.1,14c-2.3,9.1,4.5-6.4,15.2-8.3c10.6-1.9,16.7,3.4,18.6,2.7C353.3,418.1,307.9,448.1,306.7,416.6z"/>
					<path class="st33" d="M306.7,416.6c0.2,0,0.3,0,0.4-0.1c0.1,0,0.3,0,0.4-0.1c0.3,0,0.5-0.1,0.8-0.1c0.5-0.1,1-0.2,1.5-0.3
						c0.5-0.1,1-0.3,1.5-0.4c0.5-0.2,1-0.3,1.5-0.5c1.9-0.7,3.8-1.5,5.6-2.5c1.8-1,3.4-2.3,4.9-3.7c0.7-0.8,1.4-1.5,2-2.3
						c0.6-0.8,1.2-1.7,1.9-2.5c0.7-0.8,1.6-1.5,2.7-1.8c0.5-0.2,1.1-0.2,1.6-0.3c0.6,0,1.1,0.1,1.6,0.2c1,0.3,2,0.7,2.9,1.1
						c0.9,0.4,1.9,0.9,2.8,1.3c1.9,0.9,3.8,1.6,5.8,1.9c1,0.2,2,0.3,3,0.2c1,0,2-0.1,3-0.3c1-0.1,2.1-0.2,3.2-0.1
						c0.3,0,0.5,0.1,0.8,0.1c0.3,0.1,0.6,0.2,0.8,0.4c0.1,0.1,0.2,0.3,0.3,0.5c0,0.2,0,0.4-0.1,0.5c-0.1,0.3-0.3,0.5-0.6,0.7
						c-0.8,0.7-1.8,1.2-2.8,1.5c-1,0.4-2,0.6-3,0.8c-2.1,0.4-4.2,0.4-6.2,0c-0.5-0.1-1-0.2-1.5-0.4l-1.5-0.5c-1-0.3-2-0.4-3-0.5
						c-1-0.1-2,0-3.1,0.1c-1,0.2-2,0.4-3,0.7c-1.9,0.7-3.8,1.7-5.4,2.9c-1.6,1.2-3.1,2.7-4.3,4.3c-1.2,1.6-2.2,3.5-2.8,5.4
						c-0.3,1-0.5,2-0.7,3c0,0.2-0.1,0.5,0,0.7c0,0,0,0.1,0,0.1c0,0-0.1-0.1-0.1,0c0,0,0.1-0.1,0.2-0.1c0.4-0.3,0.7-0.7,1.1-1.1
						c1.4-1.5,2.7-3.1,4.3-4.5c1.5-1.4,3.2-2.7,5-3.8c0.9-0.5,1.9-1,2.9-1.3c0.5-0.2,1-0.3,1.5-0.4c0.5-0.1,1-0.2,1.6-0.3
						c2.1-0.3,4.2-0.3,6.3-0.1c2.1,0.2,4.1,0.7,6.1,1.4c1,0.3,2,0.7,2.9,1.1c0.5,0.2,1,0.3,1.4,0.4c0.2,0,0.4,0,0.5,0
						c0,0,0,0,0.2-0.1c1,0.6,0.1,0.9,0.4,0.8c0,0,0,0-0.1,0.1c-0.1,0.1-0.1,0.1-0.2,0.1l-0.3,0.2c-1.7,1.2-3.5,2.2-5.3,3.2
						c-3.6,2-7.4,3.8-11.3,5.3c-3.9,1.5-7.9,2.7-12.1,3.1c-2.1,0.2-4.2,0.2-6.3-0.3c-2.1-0.4-4-1.4-5.6-2.8
						c-1.5-1.5-2.6-3.4-3.2-5.4c-0.3-1-0.5-2-0.7-3c-0.1-0.5-0.1-1-0.2-1.5l0-0.8l0-0.4C306.7,416.9,306.7,416.7,306.7,416.6z
						 M306.8,416.6c0,0.1,0,0.2,0,0.4l0,0.4l0.1,0.8c0.1,0.5,0.1,1,0.2,1.5c0.2,1,0.4,2,0.7,3c0.6,1.9,1.7,3.8,3.2,5.1
						c1.5,1.4,3.4,2.2,5.4,2.6c2,0.4,4,0.4,6.1,0.2c4.1-0.4,8-1.7,11.8-3.2c3.8-1.5,7.5-3.3,11.1-5.3c1.8-1,3.6-2,5.3-3.2l0.3-0.2
						c0,0,0.1-0.1,0.1-0.1c0,0,0,0,0,0c0.2-0.1-0.6,0.1,0.4,0.7c0.2,0,0.1,0,0,0c-0.4,0.1-0.7,0.1-1,0c-0.6-0.1-1.1-0.3-1.6-0.5
						c-1-0.4-1.9-0.8-2.9-1.1c-1.9-0.7-3.9-1.2-5.9-1.4c-2-0.2-4.1-0.2-6.1,0c-1,0.1-2,0.3-2.9,0.6c-1,0.3-1.9,0.7-2.8,1.2
						c-1.8,1-3.4,2.2-4.9,3.6c-1.5,1.4-2.9,2.9-4.3,4.4c-0.4,0.4-0.7,0.8-1.2,1.1c-0.1,0.1-0.2,0.2-0.5,0.2c-0.1,0-0.1,0-0.2,0
						c-0.1,0-0.2-0.1-0.2-0.2c-0.1-0.1-0.1-0.2-0.1-0.3c0-0.3,0-0.6,0-0.9c0.2-1,0.4-2,0.8-3c1.4-4,4.1-7.3,7.5-9.8
						c1.7-1.2,3.5-2.2,5.5-2.9c2-0.7,4.1-1,6.1-0.9c1,0.1,2.1,0.2,3.1,0.5l1.5,0.5c0.5,0.1,1,0.3,1.5,0.3c2,0.3,4.1,0.3,6.1-0.1
						c1-0.2,2-0.5,2.9-0.9c0.9-0.4,1.9-0.8,2.6-1.5c0.2-0.2,0.3-0.3,0.4-0.5c0.1-0.2,0.1-0.3,0-0.4c-0.1-0.1-0.3-0.2-0.5-0.2
						c-0.2-0.1-0.5-0.1-0.7-0.1c-1-0.1-2,0-3,0.2c-0.5,0.1-1,0.1-1.5,0.2c-0.3,0-0.5,0.1-0.8,0.1c-0.3,0-0.5,0-0.8,0
						c-1.1,0-2.1-0.1-3.2-0.2c-2.1-0.4-4.1-1.1-6-2c-0.9-0.4-1.9-0.9-2.8-1.4c-0.9-0.4-1.9-0.9-2.8-1.1c-1-0.3-1.9-0.3-2.9,0
						c-0.9,0.3-1.7,0.9-2.4,1.6c-0.7,0.7-1.2,1.6-1.9,2.4c-0.6,0.9-1.4,1.6-2.1,2.3c-1.5,1.4-3.2,2.6-5.1,3.7
						c-1.8,1-3.8,1.8-5.7,2.4c-0.5,0.2-1,0.3-1.5,0.4c-0.5,0.1-1,0.2-1.5,0.4c-0.5,0.1-1,0.2-1.5,0.3c-0.3,0-0.5,0.1-0.8,0.1
						c-0.1,0-0.3,0-0.4,0C307,416.6,306.9,416.6,306.8,416.6z"/>
				</g>
			</g>
		</g>
	</g>
</g>
</svg>
