<?xml version="1.0" encoding="utf-8"?>
<!-- Generator: Adobe Illustrator 24.0.1, SVG Export Plug-In . SVG Version: 6.00 Build 0)  -->
<svg version="1.1" id="Layer_1" xmlns="http://www.w3.org/2000/svg" xmlns:xlink="http://www.w3.org/1999/xlink" x="0px" y="0px"
	 viewBox="0 0 792 612" style="enable-background:new 0 0 792 612;" xml:space="preserve">
<style type="text/css">
	.st0{fill:#FAFAFA;}
	.st1{fill:#804CCD;}
	.st2{fill:#7945C6;}
	.st3{fill:#8854D6;}
	.st4{fill:#7E4ACB;}
	.st5{fill:#824ECF;}
	.st6{fill:#7C48C9;}
	.st7{fill:#7A46C6;}
	.st8{fill:#7743C4;}
	.st9{fill:#8652D4;}
	.st10{fill:#7743C3;}
	.st11{fill:#8B58D9;}
	.st12{fill:#7D49C9;}
	.st13{fill:#834ED0;}
	.st14{fill:#7541C1;}
	.st15{fill:#8450D1;}
	.st16{fill:#8551D2;}
	.st17{fill:#F2F2F2;}
	.st18{fill:#8E5ADB;}
	.st19{fill:#F3F3F3;}
	.st20{fill:#EFEFEF;}
	.st21{fill:#F0F0F0;}
	.st22{fill:#ECECED;}
	.st23{fill:#EEEBF2;}
	.st24{fill:#FEFEFE;}
	.st25{fill:#7541C2;}
	.st26{fill:#733FBF;}
	.st27{fill:#5924A5;}
	.st28{fill:#461B84;}
	.st29{fill:#EBEBEB;}
	.st30{fill:#E7E7E8;}
	.st31{fill:#E4E4E4;}
	.st32{fill:#DEDCE0;}
	.st33{fill:#5924A6;}
	.st34{fill:#EAEAEA;}
	.st35{fill:#E4E3E5;}
	.st36{fill:#ECECEC;}
	.st37{fill:#EDEDED;}
	.st38{fill:#DCDBDE;}
	.st39{fill:#E2E2E2;}
	.st40{fill:#6531B0;}
	.st41{fill:#703CBC;}
	.st42{fill:#6E3AB9;}
	.st43{fill:#6733B3;}
	.st44{fill:#6B37B7;}
	.st45{fill:#6D39B9;}
	.st46{fill:#6B37B6;}
	.st47{fill:#733EBF;}
	.st48{fill:#6935B5;}
	.st49{fill:#6835B4;}
	.st50{fill:#6D3AB9;}
	.st51{fill:#5623A0;}
	.st52{fill:#451B81;}
	.st53{fill:#D8D8D9;}
	.st54{fill:#DDDDDD;}
	.st55{fill:#D9D9D9;}
	.st56{fill:#CFCDD3;}
	.st57{fill:#D3D1D7;}
	.st58{fill:#5823A3;}
	.st59{fill:#D6D5D7;}
	.st60{fill:#D0CFD0;}
	.st61{fill:#DCDCDC;}
	.st62{fill:#54229D;}
	.st63{fill:#4D1F91;}
	.st64{fill:#52219A;}
	.st65{fill:#DBDBDB;}
	.st66{fill:#6431B0;}
	.st67{fill:#461B83;}
	.st68{fill:#491C89;}
	.st69{fill:#491D89;}
	.st70{fill:#4B1E8D;}
	.st71{fill:#4C1E8E;}
	.st72{fill:#C9C5CE;}
	.st73{fill:#3C1771;}
	.st74{fill:#421A7D;}
	.st75{fill:#3F1877;}
	.st76{fill:#502096;}
	.st77{fill:#401979;}
	.st78{fill:#3E1873;}
	.st79{fill:#3A166E;}
	.st80{fill:#4E1F92;}
	.st81{fill:#4A1D8C;}
	.st82{fill:#622FAE;}
	.st83{fill:#451B83;}
	.st84{fill:#602DAC;}
	.st85{fill:#622EAE;}
	.st86{fill:#5F2BAA;}
	.st87{fill:#5F2BAB;}
	.st88{fill:#471B85;}
	.st89{fill:#4D1E90;}
	.st90{fill:#3B1770;}
	.st91{fill:#39166B;}
	.st92{fill:#41197A;}
	.st93{fill:#3F1977;}
	.st94{fill:#38166A;}
	.st95{fill:#351564;}
	.st96{fill:#32145F;}
	.st97{fill:#39166A;}
	.st98{fill:#3B176F;}
	.st99{fill:#31135C;}
	.st100{fill:#401978;}
	.st101{fill:#381569;}
	.st102{fill:#371567;}
	.st103{fill:#421A7C;}
	.st104{fill:#481C88;}
	.st105{fill:#5D2AA9;}
	.st106{fill:#5A26A5;}
	.st107{fill:#461B85;}
	.st108{fill:#2E1258;}
	.st109{fill:#5623A1;}
</style>
<g>
	<path class="st0" d="M166.7,268.9c1.2-2.8,0.7-5.2-1.2-7.8c-7.7-10.5-11.2-22.1-7.8-35.2c2.7-10.5,9.2-18.6,17.7-24.6
		c10.2-7.3,20.8-14,31.1-21.2c9.6-6.7,19.6-12.7,29.3-19.2c21-14.2,41.9-28.4,63.2-42.2c17.6-11.4,34.6-23.8,52.1-35.4
		c6.2-4.2,13.6-6.1,20.7-8.2c9.3-2.8,18.7-4.6,28.5-4c7.1,0.4,13.8,2.9,20.6,4.5c11.2,2.6,20.7,8.5,30.1,14.9
		c17.2,11.7,34.7,23,51.9,34.6c14.1,9.5,28.1,19.2,42.2,28.7c7.3,4.9,14.9,9.3,22,14.4c18.2,13.2,38.4,23.6,55.3,38.5
		c10,8.8,18,27.7,9.5,43.6c-1.8,3.3-3,7-5.5,10c-3,3.6-2.2,7,0.5,10.4c10.5,12.7,10.9,32.6,0.9,45.6c-5.2,6.8-4.4,6.5,0.2,13.9
		c6.5,10.4,9.8,21.6,5,34.4c-5.3,13.9-16.2,21.7-27.6,29.4c-12.4,8.3-24.9,16.4-37.1,24.9c-7.1,4.9-14.3,9.5-21.6,14
		c-4.8,3.1-10.2,5.5-14,10c-1,0.3-2,0.7-3,1c-4.2,3.2-8.8,5.8-13,9c-1,0.7-2,1.3-3,2c-4.3,3-9,5.5-13,9c-3.8,2.1-7.3,4.7-11,7
		c-2.6,1.3-4.7,3.3-7,5c-5.3,2.8-10.1,6.5-15,10c-10.5,6.4-20.2,14-31,20c-1,0.7-2,1.3-3,2c-6.1,1.8-12.1,3.8-18,6c-0.3,0-0.7,0-1,0
		c-7.3,0.3-14.5,1.8-21.8,1.6c-3.1-0.1-6-1.5-9.1-0.6c-0.3,0-0.7,0-1,0c-4.1-1.8-8.8-1.3-13-3c-0.3,0-0.7,0-1,0
		c-2.6-1.3-5.1-2.6-8-3c-4.6-2.1-8.7-5.1-13.3-7.3c-1.4-0.7-3.4-1.5-2.7-3.9c2.2-1,3.7,0.4,5.4,1.4c2.7,1.5,5.2,3.3,8.2,4.3
		c9.3,5.2,19.4,7.6,29.9,8.2c12.7,0.8,25.1-0.2,37.2-4.7c8-3,15.4-6.9,22.1-12.2c23-15.9,46.4-31.1,69.5-46.8
		c11.1-7.5,22.2-15.1,33.4-22.5c10.8-7.1,21.5-14.4,32.2-21.6c7.7-5.2,15.4-10.3,23.1-15.5c6.5-4.4,12.7-9,17.5-15.3
		c10.1-11.5,10.2-28.3,0.2-41.7c-5.6-7.5-5.5-9.5,0.4-16.9c8.8-11.1,9.1-28,0.7-40c-0.9-1.2-1.8-2.4-2.7-3.6
		c-3.2-4.5-3.2-6.7-0.1-11.3c3.8-5.7,7.6-11.3,8.6-18.3c1.8-13.3-3.1-24-12.8-32.8c-1.8-1.2-3.2-2.8-5.3-3.5
		c-5.4-2.3-9.6-6.6-14.8-9.3c-6.2-4.6-12.8-8.6-19.2-12.9c-5.9-4.1-11.7-8.2-17.7-12c-2-1.5-4.1-2.9-6.2-4.2
		c-2.8-2.3-6.3-3.8-9.3-5.8c-4.8-4.4-10.5-7.4-15.7-11.1c-2.7-2.6-6.5-3.3-9.2-5.9c-2.5-2.7-5.7-4.3-8.7-6.3
		c-2.8-2.3-6.1-3.8-9.3-5.7c-3.1-2.7-6.5-5-9.9-7.2c-4.5-3.4-10.2-4.7-14.2-8.9c-6.5-6-14.7-9.7-21.6-15.2
		c-7.3-4.7-14.2-9.8-21.7-14.1c-25.9-13.3-51.8-12.7-77.7,0c-7.5,4.3-14.3,9.6-21.5,14.3c-8.5,5.4-16.7,11.2-25.1,16.7
		c-2.9,2.1-6.1,3.9-8.9,6.2c-2.7,2.5-6,4.2-9.1,6.1c-3.2,1.7-6.1,3.8-9,6.1c-2.9,3-7,4.4-10.3,6.8c-4.1,2.5-8,5.3-12,8
		c-5.1,3.1-9.8,6.9-14.9,10c-3.9,2.8-8,5.3-11.9,8.2c-5,3.3-10,6.7-15,10c-8.4,5.5-16.7,11.1-25,16.8c-5.7,3.9-11.7,7.3-16.8,12
		c-1.7,1.7-3.4,3.4-5.4,4.8c-9.3,6.7-13.2,27.2-7.2,36.3c2.3,3.6,3.9,7.7,6.8,10.9c2.9,3.1,3.1,6.5,0.2,9.8c-1.5,1.2-2.7,2.7-4,4.2
		c-1.1,1.3-2.1,3.1-4.3,2.2C162,272.2,165.9,271.2,166.7,268.9z"/>
	<path class="st0" d="M344.7,497.8c2.8,4.2,8,5,11.7,7.8c1.4,1.1,3.5,1.3,4.3,3.2c-6.1-1-10.7-5-15.7-8.1c-9.7-6-19-12.6-28.4-19
		c-13.1-8.9-26.2-17.9-39.3-26.8c-7.5-5.1-15.1-10.1-22.7-15.2c-13.3-8.9-26.7-17.8-40-26.7c-10.7-7.1-21.6-14.1-32.1-21.5
		c-9.7-6.8-19-14-23.2-25.8c-5-13.8-3-26.4,6.1-37.8c2.7-3.3,3.1-5.5,0.3-9c-8.1-10.3-11-22-7.9-35c0.3-1.4,0.7-2.5,2.1-3.2
		c0.2,0.2,0.4,0.4,0.6,0.6c0.6,1,0.7,2.2,0.8,3.3c0.2,5.9,0.1,11.8,0.1,17.7c0.5,6.3,3.2,11.4,8.1,15.5c4.4,3.8,4.7,6.2,1.1,10.4
		c-14.6,17.3-12,37.7,5,52.3c9.8,8.4,20.9,14.7,31.5,21.9c18.1,12.3,36.2,24.7,54.7,36.6c4.4,2.9,8.5,6.3,13.2,8.8
		c20.7,15,42,29,63.4,42.9C340.8,492.6,344.4,493.8,344.7,497.8z"/>
	<path class="st0" d="M436.7,505.8c10.1-7,19.8-14.7,31-20C457.9,493.4,448.2,501,436.7,505.8z"/>
	<path class="st0" d="M383.7,514.8c0.7-0.3,1.5-1.1,2.1-0.9c9.3,2.1,18.5,0.2,27.7-0.9c0.3,0,0.8,0.5,1.2,0.8
		C404.4,516.2,394.1,516.7,383.7,514.8z"/>
	<path class="st0" d="M532.7,442.8c3.1-5.6,8.3-8.1,14-10C542.8,437.3,537.2,439.3,532.7,442.8z"/>
	<path class="st0" d="M467.7,485.8c4-4.8,9.2-7.9,15-10C477.9,479.5,473.5,483.7,467.7,485.8z"/>
	<path class="st0" d="M415.7,513.8c5.6-3.3,11.6-5.1,18-6C427.9,510.5,422.1,513,415.7,513.8z"/>
	<path class="st0" d="M516.7,452.8c3.8-3.8,7.9-7.2,13-9C526.4,448.3,521.4,450.4,516.7,452.8z"/>
	<path class="st0" d="M500.7,463.8c3.4-4.4,7.9-7.1,13-9C510.3,459.1,505.2,461,500.7,463.8z"/>
	<path class="st0" d="M166.7,268.9c0,2.8-3.8,3.9-3,7c0,0.2-0.1,0.5-0.1,0.7c-1.1,1.6-1.1,4.2-3.9,4.3
		C160.2,275.8,162.5,271.8,166.7,268.9z"/>
	<path class="st0" d="M489.7,470.8c2.8-3.7,6.7-5.7,11-7C497.3,466.6,494.3,470,489.7,470.8z"/>
	<path class="st0" d="M369.7,511.8c4.5,0.3,9,0.5,13,3C378.4,513.5,373.5,515.1,369.7,511.8z"/>
	<path class="st0" d="M482.7,475.8c1.8-2.4,3.3-5.2,7-5C488,473.4,485.6,474.9,482.7,475.8z"/>
	<path class="st0" d="M360.7,508.8c3.2-0.4,5.9,0.6,8,3C365.7,511.8,363.2,510.1,360.7,508.8z"/>
	<path class="st1" d="M245.6,159.8c4.8-3.7,9.6-7.2,14.9-10c5.1-2,10.6-1.4,15.8-1.3c37.2,0.6,74.5-0.6,111.7,0.1
		c13,0.3,25.9-0.6,38.9-0.1c12.8,0.5,25.6-0.4,38.3,0.7c7.9,0.7,15.9-1,23.9-0.6c12.4,0.6,24.9-0.1,37.4-0.6c1.2,0,2.3,0.2,3.3,0.8
		c5.5,3.4,11.2,6.5,15.9,11c-6.1,2.7-12.5,1.2-18.7,1.3c-19.8,0.3-39.6-0.1-59.4,0c-19.6,0.2-39.2,0.2-58.8,0.3
		c-14.6,0.1-29.2,0-43.8-0.2c-16-0.2-32-0.1-47.9,0.1c-20.6,0.2-41.2,0.2-61.8,0C252,161.3,248.5,161.9,245.6,159.8z"/>
	<path class="st2" d="M578.8,181.8c6.6,3.9,13.1,8,19.1,12.9c-4.3,4.3-10,3.5-14.9,3.1c-10.5-0.8-20.9-0.3-31.3,0.3
		c-6,0.4-11.9-0.7-17.9-0.7c-13.9-0.1-27.9,1.1-41.8-0.1c-7-0.6-14-0.4-20.9,0.7c-4.6,0.7-8.9-0.7-13.4-0.7
		c-10.3,0.1-20.6,0.1-30.9,0.4c-1,0-2,0-2.9-0.5c-2-4.2-2.9-8.7-2.9-13.4c3.6-4.1,8.4-3.3,12.9-3.2c16.7,0.3,33.5,0.7,50.2,0.2
		c9.9-0.3,19.9,0.6,29.8,0c7.3-0.4,14.6-0.3,21.9-0.4c7.3-0.2,14.5,0.6,21.8,0.4c5.3-0.2,10.6,0.3,15.9,0.2
		C575.3,180.9,577.1,180.8,578.8,181.8z"/>
	<path class="st3" d="M309.5,116.8c8-6.2,16.6-11.4,25-17c6.2,1,12.4-0.1,18.5-0.3c8.8-0.3,17.6,1.8,26.6-0.2
		c5.9-1.4,12.7,0.4,19.1,0.8c4.5,0.3,8.9,0.8,13.3-0.8c0.9-0.3,2-0.8,2.9-0.5c5.5,2.1,11.2,0.1,16.7,1c4.7,0.7,9.2,0.9,13.8-0.6
		c3.8-1.2,7.6,0.2,11.3,0.6c7.4,4.9,15.2,9.1,21.8,15.1c-2.4,3.4-6.2,3-9.5,2.9c-15.3-0.6-30.6,0.3-45.9-0.1
		c-12.6-0.3-25.2-0.5-37.8-0.2c-12.9,0.3-25.9-0.3-38.8,0.3c-8.8,0.4-17.6-0.3-26.4-0.9C316.6,116.7,313,118.8,309.5,116.8z"/>
	<path class="st4" d="M245.6,159.8c2.8,0,5.6,0.1,8.4,0.1c10.7,0,21.4,0,32.1,0c24.4,0,48.7-0.3,73.1,0.1c16,0.2,32.1-0.3,48.2,0.3
		c8.3,0.3,16.8,0.5,25.1-1c2.5-0.5,5.2,0.6,7.8,0.6c15.9,0.1,31.9,0,47.8,0c13.1,0,26.3,0.2,39.4-0.1c6.1-0.1,12.1-0.2,18.1,0.1
		c3.2,1.8,6.7,3.1,9.3,5.9c-2.3,1.9-5,1.5-7.6,1.5c-24.3-0.3-48.5,0.1-72.8-0.1c-20.3-0.1-40.5-0.6-60.8,0.1
		c-3.4,0.1-6.9-1.5-10.3,0.3c-1.1,0.4-2.3,0.5-3.4,0.5c-3.8-0.7-7.5-1.7-11.2-3c-7.5-1.3-15-1.7-22.5,0.7c-6.6,1.6-12.8,5-19.7,5.7
		c-2.3-1.3-4.9-1-7.3-1c-31.3,0-62.5-0.4-93.8,0.1c-4.1,0.1-8.4,0.7-11.8-2.7C237.3,164.7,241.3,162.1,245.6,159.8z"/>
	<path class="st5" d="M529.8,148.9c-9.2,1.7-18.5,0.5-27.6,1.2c-11,0.9-21.9-0.9-32.9,0.6c-6.5,0.9-13.4-0.6-20.1-0.7
		c-12.6-0.2-25.2-0.4-37.7,0.1c-13.6,0.6-27.3,0.4-40.8,0.2c-19.7-0.3-39.5-0.2-59.2-0.1c-9.1,0.1-18.3,0.6-27.3,0.2
		c-7.9-0.3-15.8,1-23.6-0.6c3.7-3.1,7.7-5.8,12-8c5.4-0.5,10.9-1.4,16.3-0.2c0.7,0.1,1.4,0.4,2,0.3c8.4-2.2,16.8-0.5,25.3-0.7
		c5.8-0.1,11.6-0.7,17.4-0.5c17.1,0.5,34.2-0.3,51.3,0.3c8.6,0.3,17.2-1.5,25.9,0.2c4.7,0.9,9.6-0.4,14.4-0.6
		c14.3-0.6,28.5,1.9,42.8,0c6.4-0.9,12.9,0.9,19.4,0.5c9.1-0.4,18.3-0.8,27.4,0c2.2,0.2,4.3,0.3,6.1,1.7
		C523.4,145.3,527.4,145.9,529.8,148.9z"/>
	<path class="st6" d="M578.8,181.8c-7.1,0.9-14.3,0.3-21.4,0.2c-6.9-0.1-13.9-1-20.4-0.4c-6.5,0.6-13-0.1-19.5,0.5
		c-5,0.5-10.6,1.2-16.1,0c-5.5-1.1-11.4,0.1-17.1-0.1c-7-0.3-13.9,1.2-21.1,0.4c-4.3-0.5-9-0.9-13.6-0.3c-4.2,0.5-8.7,1.1-13.1,0.2
		c-5.1-1.1-10.1-0.8-14.8,1.8c-4.1-2.9-7.3-6.4-8.6-11.3c1.3-3.5,4.3-3.6,7.4-3.7c14.9-0.5,29.8,0.7,44.8-0.1
		c8.9-0.5,17.9,0.4,26.8,0c8.6-0.4,17.2,0.3,25.8,0.3c10.3,0,20.5-1.6,30.8,0c4,0.6,8.2-0.9,12.3,0.5
		C567.2,173.4,573.1,177.4,578.8,181.8z"/>
	<path class="st7" d="M193.6,194.8c8.1-6.1,16.5-11.8,25.2-16.9c20.1,2.7,40.3,1.1,60.5,1c10.3-0.1,20.7-0.3,31,0.7
		c4.4,0.4,8.6-1.1,12.9-0.6c3,0.3,6.3,0.5,5.5,5.1c-5.5,5.7-12.4,9.4-18.9,13.6c-1.3,0.8-2.8,1-4.3,0.4c-7.1-1.1-14.3-1.3-21.4-1
		c-7,0.3-14,0.5-21,0.3c-15.8-0.3-31.6-0.2-47.4,0.1c-6.2,0.1-12.3-1.2-18.4-1.2C195.8,196.3,194.5,196,193.6,194.8z"/>
	<path class="st8" d="M423.2,196.7c10.8-1.3,21.8-1.4,32.6-0.7c12.5,0.8,25-1.1,37.5-0.2c14.8,1.1,29.7-0.7,44.5,0.2
		c9.2,0.6,18.5,0.6,27.5,0.1c9.8-0.6,19.6,1.8,29.3-0.4c1.1-0.3,2.2-0.7,3.3-1.1c5.3,2.3,9.5,6.5,14.6,9.2c1.3,0.5,1.9,1.3,1,2.7
		c-2.1,2.1-4.8,1.9-7.5,1.8c-12.5-0.5-25,0.7-37.4,0.2c-13.8-0.5-27.6,0.4-41.4-0.1c-14.8-0.6-29.6,0.4-44.4-0.1
		c-1.1,0-2.3,0-3.4,0.6c-2.7,0.8-4.8-0.8-7.1-1.8c-3.8-1.6-7.7-3-11.6-4.6c-7.4-2.6-14.8-1.6-22.3-0.8c-4.9,1.3-9.6,3.1-14.7,3.9
		c-3.9-0.6-2.4-3.5-2.4-5.8C421.6,198.7,421.7,197.3,423.2,196.7z"/>
	<path class="st9" d="M309.5,116.8c10.1-2.4,20.3-0.7,30.5-0.3c7.1,0.3,14.3-0.3,21.4-0.2c4.4,0.1,8.8-0.5,13.3,0.3
		c3.4,0.6,7.4-1.7,9.9-1c4.9,1.3,9.5,0.1,14.1,0.2c12.6,0.4,25.3,0.7,37.9,0.6c11.1-0.1,22.3-0.9,33.4,0.1c2.7,0.2,6-0.1,8.6-1.7
		c4,3.9,10,4.9,13.9,9c-1.9,2.3-4.7,2.5-7.3,2.4c-17.6-0.9-35.2,0.8-52.8-0.4c-6.7-0.4-13.6-0.5-20.3,0.2c-7.8,0.8-15.5-0.6-23.4,0
		c-9.9,0.8-19.8,0.2-29.7,0.1c-13.3-0.1-26.6,0.7-39.9,0.1c-3.8-0.2-7.6,0.4-11.5,0.1c-2.8-0.2-5.7-0.3-7.1-3.5
		C303.2,120.3,306.4,118.6,309.5,116.8z"/>
	<path class="st10" d="M193.6,194.8c10.4,0,20.8,2.2,31.2,0.9c8.7-1,17.4,0,26-0.3c9-0.3,18.2,0.6,27.2,0.2
		c7.8-0.4,15.6,0.2,23.4,0.2c2,0,4.1-0.4,5.2,1.9c0.1,1.3-0.5,2.2-1.5,3c-5.4,3.9-10.8,7.6-16.3,11.3c-0.4,0.3-1,0.1-1.4,0
		c-3.6-2.1-7.4-2.8-11.5-2.4c-14.1,1.6-28.2,0.2-42.2,0.5c-13.1,0.3-26.2-0.2-39.3,0c-3.5,0.1-7,0.3-10.4,0.1
		c-2.8-0.2-5.6-0.7-7.4-3.4C181.6,201.8,187.5,198.3,193.6,194.8z"/>
	<path class="st11" d="M456.9,99.8c-0.8,0.3-1.6,1.1-2.3,0.9c-8-2.2-15.7,1.7-23.9,0.8c-6.8-0.7-14.3-2.9-21.6,0.1
		c-3,1.2-6.9,0.8-10.3-0.2c-2.5-0.7-5-0.9-7.4-0.1c-2.3,0.8-4.2,0.4-6.2-0.6c-2.2-1.1-4.5-1-6.7-0.1c-4.6,2-9.3,2-14,0.1
		c-1.2-0.5-2.1-0.4-3.3,0c-3.3,1.1-6.6,1.1-10,0.3c-1.6-0.4-3.2-1.7-4.8-0.7c-4.1,2.6-7.9,1.6-11.7-0.4c7-4.8,13.7-9.9,21.2-13.9
		c4.3-0.8,8.6-0.3,12.9-0.4c21.2-0.6,42.4,0.2,63.7-0.2c1.2,0,2.3,0,3.4,0.6C443.2,89.8,450,94.9,456.9,99.8z"/>
	<path class="st12" d="M327.7,184c1.3-3.1-1.3-3.5-3-3.7c-2.4-0.3-4.8,0.4-7.2,0.4c-8,0.2-15.9,1-23.8-1.5c-2.3-0.7-4.2,2.1-7,1.8
		c-12.8-1.5-25.7-0.1-38.6-0.4c-8.1-0.2-16.3,0.1-24.4-0.4c-2-0.1-3.4-1.2-4.9-2.2c4.6-3.9,9.6-7.2,14.9-10c12,2,24.1,1,36.2,0.5
		c2.8-0.1,5.6,0.4,8.4,0.4c20.9,0,41.8,0.1,62.7,0c2.6,0,4.9,0.4,6.9,2.1c0.2,0.8-0.3,1.2-0.9,1.6c-1.4,0.5-2.8,1.1-3.8,2.4
		c-3.6,3.6-8.3,5.6-12.3,8.7C329.9,184.4,328.8,184.9,327.7,184z"/>
	<path class="st13" d="M520.6,142.9c-5-0.2-10.1-0.1-15.1-0.5c-10.8-0.9-21.5,1.8-32.3-0.3c-2.2-0.4-4.7-0.4-7-0.1
		c-9.2,1.2-18.3,0.8-27.5,0.1c-7.6-0.6-15.4-0.4-23.1,0.6c-2.8,0.3-5.7,0.4-8.4-0.2c-3.5-0.8-7-0.8-10.4-0.5
		c-11.1,1.1-22.1,0.5-33.2,0.2c-5.3-0.1-10.7-0.3-16.1,0.6c-4,0.6-7.9-0.2-11.8-0.4c-10.6-0.7-21.1,2-31.7-0.3
		c-2.2-0.5-4.6-0.3-6.9,0.6c-3.5,1.3-7,1.1-10.7,0.2c-4.6-1.2-9.5,1.4-14.1-1c3.4-2.3,6.8-4.6,10.2-6.9c5.3-0.2,10.5,0,15.8,0.1
		c16.4,0.4,32.9,0.2,49.3,0.4c25.8,0.3,51.5-0.2,77.3,0.1c13.9,0.2,27.9-0.6,41.9-0.7c7.8-0.1,15.6,0.1,23.4,0.4
		c2.5,0.1,5,0.5,7.5-0.1c4.9-1.1,9.6-0.2,14.1,1.7C515.1,138.5,518.2,140.3,520.6,142.9z"/>
	<path class="st14" d="M176.6,206.9c6.3,2.7,12.9,1.6,19.5,1.6c7,0,14,0.1,21,0.3c17.3,0.4,34.7,0.1,52,0.1c4.9,0,9.7-1.9,14.8-0.3
		c2.2,0.7,3.6,1.7,5,3.3c5.1,0.1,8.3,3.7,11.7,6.8c0.9,0.8-0.1,1.7-1,2.2c-11.3-0.1-22.5,0.6-33.8,0.6c-19.8,0-39.6-0.2-59.4,0.1
		c-10.3,0.1-20.6,0.1-30.9-0.1c-2.7,0-5.3,0.3-7.7,1.6c-3.1-0.8-1.9-2.8-1.2-4.5c1.2-3,3.3-5.2,5.4-7.6
		C173.5,209.6,175.1,208.2,176.6,206.9z"/>
	<path class="st15" d="M511.9,136.8c-8-2-16.2-0.3-24.1-0.2c-8.3,0.1-16.7-1.9-25,0.2c-4.5,1.1-9.1-0.6-13.7-0.2
		c-6.9,0.7-13.8,0.3-20.7,0.3c-13.1,0.2-26.2,0-39.4,0.1c-10.5,0.1-21-0.5-31.6,0.6c-3.9,0.4-7.7-1-11.7-1
		c-15.8,0.1-31.7,0.5-47.5-0.5c-5.1-0.3-10.4,1.5-15.4-1.3c2.7-2.5,5.7-4.4,9-6c10.6,0.7,21.2,0.8,31.7,0.3c4.5-0.2,9,0.5,13.5,0.3
		c21.1-1,42.3-0.1,63.4-0.5c9.8-0.2,19.6,0.7,29.4,0.3c10.8-0.4,21.6,0.4,32.4,0.1c11.6-0.4,23.2,0.4,34.8,0c2-0.1,3.9,0.8,5.7,1.5
		C505.9,132.6,509.2,134.2,511.9,136.8z"/>
	<path class="st16" d="M502.6,130.9c-9.1-0.5-18.3-0.3-27.4-0.4c-8.2-0.1-16.7,0.3-25,0.3c-12.9,0.1-25.8,0.5-38.6-0.1
		c-11.8-0.6-23.5,0.5-35.3,0c-13.3-0.6-26.6,0.7-39.8,0c-10.5-0.6-21.1,1.5-31.6-0.7c-1.5-0.3-3.3,0.3-4.8,0.9
		c-3.4,1.5-6,0.2-8.4-2.1c3-2,5.9-4,8.9-6c2.6,1.6,5.4,2.2,8.6,2.1c10.3-0.1,20.6,0.5,30.8-0.2c8-0.5,16.1,1.3,24.1-0.7
		c2.4-0.6,5.2,0.9,7.8,0.8c8.1-0.5,16.3,0.5,24.4-0.9c3.6-0.6,6.8,1.5,10.4,0.9c8.3-1.3,16.8-0.8,25.1-0.6c10.4,0.3,21,1,31.3,0.4
		c9.9-0.6,19.8,1.8,29.6-0.7C496.3,125.7,499.7,128,502.6,130.9z"/>
	<path class="st4" d="M560.9,169.8c-5.2,0.8-10.2,2.1-15.7,0.4c-3.4-1.1-7.5-0.2-11.2,0c-10.8,0.6-21.6,0.3-32.5,0.2
		c-6.1-0.1-12.4-0.6-18.6,0.3c-4.8,0.7-9.8,0.2-14.7-0.5c-3.5-0.5-6.5,1-9.8,0.8c-13.2-0.4-26.4-0.6-39.6-0.7
		c-2.4,0-5.1,0.5-5.4,3.9c-3.8,0.5-5.7-2.5-8.4-4.3c-0.9-1-2.2-1.6-2.5-3.1c1.5-1.6,3.2-1.9,5.4-1.8c10.3,0.6,20.5,1,30.9,0.3
		c3.9-0.3,7.9,0.5,11.8,0.5c28,0,56,0,84,0c6.7,0,13.5-0.1,20.2-0.1C557.1,166.9,559.3,167.9,560.9,169.8z"/>
	<path class="st17" d="M274.7,448.8c-7.2-1.9-11.9-7.6-17.9-11.4c-15.3-9.7-30.8-19.3-45.5-30c-12.7-9.2-26.9-16.3-38.4-27.1
		c-11.6-10.9-18.5-26.8-9.1-44.4c1.7-3.1,3.1-6.1,5.7-8.6c3.3-3.1,3-6.1-0.9-8.5c-3.6-3.3-5.4-7.7-7.4-12c-0.5-1-0.7-2.2-1.6-3
		c0-6.7,0-13.3,0-20c1.9-2.4,2.1-5.6,4-8c0,0,0,0,0,0c3.3-1.4,3.9-5.5,7-7c0.6,0.6,0.7,1.3,0.7,2.1c-1,3.9-2.9,7.3-4.6,10.9
		c-3.5,12.2-2.7,23.4,6.5,33.2c4.1,4.4,4.1,6.1,0.8,11.8c-2.5,4.2-5.2,8.3-7.2,12.7c-6,9.6-3.3,25,5.1,34.2
		c5.4,5.9,11.9,10.2,18.3,14.6c11.8,8.1,23.7,16,35.8,23.7c11.5,8.3,23.9,15.4,35.2,23.9c3.2,3.3,7.2,5.5,11.1,7.8
		c0.4,0.2,0.8,0.5,1.2,0.7c1,1.5,3.9,1.8,3.2,4.6C275.9,449.4,275.3,449.4,274.7,448.8z"/>
	<path class="st18" d="M435.7,85.9c-10.9,2-21.9,0.5-32.8,1c-7.5,0.3-15.1,0.4-22.5,0.2c-8.2-0.2-16.5,1.6-24.6-1.1
		c8.1-5.6,17.2-8.3,26.8-9.5c16-1.9,31.8-1.1,46.8,5.7C431.6,83.2,434,83.9,435.7,85.9z"/>
	<path class="st19" d="M617.6,206.9c12.3,10.1,17.1,24.1,12.9,38.8c-1.5,5.4-4.5,10.3-8,14.7c-2.5,3.1-2.7,5.8-0.2,8.8
		c7.3,8.6,10.6,18.4,9.3,29.8c-0.8,6.5-3.6,12-7.6,16.8c-4.5,5.4-4.6,8.3-0.2,13.9c10,12.5,11.3,28.4,2.5,41.4
		c-0.7,1.1-1.9,1.8-2.8,2.7c-0.6-0.5-0.8-1.2-0.8-1.9c0.7-3,2.2-5.7,3.6-8.3c1.2-1.3,1.9-2.9,2.3-4.6c0.1-0.4,0.2-0.9,0.4-1.3
		c0.4-3.4,0.5-6.8-0.2-10.2c-0.1-0.4-0.2-0.9-0.3-1.3c-0.2-1.7-0.4-3.5-1.9-4.7c-1.5-1.7-1.3-4.3-3.1-5.9c-2.6-3.5-5.5-6.8-7-11
		c-0.7-3.6,0.6-6.4,3-9c9.6-10.8,11-24.2,4.2-37.4c-2-3.5-5.1-6.2-6.2-10.2c-0.8-4,0.2-7.4,2.8-10.5c2.2-2.5,4-5.2,5-8.5
		c0.2-0.5,0.4-0.9,0.6-1.4c4.7-9.4,4.2-18.5-1.9-27.2c-0.4-0.3-0.7-0.7-1-1c-1.6-3.7-4.7-6.6-6.3-10.3
		C616.9,208.1,617.1,207.4,617.6,206.9z"/>
	<path class="st20" d="M550.7,425.8c-6.9,5.6-14.3,10.4-21.6,15.3c-13.5,9.1-26.9,18.2-40.4,27.2c-8.6,5.8-17.4,11.4-26,17.1
		c-4.7,3.1-8.8,7.1-13.9,9.5c-0.6,0.5-1.3,0.6-2,0.2c0-3.8,4-3.9,5.8-6.1c1.2-1.5,3.1-2.5,4.8-3.6c1.8-1,3.7-1.9,5.1-3.5
		c5.5-4.8,12.1-8.1,18.1-12.3c15-10.6,30.6-20.3,45.8-30.7c5.9-4,12.1-7.5,17.6-12c2-1.4,3.9-3.3,6.7-2.4
		C551,424.9,551,425.3,550.7,425.8z"/>
	<path class="st19" d="M274.7,448.8c0.7,0,1.3,0,2,0c4.6-0.5,7,3.4,10.2,5.3c11.4,6.8,22.2,14.6,33.3,21.9
		c11.9,7.8,23.6,16.1,35.6,23.8c1,0.6,1.9,1.3,2.3,2.6c0,0.5-0.1,1-0.4,1.4c-3.4,0.1-5.5-2.5-8.2-3.8c-1.6-0.8-2.9-2-4.8-2.2
		c-5.1-5.8-12.2-8.9-18.5-13.1c-14.3-9.8-28.9-19.2-43.3-28.9C280,453.8,277.4,451.1,274.7,448.8z"/>
	<path class="st21" d="M550.7,425.8c0-0.3,0-0.7,0-1c-1.3-2.2,0.7-2.9,1.9-3.8c17.2-11.6,34.1-23.4,51.7-34.4
		c5.3-3.3,9.8-7.3,14.1-11.7c1.4-1.4,2.6-3.6,5.2-3.1c0,0.7,0,1.3,0,2c-2.5,4.9-6.9,8.1-11.2,11c-17.3,11.9-34.7,23.6-52.3,35.1
		C557.1,422,555,425.9,550.7,425.8z"/>
	<path class="st22" d="M170.7,270.7c0-0.6,0-1.2,0-1.9c3-3.2,2.3-5.8-0.4-9.1c-11.9-14.1-13.1-28.7-3.1-44.6
		c1.1-1.8,2.6-3.5,4.8-4.2c-1.6,4.1-5.4,7.1-5.5,11.9c-0.1,0.4-0.2,0.8-0.3,1.2c-0.4,1.7-0.2,3.4-0.5,5.1c-0.1,0.5-0.2,0.9-0.3,1.4
		c-0.8,9.7,1.9,18.3,8.1,25.8c1.8,2.1,4.1,4,3.8,7.2C175.9,266.6,174.9,270.1,170.7,270.7z"/>
	<path class="st17" d="M357.7,503.8c0-0.3,0-0.7,0-1c1.5-1.2,3-0.3,4.4,0.2c5,2.9,10.5,4.1,16.1,5c9.9,2.1,19.9,3.1,30,1
		c1.7-0.6,3.6-0.4,5.3-1c1.7-0.5,3.4-0.4,5-1c2.2-0.5,4.6-0.7,6.6-1.8c1.5-0.5,2.9-1.1,3.9-2.4c0.5-0.5,1.1-0.8,1.8-1
		c3.5-0.7,6.5-2.3,9.2-4.5c1.9-1.5,3.8-3.4,6.6-2.5c0.7,0,1.3,0,2,0c-8.1,7.8-18.1,11.9-28.6,14.9c-19.1,5.5-37.9,3.9-56.6-2.2
		C361.2,506.8,359.4,505.4,357.7,503.8z"/>
	<path class="st23" d="M617.6,206.9c0,0.7,0,1.4,0,2c-2.3,0.3-3.3-1.1-3.9-3.1c-0.4-0.6-0.9-1.2-1.3-1.9
		C614.9,203.6,615.8,206.2,617.6,206.9z"/>
	<path class="st0" d="M159.7,303.8c3.6,3.1,4.1,8.1,7,11.7c0.8,1,1.3,2.2,2,3.3C163.3,315.3,161.5,309.6,159.7,303.8z"/>
	<path class="st0" d="M163.7,275.9c-1.3,2.7-0.5,6.4-4,8c0-1,0-2,0-3C161.6,279.6,161.4,276.7,163.7,275.9z"/>
	<path class="st24" d="M405.6,169.2c2.7,1.7,5.3,3.3,8,5c2.9,3.1,5.9,6.2,8,9.9c0.5,4.2,3,8.1,1.7,12.6c-0.8,0.9-0.6,2-0.6,3
		c-0.6,1.8-1.5,3.5-2.1,5.4c1.4,0.6,2.4,0.2,3.5-0.1c4.5-1.3,9-2.7,13.6-4c8-1,16.1-1.4,24,0.8c5.7,2.2,11.7,4,17,7.2
		c7.2,1.6,10.8,7.5,14.9,12.8c1.4,2.4,2.4,5,3.2,7.6c0.5,2.6,0.4,5.2,0.2,7.8c-1,5.6-4.3,10.1-7.3,14.7c-3.7,4.4-7.9,8.1-12.5,11.5
		c-5.7,4.1-11.8,7.8-17.5,11.9c-0.5,0.4-1.1,0.8-1.7,1.1c-1.7,0.9-3.4,1.8-4.9,3.1c-1.4,1.1-2.9,2-4.3,3.1
		c-6,3.9-11.9,7.9-17.8,11.9c-1.1,0.7-2.4,1.3-3.3,2.2c-4.7,4.6-9.3,4.1-14,0c-1.4-1.2-2.9-2.2-4.6-3c-0.4-0.2-0.8-0.5-1.2-0.7
		c-4-3.1-8.4-5.7-12.5-8.6c-3.3-2.4-6.8-4.5-10.3-6.7c-2.4-2.1-5.1-3.7-7.8-5.4c-6.4-4.2-12.5-8.8-19-12.8c-5.8-4.3-12-8-17.9-12.2
		c-6.9-4.9-14-9.5-21.3-13.8c-4.2-4-9.4-6.6-14-9.9c-1.6-1.1-3.6-1.8-4.2-3.9c-3.6-3.2-7.7-5.6-11.9-8.1c3.2-5.3,9.3-6.9,13.8-10.6
		c1.3-1.1,2.8-2.1,4-3.4c7.6-3.8,14.3-8.8,21-13.8c5.3-2.9,10.2-6.3,15-10c1-1.2,2.7-1.3,4-2.1c0.4-0.3,0.7-0.6,1.1-1
		c5.7-2.8,12-4,17.9-6.1c7.5-2.4,15.2-1.1,22.9-1.3c0.7,0,0.7,0.5,1,0.9c3.4,0.8,6.7,1.7,10.1,2.5
		C401.6,167.8,404,167.5,405.6,169.2z"/>
	<path class="st1" d="M389.6,164.4c-8-1.3-15.9-0.6-23.9,0.4C373.6,161.9,381.6,161.8,389.6,164.4z"/>
	<path class="st1" d="M405.6,169.2c-2-0.8-4-1.5-5.9-2.3c1,0,2,0,3,0C403.8,167.5,405.2,167.7,405.6,169.2z"/>
	<path class="st25" d="M492.6,222.1c-3.8-5.2-8.6-9.5-13.9-13.1c0.2-1.3,0.8-2.1,2.3-2.1c1.2,0,2.3,0,3.5,0
		c10.5-0.1,20.9,0.6,31.4,0.2c11.1-0.4,22.3,1.3,33.2,0.4c9.5-0.8,18.9,0.3,28.4-0.4c9.8-0.7,19.7-0.1,29.6,0.1
		c2.4,0,4.6-0.3,6.7-1.3c1.3,1,2.6,2.1,3.9,3.1c2.2,3.2,5.2,5.9,6,9.9c-1.4,1.8-3.3,2-5.4,1.9c-16.7-0.7-33.4,0-50.2,0.3
		c-6.4,0.1-12.9-0.1-19.3-0.5c-8.4-0.4-16.8,0.2-25.3,0c-8.4-0.2-16.9-0.7-25.3,0C496.1,220.8,494.3,220.9,492.6,222.1z"/>
	<path class="st2" d="M461.7,201.8c-8-1.3-16-1.1-24-0.8C445.7,199.3,453.7,198.7,461.7,201.8z"/>
	<path class="st2" d="M424.1,205c-1.8,1.2-3.6,2-6.4,1.7c2.6-2,3.2-4.8,5-6.9C423.8,201.3,419.8,204.3,424.1,205z"/>
	<path class="st1" d="M346.7,171.9c-1.1,1.1-2.5,1.8-4,2.1C343.4,172.1,345,171.8,346.7,171.9z"/>
	<path class="st26" d="M300.8,219.9c6.5,4,13.2,7.8,18.8,13c-0.4,0.3-0.8,0.7-1.3,0.7c-8.1,0-16.4,1.7-24.3,0.3
		c-6.6-1.2-12.9,0-19.3-0.1c-22.6-0.2-45.2,0.6-67.8,0.1c-11.3-0.2-22.6,0.4-33.9-0.1c-3.8-0.2-4.6,2.6-6,5c-2.4,0.2-2-1.8-2.1-3
		c-0.2-2-0.4-4,0-5.9c0.2-0.3,0.2-0.5,0-0.8c1.1-1.9-0.4-4.3,1-6.2c0.2-0.1,0.4-0.1,0.6-0.1c1.5-2.6,3.5-3.1,6.6-3.1
		c32.7,0.2,65.4,0.1,98.1,0.2C281.1,219.9,290.9,218.4,300.8,219.9z"/>
	<path class="st27" d="M170.7,270.7c2-2.3,4-4.5,6-6.8c0.5-0.4,0.9-0.3,1.4,0.1c1.2,3.1,3.7,5.2,6.3,6.9c7.6,5,14,11.1,20.3,17.5
		c0.3,0.4,0.7,0.7,1,1.1c2.5,2.7,5.6,5.7,3.9,9.5c-1.8,4-6.1,2.6-9.8,2.7c-10.6,0.1-21.2-1.8-31.7,0.4c-5-3.5-3.2-9-3.6-13.6
		c-0.2-2.3,0.2-5.2,1.3-7.6C167.5,277.5,169.1,274.1,170.7,270.7z"/>
	<path class="st28" d="M165.9,338.9c1.5-4.5,4.3-8.2,6.8-12.2c1.9-1.3,2.4-4.8,5.8-3.7c4.7,5.8,11.7,9.4,15.8,15.9
		c0.8,1.3,1.8,2.4,2.4,3.8c2.8,6.9,1.2,9.1-6.1,8.5c-5.7-0.4-11.3,0-17-0.1c-2.6,0-5.3,0.5-7.9-0.8c-0.9-0.7-1.5-1.6-1.8-2.7
		C163.8,344.5,165.1,341.7,165.9,338.9z"/>
	<path class="st29" d="M361.7,503.8c-1.3-0.3-2.7-0.7-4-1c-8.4-5.6-16.8-11.1-25.1-16.7c-13.3-8.9-26.5-17.9-39.8-26.8
		c-5.3-3.6-10.7-7-16.1-10.5c-1.2-1.5-3.3-2-4-4c3.7-1.3,5.4,2.5,8.4,3c0.4,0.2,0.8,0.4,1.2,0.7c2.1,2,4.3,3.8,7.2,4.6
		c11.2,7,22.3,14.1,32.9,22.1c12.9,9,25.5,18.2,39.4,25.8c1.2,0.7,3.6,0.6,2.8,3.2C363.5,504.4,362.6,504.4,361.7,503.8z"/>
	<path class="st30" d="M165.9,338.9c-0.4,2.9-0.7,5.8-1.1,8.7c1.9,7.1,1.8,14.7,6.6,21c2.7,3.6,6.3,6.3,8.8,10
		c0.9,1.4,1.9,2.6,3.3,3.4c0.4,0.2,0.8,0.5,1.1,0.8c5.5,3.7,10.9,7.6,16.6,11.1c0.4,0.2,0.8,0.5,1.1,0.7c1.5,1.4,3.1,2.5,5,3.3
		c0.4,0.2,0.8,0.5,1.1,0.7c1.4,1.3,3.1,2.4,4.9,3.3c0.4,0.2,0.7,0.4,1.1,0.7c1.1,1,2.3,1.9,3.6,2.6c1.2,0.7,2.3,1.3,3.3,2.1
		c1.5,1.8,4.8,2.2,4.4,5.5c-11.4-5.7-21.3-13.7-31.9-20.6c-8-5.2-16-10.4-22.7-17.5C162.4,365.6,159,348.7,165.9,338.9z"/>
	<path class="st31" d="M225.7,412.8c-0.8-2.5-4-2.7-5-5c4.6-1.4,6.8,3,10.3,4.3c15.2,10.3,30.2,21,45.7,30.8c1.9,1.2,4,2.4,5.2,4.5
		c0.1,0.5,0.1,0.9-0.2,1.4c-3.8,0.4-5.6-3.6-9-4h0c-4-2.7-8-5.3-12-8c-11.3-7.5-22.5-15-33.8-22.5
		C226.4,414,226.1,413.3,225.7,412.8z"/>
	<path class="st32" d="M177.6,322.5c-1.6,1.4-3.3,2.8-4.9,4.2c4.1-4.9,2.1-8.4-1.9-12.5c-7.6-7.8-8-17.7-6.6-27.8
		c0.3-1.8-0.3-4.1,1.7-5.5c-0.5,7.3-1.6,14.6,2.8,21.2c0.7,0.4,1,1,1.2,1.7c1.3,3.9,4.2,6.7,6.6,9.8c1.8,2.3,4.1,4.6,2.2,8
		C178.4,322,178,322.3,177.6,322.5z"/>
	<path class="st29" d="M260.7,436.8c4.7,1.6,8.6,4.5,12,8C268,443.2,264,440.6,260.7,436.8z"/>
	<path class="st26" d="M492.6,222.1c-0.2-1.9-0.5-3.8,2.5-3.2c7.3,1.5,14.9,0.6,22.1,0.3c7.9-0.3,15.7,1.3,23.6,0
		c7.5-1.2,15.4-0.5,23,0.5c5.4,0.7,10.7-0.9,16.2-0.6c12.8,0.6,25.6-1.1,38.3,0.4c1.7,0.2,3.6-0.4,5.3-0.7c0.2,0.1,0.5,0.1,0.7,0.1
		c1.8,2.1,2.1,5,3.3,7.4c0.3,2.9,0.9,5.7-0.7,8.4c-0.5,0.4-1,0.5-1.7,0.5c-4.9-1.1-9.9-1.3-14.9-1.1c-10,0.3-19.9-0.1-29.9,0
		c-12.6,0.1-25.2,0.1-37.9,0.1c-13.8,0-27.6-0.2-41.3,0.1c-1.5,0-3-0.1-4.3-0.9c-1.7-1,0.2-3.5-1.7-4.5
		C494.4,226.7,493.5,224.4,492.6,222.1z"/>
	<path class="st33" d="M618.6,268c1.9,3,3.9,6,5.8,9c1.9,5.6,4.9,10.9,2.2,17.1c-5.4,1.4-10.7,2.2-16.5,0.9c-4-0.9-8.4,0.9-12.7,0.3
		c-6.3-0.8-6.8-2-4.2-7.7c3.3-7.2,9.5-11.3,15-16.3c2.1-1.9,4.3-3.6,5.8-6c0.8-1,1.8-0.7,2.7-0.2C617.7,265.7,617.9,267,618.6,268z"
		/>
	<path class="st28" d="M617.5,325.1c2.2,3.3,4.4,6.6,6.6,9.8c2.5,2.4,1.8,6.2,3.6,8.9c0.1,2.5,0.9,5.1-1.4,7.1
		c-7.3-0.8-14.5-0.2-21.8,0c-3.3,0.1-7.5,0.5-9.1-2.7c-1.7-3.5,0-7.4,2.5-10.6c4.2-5.6,10.2-9.5,14.8-14.7c1.2-1,2.4-0.6,3.6,0.1
		C617,323.7,617.3,324.4,617.5,325.1z"/>
	<path class="st34" d="M623.7,371.8c-6.1,4.6-10.7,10.7-17.2,14.9c-18.2,11.7-36.1,23.8-54.1,35.7c-0.9,0.6-1.6,1.2-1.6,2.3
		c-2.3,0.4-4.3,1.3-6,3c-0.6,0.6-1.3,0.5-2.1,0.2c-0.6-2.6,1.5-3.5,3-4.6c14.8-10.1,29.7-20.1,44.7-29.9c7.5-4.9,14.9-10,21.8-15.7
		c6.9-5.8,12.9-12.5,13.3-22.4c0.2-3.5,2.7-6.5,1.8-10.1c0-0.5,0.1-1,0.2-1.4c2-0.8,1.4,1.4,2.3,2c0,0.3,0,0.7,0,1c0.8,4,0.8,8,0,12
		l0,0c-0.9,1.6-1.2,3.4-2,5C626.3,366.5,625,369.2,623.7,371.8z"/>
	<path class="st30" d="M617.5,325.1c-0.3-0.3-0.7-0.6-1-0.9c-3.5-3.9-3.6-5.3,0.1-9.6c4.3-5,7.7-10.3,7.7-17.1
		c0.1-1.4,0.3-2.7,1.4-3.6c2.3-5.9-0.2-11.4-1.3-17c5.1,9,7,18.5,2.9,28.3c-1.9,4.5-4,9.2-8,12.4C616.8,319.7,618,322.6,617.5,325.1
		z"/>
	<path class="st35" d="M616.6,266c-0.6-0.3-1.3-0.6-1.9-0.9c-0.5,0.2-1,0-1.4-0.4c-0.4-0.7-0.6-1.4-0.7-2.2
		c-0.1-3.4,2.5-5.2,4.4-7.4c5.1-5.9,7-13.3,9.6-20.4c0-2.9-0.1-5.9-0.1-8.8c2.1-0.4,1.9,1.2,2.2,2.4c1.6,6.7,1.1,13.3-2,19.6
		c0,0.3,0,0.7,0,1c-1.8,3.1-3.4,6.5-6.1,9C618.2,260.1,618,263.3,616.6,266z"/>
	<path class="st23" d="M626.7,247.9c1.3-6.6,3.4-13.2,1-20c-0.3-0.8-0.4-1.6-1.2-2c-0.7-2.3-1.4-4.6-2.1-6.9
		c5.8,5.2,6.4,12.2,5.8,19.2C630,241.4,630.2,245.5,626.7,247.9z"/>
	<path class="st23" d="M616.6,266c-0.3-2.9,0.6-5.3,2.6-7.6c2.7-3,5-6.4,7.4-9.6c-0.5,2.8-1.9,5.2-3.7,7.3c-3,3.4-5.2,7.1-4.3,11.8
		C617.9,267.3,617.3,266.7,616.6,266z"/>
	<path class="st21" d="M629.6,358.8c0-4,0-8,0-12C631.2,350.8,631.2,354.8,629.6,358.8z"/>
	<path class="st34" d="M626.6,343.8c-0.8-3-1.7-5.9-2.5-8.9c3.1,0.8,1.7,4.3,3.5,5.9c0.7,1,0.9,2,0,3l0,0
		C627.3,344.3,627,344.3,626.6,343.8z"/>
	<path class="st21" d="M627.7,343.8c0-1,0-2,0-3c2.3,1,2,3.1,2,5C629,345.2,628.3,344.5,627.7,343.8z"/>
	<path class="st21" d="M627.6,363.8c-0.1-2,0.4-3.7,2-5C629.7,360.8,629.2,362.5,627.6,363.8z"/>
	<path class="st36" d="M542.7,427.8c0.7,0,1.3,0,2,0c-11.5,7.7-23,15.5-34.5,23.2c-11.4,7.7-22.8,15.3-34.2,23
		c-4.4,2.9-8.8,5.8-13.3,8.7c-0.4,0.4-0.8,0.4-1.2,0c-0.3-1.1,0.2-1.9,0.8-2.7c4.6-4.3,10.2-7.2,15.1-10.9c3.1-2,6.4-3.7,9.2-6.1
		c15.5-10,30.8-20.4,45.9-31c1.9-1,3.6-2.2,5.4-3.4C539.2,427.8,540.7,426.4,542.7,427.8z"/>
	<path class="st37" d="M446.7,494.8c-4.4,1.3-7.1,5.2-11.3,7c-1.6,0.7-3.1,1-4.7,1c-0.5-1.4,0.4-2.3,1.4-2.8
		c7.7-4.3,14.9-9.2,22.2-14.1c0.8-0.6,1.8-0.8,2.9-0.5c0.2,0.1,0.4,0.3,0.6,0.4C454.5,489.4,450.3,491.7,446.7,494.8z"/>
	<path class="st37" d="M461.7,482.8c0.3,0,0.7,0,1,0c-1.1,2-2.9,2.6-5,3c0,0,0,0,0,0C457.6,482.9,459.3,482.4,461.7,482.8z"/>
	<path class="st38" d="M177.8,264.1c-0.3-0.1-0.7-0.2-1-0.2c-0.2-2.6-1.9-4.4-3.7-6.2c-6.5-6.8-8.7-15.2-9.3-24.2
		c-0.1-1.3-0.3-2.7,1-3.6c1.4,2.9-0.1,6.4,1.9,9.1c2.9,3.5,4.2,8.1,7.6,11.3c2.2,2.2,4.3,4.5,6.8,6.5c1.2,0.9,2.4,1.8,2.1,3.6
		c-0.3,0.9-1,1.4-1.7,1.9c-0.5,0.4-1,0.7-1.5,1.1C179.3,263.7,178.6,264.1,177.8,264.1z"/>
	<path class="st38" d="M165.8,222.9c-0.2,2.1,0.2,4.2-1,6.2C164.9,227,163.9,224.7,165.8,222.9z"/>
	<path class="st39" d="M461.7,482.8c-1.5,0.8-3.3,1.2-4,3c-7.1,2.8-12.7,8.1-19.2,11.9c-2.6,1.5-6,2.1-7.8,5.1c-0.3,0.3-0.7,0.7-1,1
		c-0.8,0.7-1.8,0.9-2.8,1c-4.2,1.7-8.8,2.2-13.2,3.5c-0.5,0.2-1,0.4-1.6,0.4c-11.2,2-22.5,1.7-33.7-0.1c-1.5-0.6-3.2,0-4.8-0.7
		c-1.9-1.4-4.1-1.7-6.4-2.2c-1-0.5-2.8,0.1-2.6-2c-15.2-7.9-29.3-17.7-43-28c0.4-0.4,0.8-0.6,1.4-0.7c2.4-0.1,4,1.4,5.8,2.6
		c9.9,6.7,19.6,13.8,30.2,19.5c9.2,4.9,19,7.4,29.5,8.5c12.9,1.4,25.1-1,37.1-5.1c7.6-2.6,14-7.5,20.8-11.7
		c4.8-2.9,8.8-7.1,14.1-9.1c0.8,0,1.6,0.3,2.1,1C462.3,481.5,462,482.1,461.7,482.8z"/>
	<path class="st37" d="M408.7,509.8c-3,2.1-6.7,1.5-9.9,1.7c-7.1,0.4-14.3-0.2-21.1-2.7c0.3-0.1,0.5-0.3,0.8-0.4
		c9.8,1.3,19.6,0.9,29.5,0.9C408.2,509.4,408.4,509.6,408.7,509.8z"/>
	<path class="st37" d="M364.7,503.8c0.7,1.2,1.9,1,3,1c1.8,1.2,4,1.3,6,2c1.1,1.5,2.6,0.9,4,1c0.3,0.2,0.4,0.4,0.3,0.7
		c-0.1,0.2-0.2,0.3-0.3,0.3c0,0,0,0,0,0c-5.8-0.3-11.3-1.3-16-5C362.7,503.8,363.7,503.8,364.7,503.8z"/>
	<path class="st37" d="M425.7,505.8c-1.9,2.3-4.5,2-7,2c-0.1-0.2-0.1-0.5-0.2-0.7c2.1-0.8,4.2-1.9,6.6-1.8
		C425.3,505.5,425.5,505.6,425.7,505.8z"/>
	<path class="st37" d="M426.7,503.8c1,0,2,0,3,0c-0.7,1.8-2.3,2.1-4,2l0,0C425.1,504.6,426.1,504.3,426.7,503.8z"/>
	<path class="st37" d="M418.7,507.8c-1.4,1.7-3.3,0.8-5,1c-0.1-0.2-0.3-0.3-0.4-0.5c0.1-0.2,0.3-0.3,0.4-0.5l0,0
		C415.4,507.1,417,506.7,418.7,507.8L418.7,507.8z"/>
	<path class="st37" d="M413.7,508.8c-1.4,1.7-3.3,0.8-5,1l0,0C409.9,507.2,411.9,508.4,413.7,508.8L413.7,508.8z"/>
	<path class="st40" d="M413.8,295.8c6.4,6.5,11.4,1,16.6-2.1c2.6-1.3,5.3-2.2,8.1-2.1c8.9,0.6,17.9-0.2,26.9,0.2
		c6.9,0.3,13.9,1.1,20.8-0.1c2.3-0.4,4.7-0.6,7-0.3c8.9,1.1,17.8,0.2,26.7,0.1c8.4-0.1,16.9-0.4,25.3,0.4c3.9,0.4,7.9-1.6,11.8,0.1
		c1.9,1.5,0.4,2.8-0.6,3.5c-3.6,2.6-6.8,5.7-11.4,6.5c-16.9,0.2-33.8,1.9-50.8,0.3c-7.1-0.7-14.2,1.2-21.4,0.6
		c-10.8-0.9-21.6-0.1-32.3-0.1c-8.5,0-16.9-0.3-25.4,0.1c-9.1,0.3-18.2-0.2-27.4-0.2c-18.3,0-36.6,0.2-54.8-0.1
		c-13.8-0.2-27.5,1.8-41.3-0.2c-7.4-1.1-14.9,1-22.4,0.5c-7.1-0.5-14.3-1-21.4-0.1c-2-0.1-3.8-1-5.4-2.1c-2.2-1.9-5-2.9-7-5
		c-0.9-0.9-3.2-1.9-0.6-3.6c14.1-0.3,28.2-0.1,42.4,0.1c8.6,0.2,17.3-0.8,25.9-0.2c8.8,0.6,17.6-1,26.4,0.2c4.3,0.6,8.7,0,12.9-0.2
		c14.1-0.6,28.2,0.4,42.3-0.1c8-0.3,16.2-0.2,24.3,0.7l-0.1-0.1C410,294.4,412.2,294.6,413.8,295.8z"/>
	<path class="st41" d="M173.7,251.1c-3.3-3.5-6.2-7.2-7-12.1c0.1-6.5,1.2-7.4,8.1-6.2c6.1,1.1,12.1-0.5,18.2-0.1
		c7.8,0.5,15.7,0.2,23.5,0.3c10.2,0.1,20.5,0.9,30.6-0.2c9.3-1,18.5,0.7,27.9-0.4c8.7-1.1,17.8,0.9,26.7,0.5c6-0.3,12-0.4,18,0.2
		c7.5,4.1,14.6,8.7,21.2,13.9c-3.4,2.6-7.4,1.8-11.1,1.7c-13-0.4-26-0.6-38.9-0.4c-18.3,0.4-36.6-0.1-54.9,0.5
		c-7.6,0.3-15.3-0.8-22.9-0.1c-10.2,0.9-20.2,0.1-30.3-0.6C179.2,247.7,176.1,248.3,173.7,251.1z"/>
	<path class="st42" d="M173.7,251.1c-1-3-0.4-4.2,3.2-4.4c7.1-0.4,14.1-0.1,21.1,1c4.1,0.7,7.9-0.9,11.8-0.9c15.9,0,31.8-0.1,47.7,0
		c10.7,0,21.5-0.9,32.1-0.6c12.9,0.4,25.9,0,38.8,0.6c4.1,0.2,8.3-0.1,12.4-0.1c6.3,3.6,12.3,7.5,17.9,12c-1.3,2.7-4,2.9-6.4,3
		c-9.4,0.4-18.9-0.4-28.3-0.1c-8.8,0.3-17.5,0-26.3,0.1c-8.4,0.1-16.8,0.8-25.2-0.4c-0.8-0.1-1.7-0.4-2.5-0.2
		c-8.2,2-16.5-0.3-24.8,0.9c-5.8,0.8-11.8-0.6-17.9-0.2c-13.4,0.8-26.8-0.3-40.2,0.4c-1.1,0-2.2-0.1-3.3-0.5
		c-0.5-0.2-0.9-0.6-1.2-1.1C180.8,256.4,175.7,255.2,173.7,251.1z"/>
	<path class="st41" d="M496.7,232.9c9.8-0.5,19.6-0.8,29.3-0.5c14,0.5,28.1,0,42.1,0.4c12.5,0.4,25,0.3,37.6,0
		c5.3-0.1,10.5,0,15.8,0.1c1.7,0,3.9-0.6,4.3,2.1c0.6,6.2-3.3,13.9-7.7,15.2c-4-0.9-8,0.3-11.9,0.1c-15.4-0.6-30.9-0.1-46.4-0.1
		c-21.1,0-42.2-0.5-63.3-0.1c-2.9,0.1-5.1,2.5-8,1.7c2.8-4.5,5.8-8.8,7.3-13.9C497,236.4,495.4,234.4,496.7,232.9z"/>
	<path class="st43" d="M408.9,292.7c-7.2,1.6-14.4,0.8-21.7,0.6c-5.9-0.2-12.1,0-18.1,0.3c-1.2,0-2.4,0.5-3.5,0.2
		c-9-1.8-18.1-0.4-27-0.4c-8.1,0-16.4-0.2-24.6,0.1c-7.4,0.3-15,0.5-22.6-0.3c-4.9-0.5-10.2,1-15.3,0.5c-8.8-0.8-17.6,0.2-26.4-0.6
		c-5.2-0.4-10.7,0.6-16-0.3c-0.9,0.8-1.9,0.6-2.8,0.1c-3.8-2.4-7.6-4.8-11.1-7.6c-1-0.8-2.1-1.9-0.9-3.4c1.3-1.3,3-1.6,4.6-1.4
		c3.7,0.3,7.3-0.3,11-0.1c14.3,0.7,28.6-0.4,42.9-0.1c21.9,0.5,43.8,0.1,65.7,0.4c13.3,0.2,26.6,0.2,39.9-0.4
		c4.7-0.2,8.8,1.3,12.9,3.4C400.5,286.5,405,289.1,408.9,292.7z"/>
	<path class="st44" d="M185.8,260.9c11.5-1.9,23,0.3,34.6-0.6c6.8-0.5,14.1-1.8,21.1,0.4c3.4,1.1,7-1.5,10.3-0.8
		c8.1,1.8,16.3,0,24.5,0.3c7.5,0.3,15.5,1.9,23.1-0.4c0.5-0.1,1-0.2,1.5-0.1c8.8,2.1,17.9,0.7,26.6,0.4c10.4-0.3,21.1,2.9,31.3-1.4
		c6.8,3.8,13.1,8.3,19.3,12.9c-1.6,1.8-3.9,2.4-5.9,2c-4.5-0.9-8.9,0-13.4-0.2c-13.8-0.6-27.6,0-41.3-0.5
		c-8.3-0.3-16.6,0.7-24.9-0.4c-5.3-0.7-10.9,0.5-16.4,0.4c-14.2-0.1-28.5-0.2-42.7,0.1c-9.6,0.2-19.2-1.2-28.7,0.8
		c-0.8,0.2-1.6,0.2-2.3-0.2c-4.4-3.2-9-6-13.5-9.2C187.6,263.8,185.4,263.3,185.8,260.9z"/>
	<path class="st45" d="M488.3,251.8c5.6-5.5,12.9-2.2,19.3-3.2c2.4-0.3,5.2,0,7.8-0.4c7.1-1.2,14.1,1.2,21.2,0.7
		c12.2-0.9,24.4,0.5,36.5-0.2c11.5-0.7,22.8,0.8,34.2,0.2c2.3-0.1,4.6,0.2,6.9-0.7c1.9-0.8,3.6-0.2,4.5,1.9c0.3,1-0.2,1.7-0.7,2.5
		c-1.5,1.6-3.1,3.1-4.6,4.7c-0.5,0.5-1,0.9-1.5,1.4c-1.1,0.9-2.3,1.7-3.5,2.5c-1.8,1.2-3.8,2-6.1,2.1c-19.9-0.1-39.9,0-59.8,0
		c-17.8,0-35.6,0.3-53.4,0.1c-4.2,0-8.6,0.8-12.8-0.6C480.4,259.1,484.4,255.4,488.3,251.8z"/>
	<path class="st46" d="M476.4,262.7c11-1.9,22-0.4,33.1-0.8c10.3-0.4,20.5,0.5,30.8-0.7c3.7-0.4,7.6,0.5,11.3,0.6
		c17.4,0.1,34.8,0.1,52.2,0.1c0.5,2.1-1.1,3-2.4,3.8c-3,1.8-5.6,4-8.5,5.9c-3.3,1.8-6.1,4.7-10,5.4c-8.7-0.3-17.5-0.8-26.2-0.4
		c-11.5,0.6-22.9-1-34.3-0.5c-18.9,0.8-37.8-0.7-56.7,0.5c-2.5,0.2-5,0.1-7-1.8C464.5,270.8,470.5,266.8,476.4,262.7z"/>
	<path class="st43" d="M557.7,292.9c-7.9,1-16.1,0.9-23.8,0.4c-8.4-0.6-16.9-0.3-25.1,0.1c-8.4,0.4-16.6-1.2-25.1,0
		c-6.7,0.9-14,1.2-21-0.4c-5.4-1.2-10.7,0.9-16.2,0.1c-5.2-0.8-10.7,0.3-16,0.6c5.8-4.3,11.6-8.5,18-12c9.4-0.2,18.8-1.1,28.2-0.2
		c7.4,0.7,14.9-0.1,22.4-0.3c13.6-0.3,27.2,0.5,40.9,0.1c9.4-0.2,18.9,0.7,28.3,0.2c1.2-0.1,2.3,0,3.4,0.4c0.8,0.4,1.5,0.9,1.1,1.9
		C571.7,286.7,561.3,293,557.7,292.9z"/>
	<path class="st41" d="M381.6,251.2c-1-0.5-2-1.1-3-1.6c-2.1-1.1-2.1-2.3-0.1-3.5c6.4-4.1,12.7-8.2,19-12.3c4.3-2.8,9.1-1.3,13.6-1
		c10.1,0.7,20.2-0.4,30.3,0c8.6,0.4,17.2-1.2,25.8,0.5c1.6,0.3,3.3,0.4,4.7,1.5c0.2,7.8-4.3,12.8-10.2,16.9c-3-1.3-6.2-1.4-9.3-1.3
		c-16.3,0.3-32.6-0.5-48.9,0.6C396.2,251.5,388.8,249.6,381.6,251.2z"/>
	<path class="st47" d="M471.9,234.8c-8.9-0.3-17.7-1.1-26.6-0.7c-5,0.2-10.1,0.3-15.1,0.4c-6,0.1-12,0.8-18.1-0.2
		c-4.8-0.8-9.7-0.4-14.6-0.5c11-8.3,22.4-16.1,36.4-18.5c13.9-2.3,26,1.1,35.3,12.2C470.9,229.6,472.1,232,471.9,234.8z"/>
	<path class="st48" d="M203.7,273.8c1-2.1,2.9-2,4.7-2c16.3,0,32.5,0.1,48.8,0c4.9,0,10.2,1.1,14.5,0.4c5.9-1,11.7,1.2,17.4-1.1
		c3.3-1.3,6.8,1.2,10.3,0.8c11.1-1.3,22.3-0.5,33.4-0.3c8.4,0.2,17.1-1.7,25.5,0.9c1.1,0.3,2.6-0.2,3.9-0.6c5.3-1.4,10.5,2,15.8-0.1
		c2.9,1.2,5.2,3.1,7.5,5.1c-2.3,2.6-5.4,2.4-8.3,2.3c-13.4-0.7-26.9,0.1-40.3-0.2c-3-0.1-6-0.2-9-0.3c-9.6-0.4-19.2,0.1-28.8,0.1
		c-7.8,0-15.6-0.5-23.3-0.2c-11,0.4-21.9-0.1-32.9,0.1c-9,0.2-17.9-0.1-26.9,0.1c-1,0-2,0.1-2.9,0.6
		C208.8,279.3,205.4,278,203.7,273.8z"/>
	<path class="st49" d="M572.7,282.9c-8.6,2-17.5,0.6-26,0.3c-13.8-0.5-27.6,0.3-41.4-0.6c-7.9-0.5-16.2-0.3-24.2,0.7
		c-0.8,0.1-1.7,0.7-2.4,0.5c-8.2-3.1-16.7,0.1-25-0.9c-1.8-0.2-3.6-0.7-5.3-1.1c1.4-1,2.8-2,4.2-2.9c1.6-1.2,3.9-1.5,5-3.3
		c0.3-0.2,0.7-0.4,1-0.7c14.5,0,29-0.3,43.5,0.1c11.9,0.4,23.8-1.4,35.5,0.2c9.4,1.3,18.7-0.1,27.9,0c6,0,12.1,2.4,18.2,0.7
		C581.3,280.2,577.9,283,572.7,282.9z"/>
	<path class="st8" d="M404.6,196.9c-0.2,3.8-0.8,7.5-3,10.8c-8.8,0.9-17.5,0.8-26.3,1c-12.6,0.3-25.2-1-37.8,0
		c-4,0.3-8.8,1.6-11.9-2.8c5.6-4.5,11.6-8.6,17.9-12c8.9-1.2,17.9-0.5,26.9-0.7c9.6-0.2,19.3,0.1,28.9,0.3
		C401.8,193.5,404,194,404.6,196.9z"/>
	<path class="st14" d="M325.6,205.8c4.7,1.9,9.4,1.7,14.3,1c4.3-0.6,8.8,0,13.2,0c14.2,0,28.5,0,42.7,0c1.9,0,4-0.6,5.8,0.7
		c-4.7,4.7-8.2,10.7-14.9,13.2c-8-1.3-15.9-1.5-24-1.1c-8.2,0.4-16.4,0.8-24.6,0c-2-0.2-0.9,1.2-1.5,1.6
		c-5.6-3.7-11.3-7.5-17.1-11.4C321.6,207.9,323.3,206.4,325.6,205.8z"/>
	<path class="st48" d="M212.7,278.9c0.1-0.8,0.4-2,1.3-1.8c6.7,1.1,13.3-0.1,20,0c11.9,0.1,23.7,0.3,35.6,0.2
		c8.8-0.1,17.6-1.5,26.4,0.5c3.9,0.9,7.8-1.1,11.8-0.9c12.7,0.5,25.5,1.2,38.3,0.8c7.9-0.3,15.7,0.9,23.6-0.4
		c5-0.8,10.4,1.5,15.7-0.3c3.7,2,7.3,4.2,10.5,6.9c-10.6-2.7-21.2-1.9-32-1.3c-7.9,0.4-15.9-0.4-23.8-0.5c-5.8-0.1-11.6-0.1-17.4,0
		c-6.7,0.1-13.4,1.2-19.9-0.6c-2.9-0.8-5.6,0.4-8.3,0.6c-11.5,1-23-0.8-34.5-0.3c-12.1,0.5-24.3,0.1-36.5,0.1c-1.7,0-3.3,0.2-4.8,1
		C215.7,283.1,213.2,282.5,212.7,278.9z"/>
	<path class="st50" d="M381.6,251.2c0.2-1.5,1-2.4,2.6-2.3c5.3,0.2,10.7-0.9,15.9,0.7c3.3,1,6.2-0.7,9.3-0.7c15.8,0.1,31.6,0,47.4,0
		c2.2,0,4.5-0.3,4.9,2.8c-5.4,3.6-9.8,8.7-16,11.2c-2.2-1.4-4.7-1.5-7.2-1.6c-11.1-0.4-22.2,0.7-33.3,0c-2.1-0.1-4.5-0.4-4.6,2.8
		C394.2,260,387.5,256.1,381.6,251.2z"/>
	<path class="st7" d="M404.6,196.9c-1.4-2.2-3.6-2-5.7-2c-16.4,0-32.7,0-49.1,0c-2.2,0-4.3,0.1-6.3-1.1
		c11.6-9.1,23.8-16.3,39.5-13.9c7.6,1.2,14,4.9,19.2,10.6C403.7,192.3,404.8,194.4,404.6,196.9z"/>
	<path class="st26" d="M336.6,221.3c0-5.8,5.5-3.1,6.7-2.9c9.1,1.3,18.1-0.7,27.1-0.3c5.3,0.2,10.6,0.5,15.8,0.8
		c1.3,0.1,0.7,1.2,0.5,1.9c-7.4,5.2-14.9,10.4-22.2,15.8c-2.2,1.6-3.8,1.1-5.8-0.3C351.4,231.2,344,226.3,336.6,221.3z"/>
	<path class="st44" d="M400.6,264.2c-1.7-2.7-1.7-4.4,2.3-4.4c12.8,0.1,25.7,0.1,38.5,0c2.2,0,4,0.3,4.2,3
		c-6.6,5.1-13.6,9.9-20.5,14.5c-2,1.3-3.4,1.3-5.3,0C413.5,272.9,407.1,268.6,400.6,264.2z"/>
	<path class="st25" d="M496.7,232.9c-0.3,1.7,0.7,3.6-1.1,5c-0.1-3-0.2-5.9-0.4-8.9C497.3,229.7,496.5,231.5,496.7,232.9z"/>
	<path class="st46" d="M457.6,275.5c-0.7,2.5-2.8,3-5,3.3C453.9,277.2,455.8,276.4,457.6,275.5z"/>
	<path class="st43" d="M413.8,295.8c-2.1-0.4-4.2-0.8-5-3.2C410.8,293.2,412.5,294.1,413.8,295.8z"/>
	<path class="st51" d="M177.8,264.1c0.6-0.5,1.2-1.1,1.9-1.6c3.1,6.2,10.1,7.8,14.7,12.2c1.8,1.7,4.2,2.7,5.7,4.8
		c5.2,5,11.1,9,16.7,13.4c7,5.5,14.5,10.5,20.1,17.7c0.6,0.8,1.4,1.4,1.9,2.3c1.2,2,3.1,4,2.2,6.3c-1,2.7-4,1.8-6.2,2
		c-11.1,1-22.1,1.8-33.2,0.3c-3.8-0.5-7.6,0.9-11.4,1.1c-2.8-0.4-5-2.2-7.4-3.3c-5.4-4.5-10.7-9.2-13.9-15.7c-0.1-0.5-0.2-1-0.2-1.5
		c0.4-2.7,2.4-2.3,4.2-2.2c6.6,0.3,13.2-0.2,19.8,0.5c3.6,0.4,7.4-0.1,11.2,0.4c2,0.3,4.5-0.3,5.1-2.2c0.6-2.2-0.7-4.5-2.3-6.3
		c-4.9-5.1-9.8-10.2-15.4-14.7c-4-3.2-7.9-6.6-12.1-9.4C177.2,266.9,177.2,265.8,177.8,264.1z"/>
	<path class="st52" d="M177.6,322.5c0-0.3,0-0.5,0.1-0.8c0.5-0.3,1-0.3,1.4,0c9.2,7.6,19,14.5,27.7,22.7c2.8,2.6,5.3,5.5,8,8.3
		c2.4,2.5,4.1,5.7,2.6,9c-1.6,3.4-5.2,2.8-8.4,2.9c-12.6,0.4-25.2-1.1-37.8,0.4c-5.4-3.8-6-9.3-5.5-15.3c9.5,0.2,19.1-1,28.5,0.4
		c3.5,0.5,2.6-1.8,2.3-3.3c-1.4-7.1-6.5-11.6-11.7-16C182,328.5,178.6,326.5,177.6,322.5z"/>
	<path class="st53" d="M165.7,349.8c-0.3,5.9,2.2,10.8,5.9,15.1c0.2,0.1,0.4,0.2,0.6,0.2c1.2,1,2.1,2.2,3.2,3.3
		c1.6,1.5,2.9,3.4,4.7,4.8c0.9,0.8,1.7,1.6,2.4,2.5c1.5,2.5,3.9,4.1,6.3,5.6c9.4,5.9,18.5,12.3,27.6,18.6c1.4,0.9,2.8,1.9,2.5,3.9
		c-0.6,0.6-1.2,0.7-2,0.7c-1.2-0.3-2.1-1.1-3.2-1.8h0c-2-1.3-4.1-2.5-6-4l0,0c-2-1.3-4.1-2.5-6-4l0,0c-6-3.9-11.7-8.4-18-12l0,0
		c-1.4-0.9-2.6-2.1-4-3c-2.9-4.4-7.4-7.4-10.2-12c-4-6.4-5-13.1-4.6-20.3C165.1,348.3,165.4,349.1,165.7,349.8z"/>
	<path class="st54" d="M322.7,475.8c-0.3,0-0.7,0-1,0c-11-7.3-22-14.7-33-22c-2.5-1.4-4.7-3.3-7-5c0,0,0,0,0,0c0-0.3,0-0.7,0-1
		c0.8-0.8,1.7-0.9,2.8-0.6c6.4,4.5,12.8,9,19.6,13c4.5,3.5,9.4,6.6,14.1,9.8C320.2,471.4,323.1,472.4,322.7,475.8z"/>
	<path class="st31" d="M281.7,448.8c3,0.8,5,2.9,7,5C285.5,453.3,283.3,451.5,281.7,448.8z"/>
	<path class="st55" d="M216.7,403.8c0.7,0,1.3,0,2,0c5.6,0.2,9.5,3.2,12.5,7.6c0,0.5-0.2,1-0.5,1.4c-3.8-0.7-6-4.6-10-5
		c-1-0.7-2-1.3-3-2C217.2,405.3,216.1,405,216.7,403.8z"/>
	<path class="st31" d="M183.7,382.8c6.8,2.8,12.6,7.1,18,12C195.1,391.8,189.3,387.4,183.7,382.8z"/>
	<path class="st31" d="M201.7,394.8c2.5,0.6,4.5,1.9,6,4C205.1,398.4,203,397.2,201.7,394.8z"/>
	<path class="st31" d="M207.7,398.8c2.5,0.6,4.5,1.9,6,4C211.1,402.4,209,401.2,207.7,398.8z"/>
	<path class="st31" d="M216.7,403.8c0.3,0.7,0.7,1.3,1,2c-2-0.1-3.1-1.4-4-3C214.7,403.2,215.7,403.5,216.7,403.8z"/>
	<path class="st31" d="M179.7,379.8c2,0.1,3.1,1.4,4,3C181.7,382.7,180.6,381.4,179.7,379.8z"/>
	<path class="st55" d="M230.7,412.8c0-0.3,0-0.7,0-1c2.4-1.5,4.1,0.3,5.8,1.5c15.7,10.8,31.6,21.2,47.4,31.9
		c0.6,0.5,0.9,1.2,1.1,1.9c-0.1,0.2-0.1,0.5-0.2,0.7c-1,0-2,0-3,0c-13.5-9-27-17.9-40.4-27C237.7,418.4,234.3,415.5,230.7,412.8z"/>
	<path class="st56" d="M178.6,321.6c-0.3,0-0.6,0.1-1,0.1c1.7-3.4-0.7-5.5-2.4-7.8c-2.4-3.3-6-5.8-6.4-10.3c3.6,5.9,9.5,9.7,13.7,15
		c0,0.2,0,0.4,0,0.6c-0.4,1.1-1.2,1.7-2.1,2.2C179.9,321.7,179.3,321.8,178.6,321.6z"/>
	<path class="st57" d="M611.5,257.6c0.3-0.3,0.7-0.5,1-0.8c2.2-1.1,3.6-3,5.2-4.8c0.3-0.7,0.7-1.3,1-2c4.1-4.2,6.7-9.1,7-15
		c0.3-0.1,0.6-0.2,0.8-0.3c0,9.1-4.6,16.3-10.2,22.9c-1.4,1.7-3,3.1-2.8,5.5c-0.5,0.1-1,0.1-1.4-0.1c-0.6-0.5-1-1-1.3-1.8
		C610.5,259.9,611.1,258.8,611.5,257.6z"/>
	<path class="st58" d="M613.7,264.7c0.3,0.1,0.6,0.3,0.9,0.4c0.5,3.1-2.2,4.7-4,5.8c-3.6,2.2-5.8,6-9.3,8c-4.8,2.8-5.5,8.4-9,12.1
		c-1.5,1.5,0.7,2.5,1.8,2.6c4,0.1,8,1.9,12.1,0.1c0.9-0.4,2-0.8,2.8-0.6c4.8,1.5,9.5,2.6,14.3,0.1c0.5-0.3,1.5,0.5,2.3,0.8
		c-0.1,1.2-0.1,2.5-0.2,3.7c-0.3,3.7-2.1,6.8-4.1,9.8c-0.9,1.3-1.7,3.4-4.1,2.3c-1.1-2-2.9-2.7-5.1-2.4c-11.7,1.7-23.5-0.4-35.3,0.4
		c-1.7,0.1-3.4,0.1-4.4-1.6c-0.9-1.6,0.2-2.8,0.7-4.1c2.4-6,6.4-10.7,11.3-14.8c3.6-4.4,7.8-8.1,12.7-10.9
		C603.1,272.8,607.3,267.2,613.7,264.7z"/>
	<path class="st52" d="M613.9,322.4c-1,4.9-5.9,6.4-8.8,9.6c-3.9,4.2-8.5,7.7-8.8,14.3c-0.1,1.8,0.2,2.2,1.8,2.7
		c3.3,1,6.5,1.1,9.8,0.7c4.2-0.6,8.4,0.1,12.6-0.6c1.8-0.3,3.9,0.4,5.3,2.2c0.7,1.6-0.5,3.1-0.2,4.7c0,1.7-0.6,3.1-1.2,4.7
		c-1.3,2.1-2.6,4.2-4.2,6.2c-0.4,0.3-0.8,0.5-1.3,0.5c-0.5-0.2-0.9-0.4-1.3-0.7c-1.9-1.7-4-2-6.5-1.9c-10.6,0.7-21.2,0.4-31.7,0
		c-5.8-0.2-6.9-2.7-4.8-8.2c2.6-6.9,8.8-10.1,13.7-14.8c6.4-6.2,13.7-11.5,20.6-17.1c0.9-0.7,1.8-1.5,2-2.8c0.2-0.5,0.4-0.9,0.8-1.2
		C613.3,320.2,614.3,320.5,613.9,322.4z"/>
	<path class="st59" d="M613.9,322.4c-0.3-1.1-1.1-1.5-2.2-1.6c-1.7-0.3-2.5-1.4-2.6-3.1c2-3.6,5.2-5.9,8.5-8
		c3.8-3.2,5.7-7.8,7.9-12.1c0.3,6.9-2.9,12.4-7.4,17.2c-2.8,2.9-4.5,5.7-1.6,9.4C615.6,323.6,614.7,323,613.9,322.4z"/>
	<path class="st60" d="M624.8,355.8c-0.8-1.8,1.1-3,1-4.7c1.4-2.3,0.3-4.9,0.9-7.3c0.3,0,0.7,0,1,0c0.5,4.1-0.7,8-1,12
		C626,356.4,625.4,356.4,624.8,355.8z"/>
	<path class="st61" d="M624.8,355.8c0.6,0,1.2,0,1.8,0c-0.6,10.4-6.8,17.6-14.3,23.5c-16.1,12.6-33.6,23.1-50.4,34.6
		c-6.5,4.4-13.8,8-19.2,13.9c-4.1,0.2-5.9,4.8-10,5c-3.3,1.7-5.5,5.5-9.9,5.1c-0.6-2.9,1.9-3.7,3.5-4.8
		c11.2-7.2,22.1-14.9,33.1-22.2c16.2-10.7,32.5-21.4,48.3-32.8c4.4-3.2,7.9-7.6,11.8-11.4l0,0.1c1.8-1.8,3-3.9,4-6.1
		C623.2,358.8,624.7,357.5,624.8,355.8z"/>
	<path class="st62" d="M613.7,264.7c-8.5,8.5-19.5,13.7-28.1,22.2c-6.8,6.6-14.5,12.2-21.7,18.3c-3.3,2.8-6.6,5.6-8.7,9.5
		c-1.6,2.9-0.7,4.3,2.5,4.8c1.8,0.2,3.7,0.4,5.5,0.2c10.9-1.7,21.9,0.2,32.9-0.6c2.3-0.2,4.7-0.4,6.6,1.5c0.3,0.4,0.4,0.9,0.4,1.4
		c-7.4,6.6-15,12.8-24.6,15.9c-4.4-2-9.2-1.1-13.8-1.2c-5.1-0.2-10.3-0.5-15.4,0.3c-5.3,0.9-10.5-1.1-15.9,0
		c-1.6,0.3-3.3-0.7-4.1-2.3c-0.9-1.8,0.4-3,1.4-4.4c6.4-9.8,15.2-17,24.4-23.9c1.7-1.3,3.5-2.5,4.8-4.4c9.6-9.3,21.2-15.9,31.6-24.1
		c4.7-3.7,9.7-7.1,14.3-10.8c2-1.6,4.1-3.5,6.9-3.9c0.3,0,0.6,0,0.9,0.1C613.6,263.6,613.7,264.2,613.7,264.7z"/>
	<path class="st61" d="M522.7,437.8c4-0.3,6.2-4.3,10-5c-3,4.6-8.3,6.3-12.5,9.5c-9.3,7-19.3,13.1-29,19.6c-1.4,0.9-2.7,1.8-4.5,2
		c-0.1-0.2-0.2-0.4-0.2-0.6c1.5-3.9,5.6-4.8,8.4-7.1c1.5-1.2,3.3-2.2,4.8-3.3c0.4-0.3,0.8-0.5,1.1-0.7c2.3-1,4.2-2.5,6-4.2
		c0.4-0.3,0.7-0.5,1.1-0.7c2.8-0.9,4.6-3.2,6.9-4.9c0.5-0.4,1-0.8,1.6-1.1c2.1-0.7,3.8-2,5.6-3.1
		C522.2,437.9,522.5,437.8,522.7,437.8z"/>
	<path class="st61" d="M462.7,480.8c-0.7,0-1.3,0-2,0c-0.6-1-0.1-1.9,0.3-2.8c1.4-2.5,3.7-3.7,6.3-4.4c3.8-0.2,5.7-4.9,9.9-4.3
		c0.2,0.1,0.4,0.3,0.5,0.4C473.3,474.4,467.6,477,462.7,480.8z"/>
	<path class="st61" d="M486.7,463.8c-2.1,3.4-5.7,4.4-9,6c0,0,0,0,0,0C478.9,465.7,482.1,463.6,486.7,463.8L486.7,463.8z"/>
	<path class="st63" d="M180.6,261.6c0.4-1,1.3-0.8,2.1-1c0,0,0.1,0.5,0.1,0.5c6.8,4.4,13.1,9.6,19.9,14c0.6,0.4,1.1,0.8,1.6,1.3
		c2.1,2,4.3,3.7,7.1,4.7c3.9,1.6,6.9,4.7,10.2,7.1c14.3,10.3,28.7,20.4,42.6,31.2c0.6,0.8,1.1,1.7,0.6,2.8c-0.6,0.5-1.3,0.6-2.1,0.6
		c-8.1-4.7-15.4-10.6-23.2-15.9c-2-1.4-3.9-3-6.2-4c-9.6-6-18.3-13.2-27.5-19.9c-6.7-4.9-13.4-9.8-20.2-14.5
		C183.3,266.8,180.4,265.3,180.6,261.6z"/>
	<path class="st64" d="M180.6,261.6c3.5,6,9.9,8.5,15.1,12.5c12.5,9.5,25.3,18.5,38,27.8c2.7,2.8,6.9,4,8.5,8
		c-0.1,0.5-0.3,0.9-0.6,1.2c-3.2,0.3-5.2-1.9-7.3-3.7c-11.4-9.8-23.5-18.7-35.6-27.6c-4.3-3.7-8.9-7.1-13.8-10.1
		c-2.6-1.6-6.1-2.9-5.3-7.2C180,262.2,180.3,261.9,180.6,261.6z"/>
	<path class="st65" d="M461.7,478.8c-0.3,0.7-0.7,1.3-1,2c-6.4,4.3-12.9,8.5-19.3,12.8c-11.9,8-24.9,12.2-39.3,13.4
		c-18.9,1.5-35.8-3.2-51.6-13.2c-9.3-5.9-17.9-13-27.8-18c-3.5-5.2-9.7-7.1-14.4-10.8c-1.6-1.3-3.5-2.3-4.6-4.2
		c0.2-0.1,0.4-0.3,0.6-0.4c2.9-0.1,5,1.9,7.1,3.3c14.1,9.6,28.4,19,42.6,28.6c10,6.8,21.3,9.9,33.1,11.2c23.9,2.8,44.4-5,63-19.4
		c2.1-1.6,4.3-3.1,6.6-4.5C458.2,478.7,459.7,477.4,461.7,478.8z"/>
	<path class="st29" d="M413.7,508.8c-1.7,0.2-3.6-0.7-5,1c-10.3,0-20.7,0.3-31-1c0-0.3,0-0.7,0-1c12,1.3,24,1.3,36,0
		C413.7,508.1,413.7,508.4,413.7,508.8z"/>
	<path class="st29" d="M418.7,507.8c-1.7,0-3.3,0-5,0c3.9-2.6,8.8-2.2,13-4c-0.3,0.7-0.7,1.3-1,2C423.2,506,420.8,506.4,418.7,507.8
		z"/>
	<path class="st29" d="M373.7,506.8c-2.2,0.1-4.4-0.1-6-2C369.9,504.9,372,505.3,373.7,506.8z"/>
	<path class="st66" d="M246.7,301.9c6.4-1,12.7-0.8,19.1-0.3c8,0.6,16-0.6,24.1-0.7c6,0,12.1,0.4,18.1,1c4.2,0.4,8.2-1.3,12.4-1
		c13.3,0.9,26.6,0,39.9,0.1c13.1,0.1,26.2,1.3,39.2,0.6c9-0.4,17.9,0.1,26.9-0.3c5.5-0.3,11.4-0.9,17.1,0.5
		c3.6,0.8,7.3-0.6,10.8-0.7c7.7-0.1,15.4,0.5,23.1,0.8c2.2,0.1,4.4,0.4,6.5-0.1c5.6-1.3,11.1-0.6,16.8-0.1
		c6.9,0.6,13.9,0.2,20.9-0.6c8-0.9,16.1,0.9,24.2-0.2c0.4,2.3-1.6,2.8-2.9,4c-2.7,1.5-4.8,4.4-8.4,3.8c-5.3-0.5-10.6-0.7-15.9,0.2
		c-4.1,0.7-8-1.2-11.9-0.8c-13.9,1.4-27.8,0-41.7,0.2c-21.6,0.4-43.2-0.3-64.8-0.1c-18.1,0.2-36.3,0.3-54.4,0.2
		c-16.8-0.1-33.5,0.8-50.3,0.3c-9.1-0.3-18.2,0.8-27.3-0.6c-3.1-0.5-6.3,0-9.4,0.9C253,309.5,249.6,306.2,246.7,301.9z"/>
	<path class="st67" d="M246.7,301.9c3.7,2.2,6.7,5.6,11,7.1c2.6,0.3,4.3,2.3,6.4,3.4c3.3,2.3,6.5,4.8,10,6.7c2.9,2.1,5.8,4.2,9,6
		c2.9,2.2,5.9,4.2,9,6.1c1.6,1.4,3.5,2.4,4.3,4.5c0.6,1.7,2.1,2.5,3.4,3.5c18.9,13.8,37.7,27.8,57,41.1c4.3,3,9.2,5.4,14.3,6.8
		c8,2.2,16.1,4.2,24.5,3.4c5.5,0,10.9,0.2,16.2-1.6c2-0.7,4.3-0.7,6.3,0.4c1,3.3-1.7,3.3-3.5,3.7c-25,5.7-47.9,1-68.2-14.8
		c-0.7-0.5-1.4-0.9-2.2-1c-7.4-3.8-13.6-9.3-20.3-14.2c-11.5-8.4-23.1-16.6-34.4-25.3c-7.2-5.2-13.8-11.4-21.6-15.8
		c-0.4-0.2-0.8-0.5-1.2-0.7c-7.6-6-15.6-11.4-23.4-17.2c-1.1-0.8-2.3-1.5-2.6-2.8c-0.3-1.6,0.5-2.1,2-1.2
		C244,300.5,245.4,301.2,246.7,301.9z"/>
	<path class="st68" d="M542.7,303.8c1-1,2-2,3.1-3c4.4-2,8.5-4.6,12-8c5.4-2.7,10.5-5.9,15-10c4.1-1.6,7.5-4.3,11-7
		c3.2-1.2,5.5-4.2,8.9-5.1c1.9-0.1,1.3,1.1,0.9,1.9c-1.2,2.3-3.3,3.6-5.4,5c-10,6.9-19.9,14.1-29.8,21.2c-1.1,0.8-2,1.7-3,2.6
		c-13.6,9.5-27,19.4-40.4,29.2c-5,3.6-9.9,7.3-14.9,10.8c-7.4,4.4-14,10.1-20.8,15.2c-2.4,1.8-4.7,3.6-7.4,5
		c-1.6,0.7-3.2,1.5-4.9,0.5c-0.7-3.4,2.4-3.7,4.2-5.1c2.3-0.7,3.8-2.5,5.4-4c20.8-15,41.4-30.2,62.2-45.2
		C540.1,306.8,542.4,306.3,542.7,303.8z"/>
	<path class="st69" d="M242.7,299.9c-2.5,0.4-1.1,1.5-0.3,2.1c5.7,4.2,11.5,8.3,17.3,12.4c2.9,2,5.6,4,8,6.5c-1.7,1.3-2.7-0.4-4-1
		c-9.5-5.5-17.4-13-26.5-19.1c-9-6-17.7-12.6-26.5-18.9c-2.2-1.8-4.7-3.2-7-5c-0.3-0.3-0.7-0.7-1-1c-0.9-0.8-2.4-1.3-1.9-2.8
		c0.3-0.8,1.2-0.8,1.9-0.2c0.4,0.3,0.7,0.6,1.1,0.9c2.8,2,5.5,4.3,9,5.1c1.3,2.4,4,2.7,6,4c4.7,3.7,9.5,7.4,15,10
		C236.7,295.2,239.7,297.5,242.7,299.9z"/>
	<path class="st70" d="M202.7,272.9c-3,1,0.4,2,0,3c-7.3-4.1-14.5-8.3-20-14.8c1-0.1,2-0.1,3-0.2C191.4,264.9,197,268.9,202.7,272.9
		z"/>
	<path class="st71" d="M554.7,300.9c5.4-5.6,12.2-9.5,18.5-14c6.2-4.4,12.3-8.9,18.4-13.4c0.7-0.5,2.4-1.1,1.1-2.7
		c2.9-3.9,8.3-4.9,11.1-8.9c1.7-0.7,3.3-1.4,5-2c0.8,0.2,1.3,0.7,1.5,1.4c-0.3,4.9-4.8,6.3-7.8,8.3c-14.4,10-28.5,20.6-42.6,31
		c-1,0.7-2,1.2-3.2,1.1C555.8,301.7,555.2,301.5,554.7,300.9z"/>
	<path class="st72" d="M617.7,252.1c-0.8,2.6-2.3,4.4-5.2,4.8C614,254.9,615.7,253.3,617.7,252.1z"/>
	<path class="st72" d="M609.6,261c-0.3-0.4-0.7-0.8-1-1.1c1-0.7,1.9-1.5,2.9-2.2c0,1.3,0.1,2.7,0.1,4
		C610.6,262.6,610.2,261.5,609.6,261z"/>
	<path class="st62" d="M198.7,279.9c8,3.3,13.9,9.7,20.9,14.5c7.6,5.2,13.8,12.3,22.1,16.5c2.9,1.3,5.2,3.4,7.4,5.6
		c0.8,1.4,2.1,2.2,3.6,2.9c0.4,0.3,0.8,0.6,1.1,1c1.7,3.9,4.6,6.8,7.5,9.8c1.2,1.2,2.5,2.5,1.6,4.3c-0.8,1.5-2.5,1.4-4,1.5
		c-13.3,0.9-26.6,0.1-39.9,0.8c-3.6,0.2-7.1-1.7-10.7-1.8c-6.7-2.6-12.2-7.2-18-11.4c-0.6-0.4-0.7-1.1-0.5-1.8
		c8.5-3.3,17.3-0.9,25.9-0.8c7.7,0,15.2-1.5,22.9-1.2c2.1,0.1,1.8-1,1.1-2.6c-2.5-5.6-6.8-9.9-11.2-13.7c-9-7.7-18.8-14.5-28.2-21.7
		C199.6,281.3,199.2,280.5,198.7,279.9z"/>
	<path class="st73" d="M189.7,321.8c5.7,4.4,11.8,8.4,18,12c1.7,0.9,3.9,1,5.2,2.7c0.2,0.4,0.3,0.8,0.3,1.3c0.1,2.6,2.4,3.2,3.9,4.5
		c1.6,1.3,3.8,2,4.2,4.4c0,0.5-0.2,0.9-0.5,1.3c-2.1,0.5-3.7-0.8-5.5-1.7c-10.2-7.5-20-15.6-30.6-22.4c-2-1.3-3.4-2.7-2-5.2
		c0,0,0-0.1,0-0.1C185.4,318.7,187.5,320.4,189.7,321.8z"/>
	<path class="st74" d="M178.6,321.6c0.4-0.2,0.7-0.4,1.1-0.6c10.6,6.3,20.1,14,29.8,21.6c4.5,3.6,9.9,6.3,12.8,11.6
		c1.4,3.1,3.4,5.6,6.4,7.4c2.5,1.5,3.7,3.8,3,6.8c-0.7,3-3.2,3.5-5.6,4.1c-2.4,0.5-4.9,0.9-7.4,0.7c-10.4-1.1-20.8,0-31.2-0.9
		c-2.7-0.2-5.3,0.4-7.7,1.6c-2.3-1-3.4-3.3-5-5.1c-1.1-1.3-2-2.6-3.2-3.8c0,0,0,0.1,0,0.1c0.3-0.6,0.7-1.6,0.9-1.6
		c8.3,0.5,16.6-1.3,24.8,0.3c4.8,0.9,9.4-0.7,14.2-0.2c5.2,0.5,7-4.5,3.4-8.7c-4.3-5-9.1-9.6-14.1-14c-6.7-5.9-13.9-11.2-21-16.6
		C179.2,323.7,179,322.5,178.6,321.6z"/>
	<path class="st74" d="M179.7,373.8c-0.2-2.5,1.2-3.1,3.4-3c5.8,0.4,11.8,0.9,17.3,0.5c8.7-0.6,17.5,1.6,26.1-0.4
		c1.8-0.4,3.7-0.3,4.1-2.7c0.4-2.4-0.2-4.3-2.5-5.4c-3.8-1.9-5.9-5.2-7.5-9c1.1-0.9,2-0.3,2.9,0.4c1.9,2.1,3.8,4.1,6.2,5.8
		c5.5,3.9,8.3,9.8,11,15.6c0.7,1.6,0,2.5-1.5,3.1c-0.6,0.2-1.3,0.4-2,0.4c-11.3,0-22.6,0.4-33.9,0.4c-4.5,0-9-0.6-13.3,1
		c-4.1,0.9-6.3-1.8-8.4-4.5C181.1,375.2,180.4,374.5,179.7,373.8z"/>
	<path class="st60" d="M181.7,375.9c2.6,1.4,4.7,3.9,7.9,4.2c6.1,1.5,10.2,6.2,15.5,9.1c5.2,4,10.8,7.2,16.2,10.8
		c7.8,5.5,15.8,10.8,23.8,16c6.3,4.5,12.8,8.6,19.2,12.9c5.7,4.2,11.9,7.8,17.6,12.1c0.6,0.4,1.1,0.9,1.5,1.5c0.6,1,1.2,2.1,0.5,3.3
		c-11.5-6.4-22-14.4-33-21.5c-6.6-4.2-12.5-9.6-20-12.6c-3.2-3.8-7.6-5.9-12-8c-2.7-3.7-6.9-5.5-10.4-8.1
		c-7.5-5.4-15.4-10.1-23.1-15.3C183.6,379.4,181.9,378.2,181.7,375.9z"/>
	<path class="st52" d="M171.6,364.9c1.7,0.7,2.9,1.9,3.2,3.8C173.1,367.9,172,366.7,171.6,364.9z"/>
	<path class="st55" d="M303.7,460.8c-7-3.4-13.7-7.2-19-13c0,0,0,0,0,0c1.5-1.2,2.9-0.5,4.1,0.4c4.3,3.3,8.9,6.2,13.4,9.3
		C303.3,458.2,304.3,459.2,303.7,460.8L303.7,460.8z"/>
	<path class="st60" d="M303.7,460.8c-5.8-5.1-12.1-9.5-19-13c-0.3-0.7-0.7-1.3-1-2c-0.3-0.9-0.7-1.9-1-2.8c1.9-1,3,0.7,4.4,1.2
		c5.4,3.5,10.5,7.5,16,10.9c9.3,6.2,18.7,12.5,28,18.9c7.8,4.7,15.1,10.4,23,15c23,13.9,47.2,14.5,72,6.2c4.6-1.5,8.2-5,12.5-7.1
		c8.4-4.1,15.5-10.3,23.5-15.1c8.4-5.6,16.1-12.3,25-17.2c4.7-2.4,9-5.6,13.3-8.8c8.3-4.9,16-10.6,23.9-16.1
		c8.4-4.7,15.8-11,23.8-16.1c8-4.1,14.6-10.2,22.2-14.9c4.9-2.2,8.6-6,12.9-9c1.6-1.1,3.2-2.4,5-3.1c4.8-2.3,8.4-6.4,13-8.9
		c5-2.7,9.7-5.7,13.8-9.6c1.1-1,2-2.2,3.6-2.5c0.3-0.1,0.6-0.1,0.9-0.1c-2.5,5.9-7.4,9.6-12.3,13.2c-8.7,6.3-17.7,12.2-26.7,18.1
		c-19,12.4-37.6,25.3-56.3,38c-0.7,0.4-1.1,1.2-1.7,1.8l0,0c-1.9,1.4-4.1,2.5-6,4c-0.3,0.3-0.7,0.7-1,1c-3.1,0.9-5,3.9-8,5l0,0
		c-2.2,1.8-4.6,3.4-7,5l0,0c-11.2,7-22.1,14.6-33,22c-2.6,0.4-4.7,1.6-6,4c-6.3,1.7-11,6.2-15.9,9.8c-13.2,9.6-27.5,15.3-43.9,16.3
		c-19.7,1.3-37.4-3.4-53.5-14.9c-10.6-7.6-21.7-14.6-32.6-21.7C311.8,465.7,308.2,462.5,303.7,460.8z"/>
	<path class="st75" d="M222.7,354.8c-0.4-0.8-1.2-1-2-1c-6.2-6.8-13.9-12-21.1-17.6c-6.6-5.1-13.8-9.5-19.8-15.3
		c1-0.8,1.9-1.5,2.9-2.3c0.6,5.2,5.7,5.6,8.8,8.1c7.9,6.6,16.9,11.7,24.3,19c2.4,2,5.4,3,7.7,5.1c1.2,1.1,3.3,1.9,2.1,4.2
		C224.5,355.7,223.6,355.5,222.7,354.8z"/>
	<path class="st76" d="M609.6,261c0.7,0.2,1.4,0.4,2,0.7c0.3,0.5,0.6,0.9,0.9,1.4c-10.9,8.3-21.9,16.6-32.8,24.8
		c-6.3,4.7-12.7,9.4-19.1,14.1c-5,4.9-11.3,8.1-16.5,12.8c-9.9,8.8-21.3,15.9-30.1,26.1c-0.6,0.8-1.4,1.5-1.9,2.3
		c-0.7,1.1-1.5,2.4-0.8,3.7c0.7,1.4,2.2,1.2,3.5,1.1c13.3-0.7,26.6-0.1,39.9-0.3c2.1,0,4.3-0.3,6.4,0.7c1.5,2.8-1.2,3.3-2.6,4.3
		c-6.7,4.8-13.9,9.1-20.5,14.1c-2.1,1.4-4.1,3.1-6.8,3.4c-7.4-0.3-14.9-0.1-22.3-0.7c-4.7-0.4-9.3,0.3-13.9,0.5
		c-4.2,0.2-8.3,0-12.4-0.7c-3.9-0.7-4.9-2.8-2.3-5.8c5.9-6.7,11.2-13.8,18.5-19.4c8.3-6.4,16.7-12.6,24.8-19.2
		c10.8-8.1,21.4-16.5,32.9-23.7c6-4.2,12.1-8.4,18.1-12.6c8.4-5.8,16.2-12.6,25-18.1C603.5,267.8,608,265.8,609.6,261z"/>
	<path class="st51" d="M602.7,320.9c-5.1-2-10.3-0.2-15.5-0.5c-3.6-0.3-7.4,0.2-11.1-0.4c-5.2-0.8-10.2,1.4-15.3,0.9
		c-3-0.3-6.9,0.4-8.1-2.3c-1.1-2.5,1.4-6,3.3-7.9c9.1-8.9,19.2-16.7,29.7-23.9c0,1-0.3,2.2-1.2,2.6c-6.4,2.6-7,9.6-10.8,14.1
		c-1.7,2,0.1,3.5,1.9,3c6.1-1.6,12.1,0,18.2,0.1c7,0.2,14-0.4,21-0.9c3.3-0.2,4.2,0.9,3,3.9c-2,3.5-5.6,5.2-8.1,8.2
		c-0.2,0.7-0.5,1.3-1.1,1.7C606.5,320.1,605,322.3,602.7,320.9z"/>
	<path class="st74" d="M618.6,366.8c-4.6,5.8-10.2,10.1-17,13c-14.9-0.2-29.8-0.9-44.6-0.6c-5.9,0.1-5.8-0.6-4.2-5.9
		c2.3-7.3,6.4-12.5,13-16.1c1.3-0.7,2.1-2.1,2.9-3.4c8.1-6.6,16.3-13.1,24.7-19.3c4.7-3.5,9-7.3,13.8-10.6c1.4-0.9,2.5-2.3,4.4-2.1
		c1.7,1.6,0.1,2.2-0.9,3c-10.6,7.5-19.8,16.8-30.1,24.8c-3.1,2.4-4.4,6.2-5.7,9.7c-0.8,2.2-0.5,4.1,3.4,4c8.4-0.3,16.9,0.1,25.3,0.7
		c4.1,0.3,8-1.9,12.2-0.3C617.7,364.3,618.9,364.7,618.6,366.8z"/>
	<path class="st77" d="M611.7,321.8c-13,10.1-26,20.2-39,30.3c-0.9,0.7-2,1.1-3,1.7c-0.4,0.3-0.8,0.3-1.2-0.1
		c-0.3-1,0.1-1.9,0.5-2.7c10.2-8.5,20.9-16.4,31.6-24.3c3.1-2.3,6.4-4.2,8-8c0.3-0.3,0.6-0.6,0.9-0.9c0.7,1,1.5,1.9,2.2,2.9
		C611.7,321.1,611.7,321.5,611.7,321.8z"/>
	<path class="st60" d="M623.6,360.6c-0.2,2.8-1.4,5-4,6.1C620.4,364.4,621.9,362.4,623.6,360.6z"/>
	<path class="st78" d="M608.6,318.8c1.3,2,0.5,3-1.4,4.3c-12.1,8.9-24,17.9-36,26.9c-0.6,0.5-1.1,1.2-1.6,1.8
		c-6.5,7-14.9,11.6-21.9,17.9c-6.4,5.8-13.5,10.8-19.6,17c-0.9,0.9-1.9,1.9-2.7,2.9c-1.1,1.6-1.8,3.3-1,5.1c0.8,1.9,2.7,1.6,4.3,1.6
		c12.1,0.1,24.3,0,36.4,0c1.7,0,3.3-0.1,5,0.2c1,0.2,2.1,0.3,2.4,1.5c0.3,1.4-1,1.9-2,2.5c-7.1,5.3-14,10.9-22,15
		c-7.8-0.9-15.5-1.1-23.3,0c-7.3,1-14.6-0.3-21.8-1c-5.8-0.6-7.2-6.1-3.6-10.7c6.7-8.5,15.8-14.1,23.8-21
		c10.3-8.9,21.6-16.5,31.9-25.3c14.2-9.3,26.7-20.9,40.9-30.2c2.3-1.5,4.9-2.8,6.1-5.5c0-0.3,0-0.7,0-1
		C604.9,320.8,606.2,318.3,608.6,318.8z"/>
	<path class="st64" d="M561.6,348.8c-13.8,0-27.6,0-41.4,0c-1.5,0-3.1-0.3-4.4,0.2c-2.5,0.9-5.2,0.9-6.2-1.3c-1-2.2,0.4-4.5,2.1-6.6
		c6-7.4,13.8-12.7,20.9-18.8c8.8-7.5,18.1-14.4,28-20.5c-0.5,3.5-3.8,4.8-6,6.1c-6.2,3.8-10.3,9.8-16.3,13.7
		c-3.8,2.5-4.3,7.6-8,10.6c-2.2,1.8,1.7,3.8,3,3.3c5.2-2,10.3,0.5,15.5,0c6.4-0.7,13-1.2,19.5-0.1c3.4,0.6,7.2-1.4,10.4,1.4
		c0.5,2.1-1,3-2.4,3.8c-3.5,2.1-6.6,4.8-10.1,6.9C564.8,348.3,563.5,349.7,561.6,348.8z"/>
	<path class="st79" d="M565.6,346.8c4-3.8,9.4-5.7,13.1-10c7.3-3,13.2-8.3,19.8-12.4c1.4-0.9,2.7-1.7,4.1-2.6
		c1.3,4.2-3.1,4.7-4.9,5.9c-11.2,7.6-21.6,16.3-32.3,24.5c-2.7,2.1-5.9,3.7-8.8,5.5c-0.6,0.5-1.2,0.6-1.9,0.3
		c-0.8-2.6,1.7-3.1,2.9-4.4C560,351.1,564.2,350.5,565.6,346.8z"/>
	<path class="st61" d="M467.7,474.8c1.6-3.5,5.1-4.7,8-6.3c8.5-4.9,15.6-12.2,25-15.6c-2.9,3.4-7.1,5-10.5,7.7
		c-1.3,1-2.7,1.8-3.5,3.3c-3.3,1.6-6.9,2.6-9,6C473.6,470,471.8,474.6,467.7,474.8z"/>
	<path class="st61" d="M507.7,447.8c2.3-2.2,4.3-5,8-5C513,444.4,511.5,448.1,507.7,447.8z"/>
	<path class="st61" d="M500.7,452.8c1.6-2.6,4.1-4.1,7-5C506,450.5,503.9,452.3,500.7,452.8z"/>
	<path class="st61" d="M516.7,441.8c1.3-2.4,3.4-3.6,6-4C521.4,440.2,519.3,441.4,516.7,441.8z"/>
	<path class="st76" d="M241.7,309.8c-2-3.4-6.3-4.3-8-8c8.1,4.7,15.5,10.3,23.1,15.6c2,1.4,3.9,2.9,5.9,4.4
		c9.5,5.1,17.6,12.4,26.1,18.9c2.7,2.1,5.1,4.8,8.1,6.5c6.4,3.8,10.1,10,14.6,15.5c3.2,4,1.3,7.9-3.7,7.7c-11.9-0.5-23.9,1-35.7-0.6
		c-4-0.5-7.9,0.9-11.9,0.1c-2.6-0.5-4.6-2.1-6.7-3.4c-5.8-4.6-12.4-8-18.3-12.5c-1.2-0.9-3.2-1.4-2.4-3.7c1.9-2.2,4.5-1.7,7-1.8
		c12-0.1,23.9,0,35.9-0.1c1.9,0,4.5,1,5.4-1.2c0.9-2.1-0.9-4.1-2.2-5.7c-5.2-6.1-11.6-10.9-17.8-15.9
		C254.5,320.3,248.2,315,241.7,309.8z"/>
	<path class="st80" d="M259.7,368.8c9.2-0.1,18.4,0,27.6,0.7c6.8,0.5,13.8-1.4,20.8-0.2c1.1,0.2,3.3-0.1,3.8-1.8
		c0.4-1.4-0.2-3-1.2-4.1c-5.3-6-10.2-12.5-17-17.2c-6.8-4.7-13-10.2-19.4-15.4c-3.8-3.1-8.6-4.9-11.6-9.1c0.7,0,1.3,0,2,0
		c3.6,0.9,6.3,3.5,9.6,5c0.4,0.2,0.8,0.5,1.2,0.8c3.6,2.7,6.9,5.9,10.9,8.2c0.4,0.2,0.8,0.5,1.2,0.7c5.9,4.7,12.2,8.7,17.4,14.2
		c6,5,12.6,9.1,18.6,14.2c4.5,3.8,8.2,8.2,12,12.6c1.6,1.9,2.9,4.3,1.6,6.8c-1.2,2.4-3.7,2.6-6.1,2.7c-12.6,0.6-25.2,0-37.8,0.2
		c-2,0-4,0.1-6,0.3c-1.9,0-3.5-0.9-5-1.9c-6.4-4.1-12.6-8.6-19.1-12.5C261.7,372.2,259.6,371.3,259.7,368.8z"/>
	<path class="st81" d="M274.7,327.8c-3.8-1.2-7.2-3.1-10-6c-0.3-0.7-0.7-1.3-1-2c1.3,0.3,2.7,0.7,4,1
		C270,323.2,274.2,323.7,274.7,327.8z"/>
	<path class="st70" d="M203.7,276.9c2.9,0.9,5.4,2.3,7,5C207.8,281,205.4,279.5,203.7,276.9z"/>
	<path class="st64" d="M241.7,309.8c5.5,1.3,8.8,5.7,12.9,9c8.1,6.6,16.7,12.6,23.9,20.3c0.7,0.7,1.6,1.3,2.1,2.2
		c1.3,2.4,3.7,5.1,2.5,7.6c-1,2.1-4.3,0.9-6.5,0.9c-12.7,0.1-25.3,0.1-38,0c-2,0-4-0.1-5.8,1c-7.7-2.8-14.8-6.4-20.1-13
		c0-0.3,0-0.7,0-1c3.4-2,7.2-0.4,10.5-0.3c11.9,0.6,23.8-1.7,35.7,0.3c1.8,0.3,3.9,0.2,4.8-1.7c0.8-1.8-0.8-3-1.8-4.3
		c-3-3.8-6.7-6.9-9.2-11.1c-0.3,0-0.7,0-1,0c-1.2-0.8-2.2-1.8-3-3c-2.5-1.8-5.5-3.1-7-6C241.7,310.5,241.7,310.2,241.7,309.8z"/>
	<path class="st82" d="M263.7,312.9c-2.4-0.7-4.5-1.9-6-4c2.3-4.2,7-2.8,9.6-2.3c10.7,1.9,21.3,0.9,31.9,0.2
		c6-0.4,11.8,1.3,17.8,0.8c26.3-1.8,52.7-0.4,79.1-1c15.8-0.4,31.6,0.2,47.4,0.3c8.7,0,17.4,1.4,26-0.9c1.6-0.4,2.9,0.4,4.4,0.7
		c9.6,1.5,19.3,0.9,28.9-0.2c2.3-0.3,4.3-0.1,6.3,0.5c7,1.8,13.8-0.8,20.7-0.1c2,0.2,4-0.1,5.8,1c-2.2,5.2-6.5,7.3-11.9,7.7
		c-8.2-2.2-16.5-0.8-24.8-0.9c-3.8,0-7.6,0.2-11.4-0.1c-8.4-0.8-16.8-0.6-25.2,0.2c-4,0.4-7.9-0.7-12-0.5
		c-14.8,0.6-29.6-0.3-44.4,0.7c-6.8,0.5-13.9,0.9-20.9-0.5c-5.9-1.1-12,0-17.9,0.1c-15.8,0.3-31.6-0.7-47.4-0.4
		c-9.4,0.2-18.9-0.6-28.2,0.9c-1.6,0.3-3.3-0.1-5-0.3c-4.8-0.6-9.5-1.3-14.4-0.5C269.4,314.8,266.4,314.3,263.7,312.9z"/>
	<path class="st83" d="M524.7,314.9c4.3-1.3,7.7-4,10.9-7c2.9-0.3,4.2-3.4,7-4c3.1,1.4,0.1,2.4-0.4,2.8c-8.1,6-16.4,11.8-24.5,17.7
		c-8.8,6.4-17.6,13-26.4,19.4c-4.8,3.5-9.7,6.8-14.6,10.1c-1.9,1.1-3.2,2.9-5,4c-1.6,1.4-3.9,1.9-5,4c0.3,0.9-0.2,1.3-0.9,1.7
		c-2.2,0.7-4.3,1.7-6,3.3c-1.1,1-2.3,2-4,1.2c-0.9-3,1.6-4.2,3.3-5.4c10.5-7.2,20.5-15.2,31-22.3c1.5-1,3.4-1.6,3.3-3.9
		c2.1-3.5,6-4.7,8.9-7.1c2.1-1.3,4.1-2.7,6.2-4.1c3-1.9,6-3.9,8.9-5.9C519.9,317.9,522,315.8,524.7,314.9z"/>
	<path class="st81" d="M465.7,362.8c0.3-0.3,0.7-0.7,1-1c1.7-0.3,3.3-0.7,5-1c0.6,2.3-1.3,3.2-2.7,4.3c-8,6.2-16.1,12.3-23.8,18.8
		c-3.1,2.7-6.5,4.9-8.2,9c-1.4,3.5-5.5,3.9-8.6,5.6c6.7,1.1,13.3,1.1,19.9,1c6.1-0.1,12.2-1.1,18.2-0.2c2.3,0.3,4.6,0,6.9-0.2
		c3.4-0.3,6.6,0.1,9.3,2.5c0.1,0.5,0.2,1.1-0.2,1.4c-6.8,5.5-13.6,10.9-21.9,14c-16.9-1.6-33.8,0.1-50.7-0.8
		c-4.8-0.2-9.6,0.2-14.4,0.7c-6.3,0.7-12.6-0.4-18.9-0.4c-14.3,0-28.5,0.5-42.8-0.1c-1,0-2,0.1-2.9,0.5c-2,0.8-3.5-0.2-5-1.2
		c-4.3-3-8.9-5.6-13-8.9c-1.5-2.3-5.8-2.3-5.2-6.3c6.4-2.1,13.1-1.6,19.7-1.5c8.6,0.1,17.3,1.6,25.8-0.8c3.2-0.9,6,1.2,8.9,1.3
		c-14.2-15.6-31.4-27.7-47.5-41c-3.4-2.8-7-5.6-11-7.7c-5.7-4.7-11.3-9.3-17-14c1-0.9,2-0.7,3,0c6.8,3.2,12,8.6,18.1,12.8
		c9.1,6.3,17.7,13.1,26.8,19.4c3.1,2.2,5.3,5.6,9.1,6.8c4.7,2.8,8.8,6.3,13.6,9.2c19,11.5,39.4,12.2,60.1,7.3
		c8.7-2.1,16.7-6.8,23.7-12.4C448.9,373.6,457.6,368.7,465.7,362.8z"/>
	<path class="st84" d="M517.7,319.9c-2.5,2.7-5.5,4.7-9,6c-9.7,1.3-19.5,1.7-29.3,1.1c-12.8-0.7-25.6-0.4-38.4-0.4
		c-9.6,0-19.3-0.6-28.8-0.2c-12.3,0.4-24.6-0.7-36.8-0.1c-14.8,0.7-29.5-0.4-44.2,0.3c-9.6,0.5-19.3,0.9-28.9,0.2
		c-6.6-0.5-13.2,1.1-19.7-0.9c-3.4-1.4-6.3-3.5-9-6c1.7-1.7,3.9-1.8,6-2.1c10.1-1.4,20.3-1.8,30.5,0c3.3,0.6,6.6-0.3,9.9-0.5
		c7.6-0.5,15.2,0.3,22.8,0.1c8.6-0.1,17.2-0.6,25.8-0.1c10.3,0.5,20.5-0.8,30.7-0.3c8.7,0.5,17.5,0,26.3,0
		c13.2-0.1,26.5,0.7,39.6-0.1c9.7-0.6,19.4,1,29.2-0.1C501.9,316,510.5,315,517.7,319.9z"/>
	<path class="st85" d="M517.7,319.9c-6.9-2.4-14.2-1-21.3-2.1c-4.3-0.7-9.6,1.1-14.6,1.2c-0.8,0-1.9,0.7-2.4,0.4
		c-7.1-4.3-14.5,1.3-21.5-0.7c-5.1-1.5-10.5,2-15.5-1.2c-1.9-1.2-3.6,1.4-5.6,1.3c-5.6-0.2-11.1-0.4-16.7-0.6
		c-4.2-0.2-8.6,0-12.7,0.3c-5.8,0.4-11.5,0-17.1-0.1c-6.1-0.1-12.1,1.3-18.4,0.4c-4.8-0.7-10.5,0.2-15.6-0.3
		c-6-0.6-11.7,1.2-17.9,0.1c-7.8-1.5-16.3,0.2-24.5,0.8c-1.7,0.1-3.2,0.6-4.8-0.1c-3-1.3-6-1.9-9.2-0.4c-0.3,0.1-0.7,0.2-1,0.1
		c-8.6-2.5-16.9,1-25.4,1c-3.8-1.7-7.2-3.9-10.1-7c8.6,0.2,17.3,0.4,25.9,0.5c6.5,0.1,13.5,0.8,20.2-1.2c2.3-0.7,5.2,0.6,7.8,0.6
		c9.6,0.1,19.3-0.6,28.9,0.2c8.7,0.8,17.6,1,26,0.2c9-0.8,17.7,0.7,26.7,0.1c18.1-1.2,36.3-1.1,54.5-0.2c7,0.3,14.4,0.2,21-0.3
		c8.6-0.7,17,2.1,25.6,0.2c6.3-1.4,13.1-0.2,19.7-0.3c2.1,0,3.4,1.2,4.9,2.1C523,317.4,520.6,319,517.7,319.9z"/>
	<path class="st86" d="M502.7,329.9c-2.4,3.2-6.4,4.2-9,7c-0.4,0.4-0.9,0.6-1.5,0.7c-15.1-1.3-30.2-0.5-45.3-0.5
		c-7.8,0-15.6-1.1-23.4-0.5c-8.8,0.7-17.5,0-26.3,0.3c-7.2,0.2-14.5,1.2-21.8-0.2c-5.9-1.2-11.6,0.4-17.4,0.7
		c-9.2,0.5-18.2-1.9-27.3-1c-10.8,1.1-21.6,0-32.4,1c-1.2,0.1-2.2-0.2-2.6-1.5c-1.4-1.3-2.7-2.6-4.1-3.9c1.4-3,3.9-3.6,6.9-3.7
		c13.8-0.6,27.5,1.7,41.2,0.5c10.8-0.9,21.5,0.5,32.2,0c11.9-0.5,23.9,1.5,35.5-0.1c10.7-1.4,20.9,1.8,31.2,0.3
		c11.9-1.7,23.9,1.1,35.6-0.4c8.7-1.1,17.2,1.9,25.8,0.1C501.2,328.4,502.1,329,502.7,329.9z"/>
	<path class="st87" d="M502.7,329.9c-7.3,0.9-14.5-1-21.6-0.6c-10.8,0.6-21.4,0.5-32.1-0.1c-5.9-0.3-12,1.4-18.1,1.2
		c-3.5-0.1-6.8-0.6-10.2-1c-3.4-0.5-6.6-0.9-10.1,0.8c-3.2,1.5-7.1,0.4-10.5,0.1c-3.7-0.3-7.1-0.4-10.6,0.5
		c-0.3,0.1-0.7,0.5-0.8,0.5c-4.7-3.5-9.7-1-14.6-0.7c-5.1,0.3-10.2-0.4-15.2-0.8c-15.1-1.1-30.2,1.5-45.4-0.2
		c-6.7-0.8-15-2.2-21.8,2.4c-3.4-1.4-6.3-3.5-9-6c14.2-1.6,28.5,0.7,42.7-0.2c8-0.5,16-0.7,23.9-0.5c6.3,0.2,12.7-0.8,19.2,0.4
		c3.8,0.7,7.9-1.3,12-0.8c7.3,0.9,14.7,0.7,22.1,0.8c4.3,0,8.7-1,13.1-0.6c14.5,1.3,29.1,0.2,43.6,0.3c10.6,0.1,21.3,1.2,31.9,0.5
		c5.9-0.4,11.7-1,17.5,0.1C507.2,327.9,505.2,329.2,502.7,329.9z"/>
	<path class="st88" d="M465.7,362.8c-2.9,5.1-8.3,7.1-12.8,10c-6.3,4-11.8,8.9-18.2,12.9c-10,6.3-20.6,9-32.1,10.2
		c-9.7,1-19.1-0.2-28.4-2.3c-5.4-1.2-10.6-3.7-15.5-6.9c-5.2-3.4-11-6-15.1-10.9c5.4,1,8.6,5.6,13.3,8c14.2,7.4,28.9,11.3,45,9.7
		c5.8-0.6,11.5-1,16.7-3.8c0-2.6,2.3-2.5,3.9-3c6.8-2.3,13-5.7,18.4-10.6c4.5-3.6,8.8-7.4,14.7-8.4
		C459.5,367.2,461.2,362.1,465.7,362.8z"/>
	<path class="st74" d="M295.8,335.8c0.6,0.3,1.3,0.7,1.9,1c6.7,2.5,12.3,6.9,18.4,10.4c7.4,5.3,15.1,9.9,22.6,15.1
		c1.7,1.2,3.8,2.1,4.6,4.3c5.2,6.7,12.6,10.5,19.9,14.3c10.8,5.5,22.3,8.2,34.5,7.7c2.5-0.1,5.4-1,7.3,1.7c-3.1,2.6-7-0.2-10.2,1.6
		c-18,0.2-33.6-5.8-47.7-17c-10.3-8.2-21.5-15.3-32.2-23c-6-4.3-12-8.8-17.9-13.3C296.1,337.9,293.9,337.6,295.8,335.8z"/>
	<path class="st74" d="M394.7,391.8c3-2.6,7,0.6,10-2c0.3-0.8,0.8-1.6,1.7-1.7c11.6-1.8,22.2-6.5,32.3-12.2c1.1-0.1,2.2,0,3,0.9
		c-5,5.5-11.4,8.5-18.1,10.9c-1.7,0.6-3.5,0.7-4.9,2.1C410.6,389.8,402.8,393,394.7,391.8z"/>
	<path class="st69" d="M289.7,336.8c-1,0-2,0-3,0c-4-3-7.9-6.2-12-9c-1.5-3.1-5.6-3.7-7-7c6.7,2.3,11.3,7.6,16.9,11.5
		C286.5,333.6,288,335.3,289.7,336.8z"/>
	<path class="st71" d="M482.7,401.8c-8-2.2-16.2-1.3-24.3-1.1c-4.8,0.1-9.6,0.2-14.3,0.1c-5.9-0.1-11.8,0.5-17.6-1
		c-0.4-0.1-0.8-0.4-1.2-0.6c0.4-1.8,1.8-1.9,3-2.3c4.1-1.3,7-3,9.4-7.6c2.5-4.7,8.6-7.5,12.9-11.4c6.7-6.2,15.1-10.2,21.2-17
		c7.8-6,15.7-12,23.5-18c1.3-1,2.7-1.9,4.5-2c0.3,0.4,0.4,0.9,0.3,1.4c-4.4,5.7-10.6,9.5-16.3,13.6c-8.2,6-16.1,12.3-23.3,19.5
		c-1.1,1.1-2.1,2.1-3,3.4c-2.8,4.3-2.2,5.4,2.9,5.8c13.7,1,27.5-0.1,41.2,0.1c1.7,0,3.3-0.3,4.9,0.6c1.1,2.4-1.2,2.9-2.4,3.9
		c-1.5,1.2-3.2,2.2-4.8,3.3c-3.8,2.7-7.7,5.2-11.6,7.7C486.1,401.2,484.8,402.7,482.7,401.8z"/>
	<path class="st89" d="M499.7,341.8c0-0.3,0-0.7,0-1c5.8-5.5,12.6-9.6,19-14.3c11.8-8.8,23.6-17.6,36-25.7c0.7,0,1.3,0,2,0
		c-3.4,4.4-8.6,6.7-12.8,10.1c-6.1,5-12.8,9.3-19.2,13.9c-6.6,5.3-13.9,9.5-20.1,15.4C503.3,341.4,501.8,342.6,499.7,341.8z"/>
	<path class="st88" d="M471.7,357.8c1.2-1.9,2.5-3.8,5-4C475.4,355.7,474.2,357.6,471.7,357.8z"/>
	<path class="st64" d="M252.7,319.8c4.6,3.4,8.3,7.7,11.5,12.3c0.9,1.3,2.2,3,0.8,4.5c-1.6,1.7-4,2.5-6.4,2
		c-6.4-1.4-12.7-1.7-19.4-1c-8.8,0.9-17.8,0.6-26.6-0.7c-2.1-0.2-3.5-1.7-5-3c10.6,2.8,21.5,0.2,32.2,1.8c4.4,0.6,9.1-0.3,13.5-1.3
		c2.2-0.5,3.9,0.7,5.8,0.5c1.1-0.1,2.5,0.5,3-1c0.3-1.1-0.7-1.7-1.4-2.4C257.4,328,253.6,325,252.7,319.8z"/>
	<path class="st64" d="M248.7,316.8c1.3,0.7,2.3,1.7,3,3C249.8,319.8,248.8,318.8,248.7,316.8z"/>
	<path class="st90" d="M263.7,429.9c-6.3-4.3-12.7-8.6-19-12.8c-2.3-2.8-0.3-4.1,2-4.3c6.8-0.3,13.6-1.1,20.4-1
		c5.4,0.1,10.9,0,16.4,0.6c2,0.2,5.1,1.2,6-1.9c0.8-3,0.2-5.7-2.3-8.2c-5.3-5.3-11.4-9.6-17.1-14.4c-13.1-10.9-26.9-21-40.5-31.4
		c-3.2-2.5-7-4.7-8.8-8.8c0-0.3,0-0.7,0-1c2.2-1.5,3.4,0.4,4.7,1.5c21.6,16.1,43.2,32.4,64.6,48.9c2.6,2.2,5.6,4.1,8,6.6
		c3.6,3.7,7.4,7.2,11.5,10.2c4.4,3.2,4.6,7.8,5.3,12.4c0.4,2.3-1.7,2.5-3.2,3c-5.2,1.6-10.6,0.7-15.8,0.5
		C285.1,429.3,274.4,430.1,263.7,429.9z"/>
	<path class="st78" d="M220.7,347.8c5.7,6,13.1,9.9,19.5,15.2c11.6,9.6,24.2,17.9,35.3,28.1c3.5,3.2,7.6,5.7,11,9.2
		c2.8,2.8,4.3,5,4.6,9.3c0.2,4.4-1.5,4.4-4.4,4.3c-6.7-0.3-13.4-1.3-20.1-0.8c-6.8,0.5-13.6,0.7-20.3,0.9c-2.1,0.1-2.2,1.6-1.7,3.2
		c-8-5.4-16-10.7-24-16.1c-1.1-3.3,1.4-3.8,3.5-4c4.6-0.4,9.3-1,14-0.3c8.3,1.2,16.6,0.3,24.9,0.1c1.7,0,4,0.1,4.8-1.9
		c1-2.3-0.5-4.1-1.9-5.8c-2.4-3-5.1-5.7-8.3-7.8c-1.6-1.7-2.8-3.7-5.2-4.5c-4.3-1.6-6.9-5.3-10.3-8.1c-1.8-2.6-4.4-4.3-7.1-5.9
		c-0.4-0.2-0.7-0.5-1.1-0.8c-2.2-2.2-4.7-4-7.5-5.5c-0.6-0.4-1-0.9-0.7-1.7c-2.4-4-7.6-5-10-9C217.4,346.5,219.1,347.2,220.7,347.8z
		"/>
	<path class="st91" d="M289.7,397.8c-7.3-3.4-12.7-9.3-19.1-14c-12.2-8.9-24.2-18.2-36.3-27.3c-4.5-3.3-8.6-7.1-13.6-9.7
		c-2.2-3-5.8-4.1-8.4-6.6c-1.2-1.2-2.1-1.9,0.3-2.4c6,5.5,13.7,8.2,20.1,13c6,4,11.9,8,17.9,11.9c1.3,0.8,2.4,1.7,3.2,3
		c4.1,4.9,9.7,7.8,14.7,11.6c7.2,5.5,14.7,10.5,21.1,17C290.2,395.5,290.7,396.6,289.7,397.8z"/>
	<path class="st92" d="M225.7,354.8c0.3,0.3,0.7,0.7,1,1c2.6,2.1,5.1,4.4,8,6c2.5,1.8,4.7,3.8,6.8,6c1.2,2.3,3.5,3.6,5.4,5.1
		c3.7,2.9,4.3,7,5.2,11c0.6,2.6-1.2,3.5-3.5,3.7c-11.4,0.8-22.8,0.4-34.3,0c-3.5-0.1-7-0.4-9.7,2.6c-5.3-3-10.3-6.2-15.1-10
		c3.9-4.4,9-1.9,13.4-2.1c12.3-0.4,24.6-0.1,37.3-0.6c-4.2-2.2-2.7-6.8-5-9.9c-3.6-4.9-9.4-7.5-12.5-12.6
		C223.7,354.8,224.7,354.8,225.7,354.8z"/>
	<path class="st93" d="M204.7,390.1c-1-5,3.4-4,5.4-4.1c6.8-0.1,13.6,0.2,20.3,0.8c6.4,0.6,12.7-1.6,19.1-0.4
		c1.3,0.3,2.2-0.9,1.7-2.3c-1.7-4.6-2.3-10-7.7-12.5c-1.7-0.8-2.1-2.5-2.9-3.9c0.7-0.6,1.3-0.5,2,0c3.5,2.4,5.8,6.4,10,8
		c1.6,1.4,3.2,2.8,5,4c2.9,2.1,5.7,4.3,8.1,7.1c2.6,3,5.3,5.8,3.5,9.5c-1.5,3-5.8,2-8.6,2c-12.1,0.2-24.1-0.3-36.2-0.4
		c-2,0-3.6,0.8-3.9,3C215.2,397.6,209.6,394.3,204.7,390.1z"/>
	<path class="st91" d="M263.7,429.9c6.2-1.6,12.5-1.7,18.9-1.8c9.7-0.2,19.5,1.8,29.2-0.2c2.1-0.4,1.8-0.9,1.8-2.7
		c0-8.8-7.6-11.7-12.5-16.7c-1.5-1.5-3.3-2.8-4.4-4.7c2.2-1.8,3.8,0.1,5.6,0.9c0.4,0.2,0.7,0.5,1.1,0.8c1.4,1.3,2.8,2.7,4.5,3.7
		c0.9,0.6,1.7,1.4,2.6,2.1c4,4.6,9.9,7.1,13.6,12c0.8,1.4,2.1,2.4,3.4,3.3c0.6,0.5,1.1,1,1.6,1.6c4.3,7.6,2.1,12.1-6.5,11.8
		c-12.2-0.3-24.5,0.3-36.7,0.2c-1.7,0-3.8-0.8-4.3,1.9C275.6,438.1,269.6,434,263.7,429.9z"/>
	<path class="st94" d="M281.6,442.1c-0.7-1.7-2.4-3.5,1.6-3.4c9.6,0.2,19.3,0.1,28.9-0.8c2.8-0.3,5.8,1,8.8,0.9
		c9.8-0.1,11.2-2.3,6.8-11c5.7,0.2,10.9,7.7,8.9,12.7c-0.8,2-2.5,2.6-4.4,2.7c-11.1,0.7-22.2,2.2-33.4,0.4
		c-4.2-0.7-8.3,0.3-12.2,1.7c-1.7,0.1-2.3-2-3.9-2.2C282.4,442.7,282,442.4,281.6,442.1z"/>
	<path class="st95" d="M309.7,411.8c-1-0.4-1.6-1-2-2c-1.8-1.1-3.1-2.9-5-4c-4.8-3.5-9.7-6.9-14-11c-9.6-8-19.4-15.8-29.8-22.7
		c-2.1-1.4-5.1-2.9-5.1-6.4c2,1,4,2,5.9,3c8.6,6.5,17.8,12.2,27,18c0.9,0.4,1.6,1,2,1.9c2.3,5.1,7.7,6.6,11.6,9.7
		c4.5,3.6,9.2,7,14,10.3c0.4,0.2,0.8,0.5,1.1,0.8c2.4,2.4,4.9,4.6,7.9,6.2c0.4,0.2,0.7,0.5,1.1,0.8c1.1,1,2.3,2,3.7,2.7
		c1.6,0.9,3.1,1.9,4.4,3.2c2.8,3.4,7.1,5.3,9.6,9.1c3.1,4.2,7.4,7.2,11.6,10c6.2,4.2,12.9,7.6,17.7,13.5c0.4,0.5,1.1,1.2,1.6,1
		c5.8-1.9,10.4,2.7,15.9,2.6c6.3-0.1,12.5-0.1,18.8,0c2.8,0,5.4-1,7.4-2.6c6.8-5.7,15.8-7.7,22.4-13.8c1.3-1.2,3.3-1.9,4.7,0.3
		c0.1,2.5-2.1,3.6-3.3,5.3c-1,1.3-2.6,2.5-1.7,4.3c0.8,1.5,2.6,1.2,4,1.3c10.3,1.1,20.5-0.4,30.8-0.1c4.2,0.1,8.3,0.6,12.4,1.2
		c1.4,0.2,3.1,0,3.4,2.1c-8.3,5.7-16.6,11.4-25,17.1c-7.4-2.1-14.9-0.5-22.4-0.6c-12.4-0.3-24.9,0.2-37.3-0.1
		c-16.3-0.4-32.5,0.5-48.8-0.4c-5.7-0.3-11.6,0.4-17.4,0.4c-2.2,0-4.3,0.7-6.1,2c-9.3-6.3-18.7-12.6-28-18.9c-2-2.4-0.7-3.6,1.6-4.2
		c1.8-0.5,3.6-0.4,5.4-0.4c11.6,0,23.3,0,34.9,0c2.1,0,4.7,0.5,5.8-1.9c1-2.3-0.9-4.2-2.3-5.7c-7.4-7.6-15.6-14.3-23.8-21
		C319.5,419,315,414.9,309.7,411.8z"/>
	<path class="st96" d="M330.7,475c-0.8-2.1-0.1-3.3,2.2-3.2c8.5,0.1,17-0.5,25.5-0.2c8.8,0.3,17.6,0.4,26.4-0.7
		c3.6-0.5,6.8,1,10.4,1c17.5-0.2,35-0.1,52.5-0.1c4.2,0,8.5-1.2,12.7,0c1.2,0.3,2.2,0.5,2.4,2c-7.5,5.2-14.7,10.9-23,15
		c-10.2-0.2-20.4,0-30.6,0.1c-10.9,0.1-21.7,0-32.6,0c-7.9,0-15.9-1.1-23.7,0.9C345.4,484.8,338,479.9,330.7,475z"/>
	<path class="st97" d="M565.6,346.8c2.8,2-0.3,2.8-1.1,3.3c-3.3,2.5-7.1,4.5-9.9,7.7c-0.4,1.8-1.9,2.6-3.2,3.6
		c-18,13.9-35.8,28.1-53.8,42.1c-5.2,4.1-9.9,8.9-15.3,12.8c-2.9,2.1-5.5,4.7-5.8,8.9c-0.2,3,0.9,4.3,3.8,4.4
		c5.1,0.1,10.2-0.4,15.4-0.5c7.6-0.1,15.2,1,22.9-0.4c2.1-0.4,5.1-0.2,6,3c-7.5,6-15.4,11.5-24,16.1c-1.3-1.6-3.3-1.7-5-1.5
		c-13.1,1.1-26.1-1-39.2,0.4c-5.5,0.6-8-3.3-5.8-8.7c1.8-4.3,5.5-7,8.6-10.2c2.6-2.5,5.4-4.8,7.5-7.8c4.4-5.4,11-7.9,16.3-12.1
		c16.9-13.6,34.5-26.4,51.9-39.3c1-0.8,2.3-1.3,2.7-2.8c6-5.4,13.3-9,19.7-13.8c1.4-1.1,2.9-2.1,4.3-3.2
		C563,348.2,564.3,347.5,565.6,346.8z"/>
	<path class="st98" d="M524.7,431.7c-1.4-1.3-3.4-2.1-5-1.8c-7.7,1.6-15.4,0.3-23.1,0.7c-6.2,0.3-12.4,0.2-18.6,0.1
		c-2.5,0-2.9-1.4-2.9-3.9c-0.1-6.2,3.9-9.4,7.9-12.7c15.9-12.7,31.8-25.3,47.8-37.8c7.9-6.2,16-12.3,24-18.5c0.7,0,1.3,0,2,0
		c-2.9,4.9-8.1,7.3-12.5,10.5c-9,6.6-17.4,14.1-26.3,20.9c-6.1,4.7-12.4,9.4-17.1,15.7c-2.6,3.5-2.1,8,2.2,8.3
		c7.7,0.5,15.3,2.3,23.1,0.9c6.7-1.2,13.5-0.5,20.2-0.3c1.1,0,1.8,0.8,2.3,1.8c-7,4.9-14,9.8-21,14.7
		C526.7,431,526,432.1,524.7,431.7z"/>
	<path class="st99" d="M352.7,489.7c1.9-2.5,4.7-2.9,7.6-2.8c8.8,0.1,17.7,0.9,26.5,0.6c6-0.2,12,0.4,18.1-0.1
		c4.3-0.4,9.1-1.3,13.6,0.2c1.9,0.6,3.9,0.5,5.9,0c5.3-1.5,10.4-0.3,15.4,1.3c-9.4,7.8-20.6,11.1-32.3,12.7
		c-18.4,2.4-36.1-0.6-52.4-9.8C354.1,491.1,353.5,490.3,352.7,489.7z"/>
	<path class="st100" d="M570.7,400.7c2.4-2.9,0.5-2.9-1.9-2.9c-13.5,0.1-26.9,0.1-40.4,0c-1.9,0-4.8,1.3-5.5-1.7
		c-0.6-2.7-0.6-5.4,1.8-7.8c8.7-8.6,18.2-16.4,27.9-23.9c5.6-4.3,10.7-9.3,17.1-12.6c-0.3,0.7-0.7,1.3-1,2c-0.4,2-1.9,3.2-3.4,4.2
		c-7.6,4.7-13,11.7-19.3,17.9c-1.2,1.2-2.1,2.5-2.7,4.1c-1.5,4.2-0.6,5.3,3.9,4.9c6-0.5,12-0.5,17.9,0c6,0.5,11.9,1,17.8-0.2
		c1.6-0.3,3.4-0.3,4.9,0.4c1.6,0.8,3,1.9,0.8,3.6C582.3,392.2,577.7,398.2,570.7,400.7z"/>
	<path class="st101" d="M309.7,411.8c0.8-1.1,1.6-0.7,2.5,0c8.6,7.2,17.8,13.7,26,21.5c4,3.8,9.1,6.5,12.1,11.5
		c1.1,1.8,3.1,3.6,2,5.8c-1.1,2.2-3.8,2.2-6.2,2.2c-13.1,0-26.3,0-39.4,0c-2,0-5.3-1-4.2,3.3c-5.5-3.5-11-6.8-16.1-10.9
		c3.5-4.8,8.8-3.8,13.3-3.1c11.3,1.9,22.4-0.2,33.6-0.6c3.8-0.1,2.5-4.1,1.8-5.9c-1.4-3.4-3.8-6.5-7.6-7.9c-0.3-0.3-0.7-0.7-1-1
		c-1.2-0.8-2.2-1.8-3-3C319.3,419.5,313.5,416.8,309.7,411.8z"/>
	<path class="st102" d="M460.7,427.8c-1.9,2.1-3.7,4.2-5.7,6.2c-1.6,1.6-2.8,3.4-3.5,5.4c-1.5,4.3,0.7,6.4,5,6.1
		c9.7-0.6,19.4-1.6,29.1,0.1c4.2,0.7,8.2-1.5,12.3-0.8c1.8,0.3,4.1-0.1,2.8,3c-3.9,3.6-8.2,6.7-13,8.9c-11.7-2.8-23.7-2.2-35.5-1.4
		c-5.2,0.4-10.1-0.9-15.2-0.8c-2.6,0.1-3.1-2.2-1.7-4.8c1.7-3.1,5.4-4.5,6.5-8c0.1-0.2,0.2-0.4,0.3-0.6c2.3-2.5,5.2-4.2,7.1-7
		c2.4-3.4,5.4-6,9.6-7.2C459.5,427,460.2,427.2,460.7,427.8z"/>
	<path class="st92" d="M588.7,388.7c1.1-2.6-0.6-2.7-2.4-2.9c-3.4-0.5-6.5,1-9.9,1.1c-7.6,0-15.1-1.4-22.7-1
		c-2.8,0.2-5.5,0.1-8.4,0.7c-3,0.7-4.9,0-4.2-4.3c1.3-7.4,7.5-10.8,11.9-15.5c4.6-4.9,10.3-8.7,15.6-13c0.3,0,0.7,0,1,0
		c-0.3,2.8-2.5,4.3-4.5,5.6c-5.1,3.1-10.1,6.1-9.7,13.2c0,0.5-0.5,1.2-1,1.6c-0.9,0.9-2.9,1.2-2.3,2.8c0.7,1.7,2.5,0.9,3.9,0.9
		c7.4,0.1,14.9,0.3,22.3,0.3c7.1,0,14.2,0.8,21.3,0c1.4-0.2,1.7,0.5,1.9,1.6C597.4,382.8,593.8,386.9,588.7,388.7z"/>
	<path class="st80" d="M499.7,341.8c7.3-3.3,12.4-9.5,19.1-13.6c1.9-1.2,3.5-3,5.9-3.4c-1.9,3.6-5.7,4.9-8.7,7.2
		c-7.9,6.2-15.9,12.4-23.6,19c-4.5,3.8-6.9,9.5-11.4,13.5c-1.7,1.5-1.3,2.9,1.7,3.4c7.4,1.2,14.7,0,22,0c9-0.1,18.1,0.6,27.1,0.9
		c0.4,1.7-1,2.4-2,3.1c-6.6,4.5-13,9.2-19.8,13.4c-1,0.6-2.1,1.2-3.3,0.5c-10.2,0.4-20.3,0.3-30.5,0.7c-6.8,0.3-13.7-0.5-20.5-0.4
		c-2.2,0-1.9-1.7-1.5-3.3c1.7-6.8,7.5-10.4,12.1-14.8C476.6,358.4,489,351.2,499.7,341.8z"/>
	<path class="st95" d="M506.6,385.8c8.7-5.2,17-10.8,25-17c2.4-0.2,3.8-2.4,5.9-3c1.2,2.3-0.9,2.8-2.1,3.7
		c-18.4,14.2-37.5,27.6-55.5,42.3c-3.9,3.2-9.1,4.7-12.3,9c-3.1,2.1-5.8,5-9,7c-3.5,1.7-6.4,4.1-9,7c-2.9,2-5.1,5-8,7
		c-5.4,0.7-8.3,5.7-13,7.8c-4.8,2.1-9.6,4.3-13.6,7.9c-4.4,4-10.4,2-15.6,2.5c-3.7,0.3-7.6-0.4-11.4-0.1c-2.9,0.2-5.3,0.1-7-2.4
		c-0.5-0.7-0.9-1.2-2-0.7c-4.6,2.1-7.5,0.7-10.8-3.3c-3.2-4-8.2-6.7-12.8-9.4c-5.6-3.3-10.8-7.1-14.8-12.3c4.4-1.3,6.1,3.1,9.3,4.4
		c0.6,0.4,1.2,0.9,1.7,1.4c12.6,9.6,26.4,15.5,42.7,14.9c7.6-0.3,15.1-0.5,22.5-2.8c7.9-2.4,15.2-5.8,21.4-11.2
		c0.5-0.5,1.1-1,1.7-1.4c6.4-4.2,12.5-8.6,18-13.9c9.2-7,18.8-13.4,27.5-21.2c3.3-3,7.6-4.7,11-7.5c0.9-0.7,2-1.2,2-2.6
		C501.3,389.8,504,387.8,506.6,385.8z"/>
	<path class="st71" d="M287.7,388.8c-0.3-0.6-0.7-1.3-1-1.9c5.2-2.4,10.8-0.4,16.1-0.8c9.2-0.7,18.5-0.2,27.7-0.2
		c2.2,0,4.7,0.3,5.8-2c1.1-2.4-0.8-4.3-2.3-6.2c-7.5-9.7-17.3-16.8-27.2-23.7c-1.3-0.9-2.5-1.7-3.1-3.1c5.3,0.3,8.1,4.9,11.9,7.5
		c12.6,8.7,23.7,19.4,36.4,27.9c0.9,0.6,2.1,1.6,2.3,2.5c0.9,4.8,4.7,6.5,8.5,8.2c1.3,0.6,3.4,0.9,2.5,2.9c-0.6,1.3-2.6,1.9-3.9,1.1
		c-4.7-2.7-9.3-0.7-14.1-0.4c-6.7,0.4-13.4-0.4-20.1-0.4c-6.5,0-13,0.4-19.5,0.7c-0.7,0.7-1.5,0.7-2.3,0.3
		C299,397.7,292.7,394.2,287.7,388.8z"/>
	<path class="st81" d="M274.7,327.8c4.8,2,8.8,5,12,9C281.8,335,278.2,331.5,274.7,327.8z"/>
	<path class="st103" d="M441.7,376.8c-1,0-2,0-3,0c-0.3-2.8,2.3-3.3,3.8-4.6c2.3-2,5.7-2.9,6.8-6.2c3.1-4.6,8.4-6.4,12.6-9.5
		c4.4-3.2,9.1-6.2,13.5-9.3c4.3-2.5,8.4-5.3,12.5-8.1c1.5-1,3-2,4.8-2.3c0.3,0,0.7,0,1,0c2.6,2.1-0.4,2.8-1.2,3.4
		c-5.8,4.3-12.1,8.1-17.7,12.7c-6.2,5.1-14.1,8.1-19.1,14.9C451,370.8,446,373.2,441.7,376.8z"/>
	<path class="st104" d="M329.7,416.7c2.9-3.6,6.8-1.8,10.2-1.8c9,0,17.9,1.5,26.9,0c5.9-0.9,11.9,0.6,17.8,0.7
		c8.6,0.2,17.2-0.7,25.8-0.8c12.4-0.2,24.9,0.1,37.3-0.1c4.7-0.1,9.2,1.4,13.8,1.1c-0.4,3.4-3.7,4-5.7,5.9
		c-4.6,3.1-9.2,6.2-13.9,9.2c-1.5,1-3.1,1.9-4.9,2c-13.7,2-27.5-1.7-41.2,1c-3.1,0.6-6.4,0-9.4-0.5c-9.9-1.5-19.5,0-29.3,1.1
		c-2.4,0-4.5-1.2-6.3-2.6c-4.7-3.4-9.7-6.2-14.6-9.2C334.3,420.7,330.7,420.1,329.7,416.7z"/>
	<path class="st96" d="M329.7,416.7c2.3,1.7,4.7,3.4,7,5.1c6.9,6.2,14.4,11.7,22.2,16.6c10.4,6.5,21.8,9.2,34.2,9.3
		c11.7,0.1,22.8-1.2,33.5-6c3.8-1.7,6.9-4.6,10.5-6.6c2.5-1.5,4.7-3.8,8-3.7c1.4,4.2-3,4.3-4.4,6.5c-0.3,0.3-0.7,0.7-1,1
		c-26,18.9-63.3,18.5-89-1c-0.3-0.3-0.7-0.7-1-1c-5.9-4.8-12.1-9.2-18-14c-1.3-1-2.7-2-4-3c-1.4-0.9-2.6-2.1-4-3c-3-2.3-6-4.6-9-7
		l0,0c-0.9-0.7-2-1.3-2.6-2.3c-0.8-1.7-0.6-2.6,1.5-1.7C319,409.5,324.4,413.1,329.7,416.7z"/>
	<path class="st96" d="M455.7,420.8c2-1.7,4-3.3,6-5c7.3-4.3,14.4-8.7,21-14c5.3-3.3,10.7-6.7,16-10c0.8,0.1,2,0.3,1,1.4
		c-1.2,1.3-2.7,2.5-4.2,3.4c-10.7,6-18.6,15.8-29.3,21.8c-2.6,1.4-4.7,4-7.4,5.5c-3.9,2.5-6.6,6.9-11.8,7.3
		c-1.1-2.6,1.2-3.2,2.5-4.5C451.3,424.5,454.6,423.9,455.7,420.8z"/>
	<path class="st96" d="M313.7,405.8c-1.1,0.9-1.1,0.9,1,4c-6-2.8-10.5-7.6-16-11.1c-2.8-1.7-5.5-3.6-8.1-5.6
		c-1.4-1.1-2.9-2.2-2.9-4.4c6.7,3.9,12.5,9.4,20,12.1C309.1,403.2,312.1,403.7,313.7,405.8z"/>
	<path class="st105" d="M492.7,336.8c-5.2,4.3-10.7,8.3-16.9,11c-7.4,1-14.9,0.5-22.4,0.6c-20.8,0.1-41.6-0.1-62.3-0.1
		c-19.3-0.1-38.6,0.1-58-0.1c-5.8-0.1-11.6,0.8-17.4-0.4c-6.3-3.1-12.5-6.5-18-11c0.5-0.9,1-1.4,2.3-1.4c10.2,0,20.4,0.5,30.6-0.7
		c8.6-1,16.8,1.9,25.5,1c4-0.4,8.2-0.5,12.3-1c5-0.5,10.1,2.1,14.8,0.8c6.4-1.8,12.9-0.4,19-0.4c13.6,0.2,27.2-1.3,40.9,0.3
		c7.3,0.8,15-0.6,22.4-0.3C474.5,335.7,483.8,333.7,492.7,336.8z"/>
	<path class="st106" d="M315.7,347.9c1.5-0.9,3.1-1,4.8-1c7.8,0,15.7,0,23.5,0c11.1,0,22.2,0,33.3,0c16.8,0.1,33.6,0.2,50.4,0.5
		c9.3,0.1,18.8-0.6,28.1-0.2c6.7,0.3,13.5-1.9,20,0.8c-6.5,6.1-14.5,10.1-21.6,15.2c-1.6,1.1-3.5,1.9-4.5,3.7
		c-0.9,1.1-2,1.8-3.5,1.7c-10.4-0.5-20.8-1.8-31.2-0.1c-1.4,0.2-2.7,0-3.9-0.4c-1.9-0.6-3.9-1-5.9-0.7c-11.5,1.8-23.2-0.5-34.6,0.4
		c-8.5,0.7-17.2-1.1-25.6,1.1c-1.1-0.3-2.3-0.4-2.2-2c-7.3-5.7-15.2-10.5-22.9-15.5C318.2,350.4,316.6,349.6,315.7,347.9z"/>
	<path class="st75" d="M342.6,366.8c0.5,0.8,1.2,1,2.1,1c1.5,1,3.4,1.3,4.9,2.4c10.4,7.9,22.4,11.8,35.1,12.9
		c14.6,1.2,29.3,1,43.1-5.4c4.1-1.9,8.1-3.9,11.8-6.5c2.2-1.5,4.4-3.1,7.1-3.4c1-0.3,2-0.7,3-1c0.7,2.4-1.5,2.9-2.7,3.9
		c-2.7,2.2-6.1,3.3-8.2,6.2c-7.1,5.9-16.2,7.7-24.4,11.3c-3.1,1.4-6.7-0.3-9.6,1.7c-8.5,0-17.1,1-25.3-1.2
		c-10.5-2.9-20.6-7.2-29.4-13.9c-2.5-1.9-5.1-3.7-7.6-5.6C341.7,368.4,340.2,367.4,342.6,366.8z"/>
	<path class="st94" d="M288.7,394.8c5.7,2.4,10.1,6.3,14,11c-2.2,0-3.6-2.6-6-2c-2.2-2.1-5.4-3.1-7-6
		C289.4,396.8,289,395.8,288.7,394.8z"/>
	<path class="st75" d="M234.7,361.8c-4-0.2-6.2-2.9-8-6C230.1,356.9,232.8,358.8,234.7,361.8z"/>
	<path class="st75" d="M242.7,367.8c-0.7,0-1.3,0-2,0c-2.9-1.1-4.1-3.9-6-6C238.1,362.9,240.8,364.8,242.7,367.8z"/>
	<path class="st75" d="M257.7,379.8c-2.3-0.6-4.3-1.5-5-4C255.3,376.1,256.5,378,257.7,379.8z"/>
	<path class="st94" d="M302.7,405.8c2.5,0.2,3.8,2.1,5,4C305.2,409.6,304,407.7,302.7,405.8z"/>
	<path class="st94" d="M323.7,423.8c1.3,0.7,2.3,1.7,3,3C324.8,426.7,323.8,425.7,323.7,423.8z"/>
	<path class="st96" d="M331.7,422.8c6.8,3.7,12.9,8.2,18,14c-3.6-0.6-5.3-4.6-9-5C338.6,427.9,333.7,426.8,331.7,422.8z"/>
	<path class="st96" d="M314.7,409.8c3.6,1.5,6.7,3.7,9,7C319.8,415.6,317,413.1,314.7,409.8z"/>
	<path class="st96" d="M323.7,416.8c2,0.1,3.1,1.4,4,3C325.7,419.7,324.6,418.4,323.7,416.8z"/>
	<path class="st95" d="M458.7,427.8c1.9-3.7,5.4-5.5,9-7c-1.9,2.7-4.3,5.1-7,7C460,427.8,459.3,427.8,458.7,427.8z"/>
	<path class="st95" d="M441.7,441.8c2.3-2.7,4.2-5.9,8-7C447.6,437.8,445.4,440.6,441.7,441.8z"/>
	<path class="st96" d="M350.7,437.8c6.3,2.3,11.8,6.4,18.1,9.1c4.5,1.9,9.3,2.7,13.7,3.4c12.3,2,24.8,1.7,37.2-2.4
		c7.2-2.4,13-7,20.1-9.1c-4.3,5.1-10.4,7.6-16.3,10c-14,5.9-28.8,6.2-43.5,3.8c-9.3-1.5-17.7-6.4-25.8-11.3
		C352.7,440.6,351.8,439,350.7,437.8z"/>
	<path class="st96" d="M446.7,430.8c5-0.7,7.3-5.8,12-7c-5.1,5.8-11.4,10.1-18,14c1.7-2,3.3-4,5-6
		C445.4,430.9,445.8,430.6,446.7,430.8z"/>
	<path class="st107" d="M356.7,433.8c7.6-1.9,15.4-3,23.2-2.2c8.1,0.8,16.2,1.5,24.2,0.1c4.5-0.8,8.9,0.2,13.2,0.4
		c4.3,0.3,8.4,0.2,12.6-0.3c2.6-0.3,5.2-0.4,7.8,0.1c-1.1,4.4-5.3,5.2-8.6,6.6c-19.5,8.1-39.4,9-59.6,2.6c-3.2-1-6.4-1.9-9.3-3.5
		C358.7,436.7,356.6,436.2,356.7,433.8z"/>
	<path class="st108" d="M356.7,433.8c7,5.2,15.4,7,23.6,8.6c17.9,3.5,35.2,1.2,51.7-6.7c2.1-1,3.8-2.5,5.8-3.8
		c6.5-2.8,11.6-7.9,17.9-11c1.9,2.2-0.5,2.8-1.5,3.7c-2.5,2.1-5.7,3.4-7.5,6.3c-0.3,0.3-0.7,0.7-1,1c-5,1.6-8.7,5.2-13.1,7.8
		c-8.6,5.1-17.5,9-27.6,9.1c-8.1,0-16.2,0.6-24.3-0.6c-8.9-1.3-16.8-5-24.2-9.6c-6.5-4.1-12.4-9.3-18.5-14.1
		c-0.7-0.5-2.4-1.1-1.2-2.6C343.9,425,349.7,430.4,356.7,433.8z"/>
	<path class="st109" d="M446.7,367.8c-14.2,11.4-30.3,17-48.6,17.2c-12.3,0.1-24.2-1.5-35.6-5.7c-6.6-2.4-12.8-6.2-17.8-11.5
		c5.5-0.8,10.9-3.1,16.5-0.4c0.7,0.3,1.9,0.5,2.4,0.2c5.1-3.4,10.6-0.3,15.8-1c7.3-1.1,14.5,1.9,21.8-0.5c3.2-1.1,7.3-1.1,10.7,0.8
		c1.3,0.7,2.5,0.7,3.7-0.1c2-1.2,4.2-1.3,6.3-1c7,0.9,14,0.9,21.1,0.6C444.2,366.4,445.5,367.3,446.7,367.8z"/>
</g>
</svg>
